{"glyphs":{"0":{"ha":833,"x_min":67,"x_max":767,"o":"m 417 -17 q 219 43 297 -17 q 103 215 140 103 q 67 485 67 326 q 103 756 67 643 q 219 927 140 868 q 417 986 297 986 q 615 927 538 986 q 730 756 693 868 q 767 485 767 643 q 730 215 767 326 q 615 43 693 103 q 417 -17 538 -17 m 417 117 q 524 152 485 117 q 582 251 564 188 q 600 400 600 315 l 600 569 q 582 718 600 654 q 524 817 564 782 q 417 853 485 853 q 310 817 350 853 q 251 718 269 782 q 233 569 233 654 l 233 400 q 251 251 233 315 q 310 152 269 188 q 417 117 350 117 z "},"1":{"ha":833,"x_min":61,"x_max":779,"o":"m 779 0 l 126 0 l 126 131 l 393 131 l 393 856 l 382 856 l 157 615 l 61 701 l 307 969 l 549 969 l 549 131 l 779 131 l 779 0 z "},"2":{"ha":833,"x_min":79,"x_max":751,"o":"m 751 133 l 751 0 l 93 0 l 93 150 l 403 426 q 516 553 476 492 q 556 681 556 615 l 556 699 q 513 809 556 768 q 399 850 471 850 q 277 806 319 850 q 217 697 235 761 l 79 750 q 140 865 100 811 q 247 953 181 919 q 411 986 314 986 q 579 949 510 986 q 685 848 649 913 q 722 700 722 783 q 692 558 722 621 q 608 440 661 494 q 490 329 556 385 l 263 133 l 751 133 z "},"3":{"ha":833,"x_min":43,"x_max":722,"o":"m 264 571 l 363 571 q 496 610 453 571 q 539 707 539 649 l 539 717 q 497 819 539 783 q 385 854 456 854 q 267 823 317 854 q 186 736 218 792 l 81 826 q 152 906 111 869 q 251 964 193 942 q 389 986 308 986 q 551 956 481 986 q 663 871 622 926 q 704 736 704 815 q 650 587 704 643 q 518 514 596 531 l 518 507 q 619 467 574 497 q 694 388 665 438 q 722 267 722 338 q 678 119 722 182 q 557 19 635 56 q 376 -17 479 -17 q 223 8 286 -17 q 117 73 160 33 q 43 157 74 113 l 158 247 q 242 152 194 189 q 375 115 290 115 q 511 158 464 115 q 558 275 558 200 l 558 285 q 509 399 558 360 q 367 438 460 438 l 264 438 l 264 571 z "},"4":{"ha":833,"x_min":49,"x_max":779,"o":"m 647 0 l 499 0 l 499 189 l 49 189 l 49 324 l 442 969 l 647 969 l 647 313 l 779 313 l 779 189 l 647 189 l 647 0 m 489 826 l 182 313 l 499 313 l 499 826 l 489 826 z "},"5":{"ha":833,"x_min":89,"x_max":756,"o":"m 706 969 l 706 833 l 275 833 l 250 490 l 260 490 q 308 558 282 529 q 371 601 333 586 q 463 617 408 617 q 612 581 546 617 q 717 477 678 544 q 756 314 756 410 q 715 143 756 218 q 597 26 675 68 q 410 -17 519 -17 q 263 8 324 -17 q 160 73 201 33 q 89 157 118 113 l 203 247 q 283 153 239 190 q 410 115 328 115 q 545 164 499 115 q 592 297 592 213 l 592 311 q 545 441 592 394 q 413 488 499 488 q 313 464 351 488 q 249 411 275 440 l 119 429 l 156 969 l 706 969 z "},"6":{"ha":833,"x_min":78,"x_max":760,"o":"m 419 -17 q 237 29 314 -17 q 119 160 160 75 q 78 361 78 244 q 109 560 78 467 q 192 731 140 653 q 303 869 243 808 q 425 969 364 931 l 633 969 q 444 816 524 890 q 315 660 365 742 q 240 474 264 578 l 250 471 q 300 542 271 510 q 372 593 329 574 q 475 613 415 613 q 622 576 557 613 q 723 472 686 539 q 760 313 760 404 q 717 142 760 217 q 599 25 675 67 q 419 -17 524 -17 m 419 111 q 515 132 475 111 q 576 193 554 153 q 599 290 599 233 l 599 308 q 576 406 599 365 q 515 467 554 446 q 419 488 475 488 q 323 467 363 488 q 262 406 283 446 q 240 308 240 365 l 240 290 q 262 193 240 233 q 323 132 283 153 q 419 111 363 111 z "},"7":{"ha":833,"x_min":88,"x_max":744,"o":"m 403 0 l 238 0 l 589 840 l 222 840 l 222 661 l 88 661 l 88 969 l 744 969 l 744 833 l 403 0 z "},"8":{"ha":833,"x_min":69,"x_max":764,"o":"m 417 -17 q 228 20 306 -17 q 110 121 150 57 q 69 264 69 185 q 123 420 69 361 q 264 503 176 479 l 264 514 q 144 597 189 540 q 99 738 99 654 q 182 917 99 849 q 417 986 265 986 q 651 917 568 986 q 735 738 735 849 q 690 597 735 654 q 569 514 644 540 l 569 503 q 710 420 657 479 q 764 264 764 361 q 724 121 764 185 q 606 20 683 57 q 417 -17 529 -17 m 417 110 q 552 150 504 110 q 600 263 600 190 l 600 290 q 552 402 600 361 q 417 443 504 443 q 281 402 329 443 q 233 290 233 361 l 233 263 q 281 150 233 190 q 417 110 329 110 m 417 564 q 539 600 496 564 q 582 701 582 636 l 582 722 q 539 824 582 788 q 417 860 496 860 q 294 824 338 860 q 251 722 251 788 l 251 701 q 294 600 251 636 q 417 564 338 564 z "},"9":{"ha":833,"x_min":74,"x_max":756,"o":"m 756 608 q 724 410 756 503 q 642 239 693 317 q 530 100 590 161 q 408 0 469 39 l 200 0 q 389 154 310 81 q 519 310 468 228 q 593 496 569 392 l 583 499 q 534 428 564 461 q 462 376 504 396 q 358 357 419 357 q 212 394 276 357 q 110 498 147 431 q 74 657 74 565 q 116 828 74 754 q 235 944 158 903 q 414 986 311 986 q 597 940 521 986 q 715 810 674 894 q 756 608 756 725 m 414 482 q 510 503 471 482 q 572 564 550 524 q 593 661 593 604 l 593 679 q 572 776 593 736 q 510 838 550 817 q 414 858 471 858 q 319 838 358 858 q 257 776 279 817 q 235 679 235 736 l 235 661 q 257 564 235 604 q 319 503 279 524 q 414 482 358 482 z "},"a":{"ha":763,"x_min":56,"x_max":722,"o":"m 722 0 l 638 0 q 566 19 596 0 q 521 72 536 38 q 506 154 506 107 l 506 167 l 549 121 l 500 121 q 424 19 479 54 q 289 -17 368 -17 q 117 42 178 -17 q 56 199 56 100 q 91 319 56 271 q 194 391 126 367 q 364 415 263 415 l 494 415 l 494 476 q 458 578 494 542 q 346 615 422 615 q 242 587 283 615 q 174 517 201 558 l 83 599 q 185 699 119 660 q 356 739 251 739 q 570 673 494 739 q 646 486 646 607 l 646 124 l 722 124 l 722 0 m 494 318 l 367 318 q 249 293 288 318 q 210 221 210 268 l 210 196 q 243 124 210 149 q 332 99 276 99 q 415 113 379 99 q 473 153 451 126 q 494 214 494 179 l 494 318 z "},"b":{"ha":822,"x_min":108,"x_max":757,"o":"m 108 0 l 108 1028 l 260 1028 l 260 603 l 267 603 q 343 703 289 668 q 469 739 397 739 q 625 694 561 739 q 723 565 689 649 q 757 361 757 481 q 723 158 757 243 q 625 28 689 74 q 469 -17 561 -17 q 344 19 397 -17 q 267 119 292 56 l 260 119 l 260 0 l 108 0 m 424 111 q 550 163 503 111 q 597 299 597 215 l 597 424 q 550 558 597 507 q 424 610 503 610 q 341 594 378 610 q 282 551 304 579 q 260 486 260 524 l 260 242 q 282 172 260 200 q 341 127 304 143 q 424 111 378 111 z "},"c":{"ha":707,"x_min":58,"x_max":671,"o":"m 388 -17 q 144 85 231 -17 q 58 361 58 188 q 144 637 58 535 q 388 739 231 739 q 565 690 496 739 q 665 561 635 642 l 540 503 q 486 583 525 553 q 388 613 447 613 q 261 560 304 613 q 218 425 218 508 l 218 297 q 261 161 218 214 q 388 108 304 108 q 493 141 453 108 q 557 228 533 174 l 671 167 q 564 31 636 78 q 388 -17 492 -17 z "},"d":{"ha":822,"x_min":65,"x_max":714,"o":"m 563 0 l 563 119 l 556 119 q 478 19 531 56 q 353 -17 425 -17 q 198 28 263 -17 q 99 158 133 74 q 65 361 65 243 q 99 565 65 481 q 198 694 133 649 q 353 739 263 739 q 479 703 425 739 q 556 603 533 668 l 563 603 l 563 1028 l 714 1028 l 714 0 l 563 0 m 399 111 q 481 127 444 111 q 540 172 518 143 q 563 242 563 200 l 563 486 q 540 551 563 524 q 481 594 518 579 q 399 610 444 610 q 273 558 321 610 q 225 424 225 507 l 225 299 q 273 163 225 215 q 399 111 321 111 z "},"e":{"ha":771,"x_min":58,"x_max":711,"o":"m 393 -17 q 215 30 290 -17 q 99 161 140 76 q 58 361 58 246 q 99 560 58 476 q 213 692 139 644 q 389 739 286 739 q 567 691 496 739 q 675 561 639 643 q 711 379 711 479 l 711 322 l 217 322 l 217 299 q 266 162 217 215 q 407 108 315 108 q 519 138 474 108 q 596 217 565 167 l 686 129 q 569 24 644 64 q 393 -17 493 -17 m 392 621 q 299 597 339 621 q 238 530 260 572 q 217 432 217 488 l 217 422 l 553 422 l 553 436 q 533 533 553 492 q 478 598 514 575 q 392 621 442 621 z "},"f":{"ha":472,"x_min":36,"x_max":449,"o":"m 146 0 l 146 599 l 36 599 l 36 722 l 146 722 l 146 842 q 192 978 146 929 q 329 1028 239 1028 l 449 1028 l 449 904 l 297 904 l 297 722 l 449 722 l 449 599 l 297 599 l 297 0 l 146 0 z "},"g":{"ha":747,"x_min":47,"x_max":743,"o":"m 743 -68 q 705 -194 743 -143 q 586 -269 667 -244 q 375 -294 506 -294 q 185 -274 258 -294 q 80 -214 113 -253 q 47 -121 47 -175 q 80 -27 47 -61 q 171 18 113 7 l 171 33 q 110 75 131 46 q 89 144 89 104 q 127 230 89 200 q 218 272 165 260 l 218 278 q 119 364 153 308 q 85 492 85 419 q 119 621 85 565 q 217 708 153 676 q 372 739 282 739 q 442 733 410 739 q 504 717 475 728 l 504 736 q 528 811 504 785 q 599 838 551 838 l 708 838 l 708 717 l 563 717 l 563 688 q 637 604 611 654 q 663 492 663 554 q 628 364 663 419 q 530 278 594 308 q 374 247 465 247 q 323 250 347 247 q 279 258 299 253 q 232 231 253 249 q 211 186 211 214 q 237 144 211 157 q 311 132 263 132 l 489 132 q 683 79 622 132 q 743 -68 743 26 m 601 -85 q 572 -24 601 -46 q 468 -3 542 -3 l 224 -3 q 187 -38 199 -17 q 175 -86 175 -60 q 210 -157 175 -129 q 329 -185 244 -185 l 424 -185 q 557 -160 513 -185 q 601 -85 601 -135 m 374 356 q 477 386 440 356 q 514 478 514 417 l 514 507 q 477 599 514 568 q 374 629 440 629 q 270 599 307 629 q 233 507 233 568 l 233 478 q 270 386 233 417 q 374 356 307 356 z "},"h":{"ha":806,"x_min":108,"x_max":704,"o":"m 108 0 l 108 1028 l 260 1028 l 260 603 l 267 603 q 338 700 290 661 q 469 739 386 739 q 642 665 581 739 q 704 458 704 592 l 704 0 l 553 0 l 553 440 q 520 567 553 525 q 417 610 488 610 q 341 597 376 610 q 283 556 306 583 q 260 486 260 528 l 260 0 l 108 0 z "},"i":{"ha":368,"x_min":94,"x_max":274,"o":"m 185 851 q 116 874 138 851 q 94 931 94 896 l 94 954 q 116 1011 94 989 q 185 1033 138 1033 q 253 1011 232 1033 q 274 954 274 989 l 274 931 q 253 874 274 896 q 185 851 232 851 m 108 0 l 108 722 l 260 722 l 260 0 l 108 0 z "},"j":{"ha":368,"x_min":-4,"x_max":274,"o":"m 108 -154 l 108 722 l 260 722 l 260 -97 q 217 -229 260 -181 q 83 -278 175 -278 l -4 -278 l -4 -154 l 108 -154 m 185 851 q 116 874 138 851 q 94 931 94 896 l 94 954 q 116 1011 94 989 q 185 1033 138 1033 q 253 1011 232 1033 q 274 954 274 989 l 274 931 q 253 874 274 896 q 185 851 232 851 z "},"k":{"ha":761,"x_min":108,"x_max":749,"o":"m 108 0 l 108 1028 l 260 1028 l 260 535 l 260 396 l 267 396 l 368 524 l 547 722 l 721 722 l 465 440 l 749 0 l 567 0 l 361 340 l 260 235 l 260 0 l 108 0 z "},"l":{"ha":396,"x_min":108,"x_max":360,"o":"m 360 0 l 264 0 q 147 41 186 0 q 108 151 108 82 l 108 1028 l 260 1028 l 260 124 l 360 124 l 360 0 z "},"m":{"ha":1225,"x_min":108,"x_max":1124,"o":"m 260 0 l 108 0 l 108 722 l 260 722 l 260 603 l 267 603 q 334 699 289 660 q 461 739 379 739 q 590 703 533 739 q 674 592 647 668 l 678 592 q 753 695 697 651 q 897 739 808 739 q 1065 665 1006 739 q 1124 458 1124 592 l 1124 0 l 972 0 l 972 440 q 940 567 972 525 q 840 610 908 610 q 768 597 803 610 q 713 556 733 583 q 692 486 692 528 l 692 0 l 540 0 l 540 440 q 508 567 540 525 q 410 610 476 610 q 338 597 372 610 q 281 556 303 583 q 260 486 260 528 l 260 0 z "},"n":{"ha":806,"x_min":108,"x_max":704,"o":"m 260 0 l 108 0 l 108 722 l 260 722 l 260 603 l 267 603 q 338 700 290 661 q 469 739 386 739 q 642 665 581 739 q 704 458 704 592 l 704 0 l 553 0 l 553 440 q 520 567 553 525 q 417 610 488 610 q 341 597 376 610 q 283 556 306 583 q 260 486 260 528 l 260 0 z "},"o":{"ha":781,"x_min":58,"x_max":721,"o":"m 390 -17 q 215 30 289 -17 q 99 161 140 76 q 58 361 58 246 q 99 561 58 476 q 215 692 140 646 q 390 739 289 739 q 565 692 490 739 q 680 561 639 646 q 721 361 721 476 q 680 161 721 246 q 565 30 639 76 q 390 -17 490 -17 m 390 110 q 515 158 468 110 q 561 300 561 206 l 561 422 q 515 565 561 517 q 390 613 468 613 q 266 565 314 613 q 218 422 218 517 l 218 300 q 266 158 218 206 q 390 110 314 110 z "},"p":{"ha":822,"x_min":108,"x_max":757,"o":"m 108 -278 l 108 722 l 260 722 l 260 603 l 267 603 q 343 703 289 668 q 469 739 397 739 q 625 694 561 739 q 723 565 689 649 q 757 361 757 481 q 723 158 757 243 q 625 28 689 74 q 469 -17 561 -17 q 344 19 397 -17 q 267 119 292 56 l 260 119 l 260 -278 l 108 -278 m 424 111 q 550 163 503 111 q 597 299 597 215 l 597 424 q 550 558 597 507 q 424 610 503 610 q 341 594 378 610 q 282 551 304 579 q 260 486 260 524 l 260 242 q 282 172 260 200 q 341 127 304 143 q 424 111 378 111 z "},"q":{"ha":822,"x_min":65,"x_max":714,"o":"m 563 -278 l 563 119 l 556 119 q 478 19 531 56 q 353 -17 425 -17 q 198 28 263 -17 q 99 158 133 74 q 65 361 65 243 q 99 565 65 481 q 198 694 133 649 q 353 739 263 739 q 479 703 425 739 q 556 603 533 668 l 563 603 l 563 722 l 714 722 l 714 -278 l 563 -278 m 399 111 q 481 127 444 111 q 540 172 518 143 q 563 242 563 200 l 563 486 q 540 551 563 524 q 481 594 518 579 q 399 610 444 610 q 273 558 321 610 q 225 424 225 507 l 225 299 q 273 163 225 215 q 399 111 321 111 z "},"r":{"ha":532,"x_min":108,"x_max":506,"o":"m 260 0 l 108 0 l 108 722 l 260 722 l 260 579 l 267 579 q 302 648 278 615 q 367 701 326 681 q 465 722 407 722 l 506 722 l 506 576 l 446 576 q 344 563 386 576 q 281 524 303 549 q 260 461 260 499 l 260 0 z "},"s":{"ha":686,"x_min":44,"x_max":624,"o":"m 338 -17 q 166 19 236 -17 q 44 119 96 56 l 142 208 q 231 133 182 161 q 346 106 281 106 q 445 131 413 106 q 478 203 478 157 q 455 261 478 238 q 375 293 432 285 l 308 301 q 182 338 236 313 q 99 406 128 363 q 71 517 71 450 q 145 681 71 622 q 339 739 219 739 q 453 725 404 739 q 539 685 501 711 q 608 624 576 660 l 515 535 q 442 592 488 568 q 339 617 397 617 q 247 592 278 617 q 217 526 217 568 q 244 464 217 485 q 328 433 271 443 l 394 425 q 569 355 514 407 q 624 215 624 303 q 588 94 624 146 q 489 13 553 42 q 338 -17 425 -17 z "},"t":{"ha":507,"x_min":36,"x_max":451,"o":"m 440 0 l 308 0 q 190 42 231 0 q 149 158 149 85 l 149 599 l 36 599 l 36 722 l 97 722 q 149 739 135 722 q 164 793 164 756 l 164 919 l 300 919 l 300 722 l 451 722 l 451 599 l 300 599 l 300 124 l 440 124 l 440 0 z "},"u":{"ha":806,"x_min":101,"x_max":697,"o":"m 546 0 l 546 119 l 539 119 q 473 24 519 65 q 336 -17 426 -17 q 164 56 226 -17 q 101 263 101 129 l 101 722 l 253 722 l 253 282 q 287 155 253 199 q 390 111 321 111 q 466 125 431 111 q 524 167 501 139 q 546 236 546 194 l 546 722 l 697 722 l 697 0 l 546 0 z "},"v":{"ha":711,"x_min":19,"x_max":690,"o":"m 444 0 l 265 0 l 19 722 l 169 722 l 281 393 l 354 140 l 363 140 l 436 393 l 547 722 l 690 722 l 444 0 z "},"w":{"ha":1110,"x_min":36,"x_max":1074,"o":"m 233 0 l 36 722 l 183 722 l 257 419 l 322 144 l 326 144 l 401 419 l 489 722 l 625 722 l 714 419 l 790 144 l 794 144 l 858 419 l 933 722 l 1074 722 l 879 0 l 708 0 l 613 329 l 556 535 l 551 535 l 496 329 l 400 0 l 233 0 z "},"x":{"ha":736,"x_min":28,"x_max":708,"o":"m 28 0 l 282 365 l 35 722 l 210 722 l 372 471 l 376 471 l 542 722 l 704 722 l 457 367 l 708 0 l 533 0 l 367 263 l 363 263 l 189 0 l 28 0 z "},"y":{"ha":714,"x_min":17,"x_max":697,"o":"m 407 297 l 551 722 l 697 722 l 393 -143 q 353 -222 376 -192 q 295 -265 331 -251 q 203 -278 260 -278 l 115 -278 l 115 -154 l 238 -154 l 279 -32 l 17 722 l 168 722 l 313 297 l 354 140 l 361 140 l 407 297 z "},"z":{"ha":676,"x_min":50,"x_max":626,"o":"m 626 0 l 50 0 l 50 122 l 438 599 l 63 599 l 63 722 l 617 722 l 617 606 l 224 124 l 626 124 l 626 0 z "},"A":{"ha":917,"x_min":31,"x_max":886,"o":"m 886 0 l 722 0 l 638 263 l 275 263 l 189 0 l 31 0 l 361 969 l 557 969 l 886 0 m 599 397 l 503 685 l 458 825 l 451 825 l 407 685 l 311 397 l 599 397 z "},"B":{"ha":915,"x_min":119,"x_max":842,"o":"m 119 0 l 119 969 l 549 969 q 738 901 668 969 q 807 719 807 833 q 781 603 807 647 q 717 539 756 560 q 639 514 679 518 l 639 506 q 704 491 669 504 q 770 451 739 478 q 822 383 801 425 q 842 279 842 340 q 809 138 842 201 q 720 37 776 74 q 592 0 664 0 l 119 0 m 276 429 l 276 135 l 546 135 q 615 149 586 135 q 660 191 644 164 q 676 258 676 218 l 676 306 q 660 372 676 344 q 615 415 644 400 q 546 429 586 429 l 276 429 m 276 835 l 276 560 l 519 560 q 585 573 558 560 q 627 612 613 586 q 642 675 642 638 l 642 719 q 627 781 642 756 q 585 821 613 807 q 519 835 558 835 l 276 835 z "},"C":{"ha":881,"x_min":76,"x_max":833,"o":"m 483 -17 q 265 40 357 -17 q 125 206 174 96 q 76 479 76 315 q 125 755 76 642 q 265 927 174 868 q 483 986 357 986 q 694 931 608 986 q 829 767 779 875 l 697 694 q 620 805 672 764 q 483 846 568 846 q 307 768 371 846 q 243 556 243 690 l 243 407 q 307 199 243 274 q 483 124 371 124 q 625 169 569 124 q 707 285 681 214 l 833 208 q 697 44 785 104 q 483 -17 608 -17 z "},"D":{"ha":947,"x_min":119,"x_max":872,"o":"m 119 0 l 119 969 l 463 969 q 678 916 586 969 q 822 755 771 863 q 872 485 872 647 q 822 215 872 322 q 678 53 771 107 q 463 0 586 0 l 119 0 m 276 139 l 463 139 q 590 169 535 139 q 674 260 644 200 q 704 407 704 319 l 704 563 q 674 710 704 650 q 590 800 644 769 q 463 831 535 831 l 276 831 l 276 139 z "},"E":{"ha":824,"x_min":119,"x_max":740,"o":"m 740 0 l 119 0 l 119 969 l 740 969 l 740 831 l 276 831 l 276 560 l 697 560 l 697 421 l 276 421 l 276 139 l 740 139 l 740 0 z "},"F":{"ha":792,"x_min":119,"x_max":725,"o":"m 276 0 l 119 0 l 119 969 l 725 969 l 725 831 l 276 831 l 276 560 l 675 560 l 675 421 l 276 421 l 276 0 z "},"G":{"ha":979,"x_min":76,"x_max":881,"o":"m 742 0 l 742 147 l 736 147 q 654 31 722 78 q 476 -17 586 -17 q 270 41 361 -17 q 128 210 179 99 q 76 483 76 321 q 129 758 76 646 q 278 928 182 869 q 500 986 374 986 q 720 928 629 986 q 861 768 811 869 l 733 693 q 647 803 704 761 q 500 846 589 846 q 365 813 424 846 q 275 716 307 779 q 243 564 243 653 l 243 407 q 275 255 243 318 q 366 158 307 192 q 506 124 425 124 q 618 144 568 124 q 699 205 668 164 q 729 307 729 246 l 729 382 l 529 382 l 529 517 l 881 517 l 881 0 l 742 0 z "},"H":{"ha":992,"x_min":119,"x_max":872,"o":"m 715 0 l 715 421 l 276 421 l 276 0 l 119 0 l 119 969 l 276 969 l 276 560 l 715 560 l 715 969 l 872 969 l 872 0 l 715 0 z "},"I":{"ha":575,"x_min":78,"x_max":497,"o":"m 497 0 l 78 0 l 78 128 l 208 128 l 208 842 l 78 842 l 78 969 l 497 969 l 497 842 l 365 842 l 365 128 l 497 128 l 497 0 z "},"J":{"ha":738,"x_min":38,"x_max":624,"o":"m 150 969 l 624 969 l 624 264 q 588 116 624 179 q 485 18 551 53 q 329 -17 418 -17 q 130 51 203 -17 q 38 226 57 118 l 182 257 q 230 159 194 196 q 329 122 265 122 q 429 161 392 122 q 467 281 467 200 l 467 839 l 150 839 l 150 969 z "},"K":{"ha":917,"x_min":119,"x_max":893,"o":"m 704 0 l 410 453 l 276 300 l 276 0 l 119 0 l 119 969 l 276 969 l 276 654 l 276 478 l 282 478 l 421 654 l 682 969 l 865 969 l 519 561 l 893 0 l 704 0 z "},"L":{"ha":713,"x_min":119,"x_max":671,"o":"m 671 0 l 119 0 l 119 969 l 276 969 l 276 139 l 671 139 l 671 0 z "},"M":{"ha":1132,"x_min":119,"x_max":1013,"o":"m 119 0 l 119 969 l 304 969 l 464 667 l 565 476 l 569 476 l 671 667 l 831 969 l 1013 969 l 1013 0 l 863 0 l 863 582 l 863 739 l 857 739 l 779 586 l 565 197 l 354 585 l 275 743 l 269 743 l 269 582 l 269 0 l 119 0 z "},"N":{"ha":992,"x_min":119,"x_max":872,"o":"m 697 0 l 381 535 l 274 742 l 269 742 l 269 531 l 269 0 l 119 0 l 119 969 l 296 969 l 611 435 l 718 228 l 722 228 l 722 439 l 722 969 l 872 969 l 872 0 l 697 0 z "},"O":{"ha":988,"x_min":76,"x_max":911,"o":"m 493 -17 q 273 41 367 -17 q 128 210 179 99 q 76 485 76 322 q 128 760 76 649 q 273 928 179 871 q 493 986 367 986 q 715 928 621 986 q 860 760 808 871 q 911 485 911 649 q 860 210 911 322 q 715 41 808 99 q 493 -17 621 -17 m 493 124 q 625 158 569 124 q 713 257 681 193 q 744 408 744 321 l 744 561 q 713 714 744 650 q 625 812 681 778 q 493 846 569 846 q 363 812 419 846 q 274 714 306 778 q 243 561 243 650 l 243 408 q 274 257 243 321 q 363 158 306 193 q 493 124 419 124 z "},"P":{"ha":871,"x_min":119,"x_max":818,"o":"m 276 0 l 119 0 l 119 969 l 536 969 q 688 933 625 969 q 785 832 751 897 q 818 678 818 767 q 785 525 818 590 q 688 423 751 460 q 536 386 625 386 l 276 386 l 276 0 m 276 832 l 276 524 l 526 524 q 594 538 565 524 q 638 578 622 551 q 653 644 653 606 l 653 711 q 638 778 653 751 q 594 818 622 804 q 526 832 565 832 l 276 832 z "},"Q":{"ha":988,"x_min":76,"x_max":911,"o":"m 726 -110 l 726 -240 l 588 -240 q 468 -199 507 -240 q 429 -86 429 -157 l 429 -12 q 241 63 321 1 q 119 230 161 124 q 76 485 76 336 q 128 760 76 649 q 273 928 179 871 q 493 986 367 986 q 715 928 621 986 q 860 760 808 871 q 911 485 911 649 q 870 236 911 340 q 755 70 829 132 q 578 -10 681 8 l 578 -110 l 726 -110 m 493 124 q 625 158 569 124 q 713 257 681 193 q 744 408 744 321 l 744 561 q 713 714 744 650 q 625 812 681 778 q 493 846 569 846 q 363 812 419 846 q 274 714 306 778 q 243 561 243 650 l 243 408 q 274 257 243 321 q 363 158 306 193 q 493 124 419 124 z "},"R":{"ha":910,"x_min":119,"x_max":839,"o":"m 276 390 l 276 0 l 119 0 l 119 969 l 538 969 q 687 935 625 969 q 783 835 749 900 q 818 679 818 771 q 770 506 818 578 q 631 407 722 435 l 839 0 l 664 0 l 471 390 l 276 390 m 276 524 l 526 524 q 594 538 565 524 q 638 578 622 551 q 653 644 653 606 l 653 711 q 638 778 653 751 q 594 818 622 804 q 526 832 565 832 l 276 832 l 276 524 z "},"S":{"ha":832,"x_min":56,"x_max":763,"o":"m 410 -17 q 203 28 289 -17 q 56 147 117 74 l 165 249 q 277 154 215 186 q 418 122 339 122 q 558 165 511 122 q 606 276 606 207 q 592 342 606 314 q 544 388 578 369 q 456 417 511 406 l 369 432 q 212 485 275 450 q 117 576 149 519 q 85 708 85 632 q 126 857 85 794 q 245 953 168 919 q 425 986 322 986 q 615 948 535 986 q 751 838 696 910 l 642 740 q 550 818 604 789 q 415 847 496 847 q 287 814 332 847 q 242 717 242 781 q 258 650 242 676 q 309 607 275 624 q 394 581 343 590 l 481 563 q 640 508 578 544 q 733 417 703 472 q 763 285 763 363 q 721 127 763 194 q 600 22 679 60 q 410 -17 521 -17 z "},"T":{"ha":801,"x_min":33,"x_max":768,"o":"m 768 831 l 479 831 l 479 0 l 322 0 l 322 831 l 33 831 l 33 969 l 768 969 l 768 831 z "},"U":{"ha":951,"x_min":114,"x_max":838,"o":"m 114 969 l 268 969 l 268 372 q 288 235 268 290 q 354 151 308 179 q 475 124 400 124 q 597 151 551 124 q 663 235 642 179 q 683 372 683 290 l 683 969 l 838 969 l 838 397 q 802 164 838 256 q 687 28 767 72 q 474 -17 607 -17 q 262 28 340 -17 q 149 164 183 72 q 114 397 114 256 l 114 969 z "},"V":{"ha":871,"x_min":24,"x_max":846,"o":"m 524 0 l 342 0 l 24 969 l 188 969 l 340 490 l 435 153 l 440 153 l 535 490 l 689 969 l 846 969 l 524 0 z "},"W":{"ha":1286,"x_min":33,"x_max":1253,"o":"m 439 0 l 263 0 l 33 969 l 193 969 l 292 503 l 360 181 l 364 181 l 442 503 l 557 969 l 732 969 l 846 503 l 922 182 l 926 182 l 997 503 l 1099 969 l 1253 969 l 1014 0 l 838 0 l 714 501 l 642 796 l 639 796 l 565 501 l 439 0 z "},"X":{"ha":888,"x_min":29,"x_max":858,"o":"m 29 0 l 343 497 l 40 969 l 225 969 l 446 608 l 449 608 l 672 969 l 846 969 l 540 497 l 858 0 l 674 0 l 439 386 l 435 386 l 203 0 l 29 0 z "},"Y":{"ha":857,"x_min":15,"x_max":842,"o":"m 506 0 l 349 0 l 349 382 l 15 969 l 193 969 l 431 538 l 433 538 l 667 969 l 842 969 l 506 385 l 506 0 z "},"Z":{"ha":822,"x_min":51,"x_max":769,"o":"m 769 139 l 769 0 l 51 0 l 51 140 l 578 831 l 79 831 l 79 969 l 754 969 l 754 829 l 228 139 l 769 139 z "},"&":{"ha":981,"x_min":88,"x_max":957,"o":"m 768 0 l 679 97 l 676 97 q 615 47 653 74 q 524 1 578 19 q 397 -17 471 -17 q 228 19 297 -17 q 123 117 158 56 q 88 253 88 178 q 115 372 88 322 q 187 459 142 422 q 283 525 232 496 q 206 631 238 574 q 175 753 175 689 q 208 871 175 818 q 301 955 240 924 q 443 986 361 986 q 574 960 517 986 q 663 885 631 933 q 696 772 696 838 q 667 663 696 710 q 591 578 639 615 q 486 507 543 540 l 675 303 q 705 409 694 353 q 718 521 715 465 l 925 521 l 925 393 l 832 393 q 805 293 821 340 q 767 206 789 246 l 957 0 l 768 0 m 438 865 q 354 835 388 865 q 321 757 321 806 l 321 746 q 331 699 321 722 q 361 649 342 675 q 408 590 381 622 q 480 637 449 613 q 531 690 511 661 q 550 753 550 719 l 550 764 q 535 819 550 796 q 494 853 519 842 q 438 865 468 865 m 417 113 q 488 122 456 113 q 548 147 521 131 q 596 186 575 163 l 361 440 q 299 399 326 422 q 258 347 272 376 q 243 276 243 318 l 243 258 q 289 153 243 193 q 417 113 335 113 z "},"@":{"ha":1244,"x_min":88,"x_max":1160,"o":"m 939 -67 l 939 -168 l 629 -168 q 342 -97 464 -168 q 153 103 219 -25 q 88 401 88 232 q 156 703 88 572 q 347 909 224 835 q 638 983 469 983 q 839 951 744 983 q 1006 853 933 919 q 1119 688 1078 788 q 1160 456 1160 589 q 1132 274 1160 354 q 1049 149 1104 194 q 910 104 993 104 q 801 138 840 104 q 756 228 761 172 l 749 228 q 688 138 728 172 q 582 104 649 104 q 467 138 519 104 q 383 237 414 171 q 353 403 353 303 q 383 569 353 503 q 467 667 414 635 q 582 700 519 700 q 681 669 643 700 q 733 593 718 638 l 740 593 l 740 688 l 861 688 l 861 286 q 878 222 861 240 q 931 204 896 204 q 1020 265 989 204 q 1051 436 1051 325 l 1051 490 q 997 699 1051 611 q 849 836 943 788 q 636 885 756 885 q 457 851 538 885 q 318 758 376 818 q 228 616 260 697 q 196 439 196 535 l 196 369 q 227 193 196 274 q 315 54 258 113 q 452 -35 372 -4 q 631 -67 532 -67 l 939 -67 m 618 211 q 683 226 656 211 q 726 266 711 240 q 740 325 740 292 l 740 490 q 726 544 740 521 q 684 581 711 567 q 618 594 657 594 q 521 556 554 594 q 488 454 488 517 l 488 350 q 521 249 488 288 q 618 211 554 211 z "},"-":{"ha":557,"x_min":86,"x_max":471,"o":"m 471 346 l 86 346 l 86 500 l 471 500 l 471 346 z "},"‐":{"ha":557,"x_min":86,"x_max":471,"o":"m 471 346 l 86 346 l 86 500 l 471 500 l 471 346 z "},"‑":{"ha":557,"x_min":86,"x_max":471,"o":"m 471 346 l 86 346 l 86 500 l 471 500 l 471 346 z "},"‒":{"ha":817,"x_min":50,"x_max":767,"o":"m 767 357 l 50 357 l 50 488 l 767 488 l 767 357 z "},"–":{"ha":817,"x_min":50,"x_max":767,"o":"m 767 357 l 50 357 l 50 488 l 767 488 l 767 357 z "},"—":{"ha":1083,"x_min":50,"x_max":1033,"o":"m 1033 357 l 50 357 l 50 488 l 1033 488 l 1033 357 z "},"―":{"ha":1389,"x_min":0,"x_max":1389,"o":"m 1389 357 l 0 357 l 0 488 l 1389 488 l 1389 357 z "},"_":{"ha":779,"x_min":42,"x_max":738,"o":"m 738 -244 l 42 -244 l 42 -115 l 738 -115 l 738 -244 z "},".":{"ha":400,"x_min":100,"x_max":301,"o":"m 200 -17 q 124 10 149 -17 q 100 78 100 38 l 100 100 q 124 167 100 142 q 200 193 149 193 q 277 167 253 193 q 301 100 301 142 l 301 78 q 277 10 301 38 q 200 -17 253 -17 z "},"…":{"ha":1171,"x_min":100,"x_max":1072,"o":"m 200 -17 q 124 10 149 -17 q 100 78 100 38 l 100 100 q 124 167 100 142 q 200 193 149 193 q 277 167 253 193 q 301 100 301 142 l 301 78 q 277 10 301 38 q 200 -17 253 -17 m 585 -17 q 509 10 533 -17 q 485 78 485 38 l 485 100 q 509 167 485 142 q 585 193 533 193 q 662 167 638 193 q 686 100 686 142 l 686 78 q 662 10 686 38 q 585 -17 638 -17 m 971 -17 q 895 10 919 -17 q 871 78 871 38 l 871 100 q 895 167 871 142 q 971 193 919 193 q 1048 167 1024 193 q 1072 100 1072 142 l 1072 78 q 1048 10 1072 38 q 971 -17 1024 -17 z "},":":{"ha":428,"x_min":114,"x_max":315,"o":"m 214 -17 q 138 10 163 -17 q 114 78 114 38 l 114 100 q 138 167 114 142 q 214 193 163 193 q 291 167 267 193 q 315 100 315 142 l 315 78 q 291 10 315 38 q 214 -17 267 -17 m 214 528 q 138 555 163 528 q 114 622 114 582 l 114 644 q 138 712 114 686 q 214 738 163 738 q 291 712 267 738 q 315 644 315 686 l 315 622 q 291 555 315 582 q 214 528 267 528 z "},",":{"ha":400,"x_min":53,"x_max":301,"o":"m 200 193 q 277 167 253 193 q 301 99 301 140 l 301 76 q 265 -67 301 8 q 165 -193 228 -142 l 53 -193 q 126 -106 97 -149 q 171 -12 156 -64 q 117 19 135 -6 q 100 76 100 43 l 100 99 q 124 167 100 140 q 200 193 149 193 z "},";":{"ha":428,"x_min":67,"x_max":315,"o":"m 214 193 q 291 167 267 193 q 315 99 315 140 l 315 76 q 278 -67 315 8 q 179 -193 242 -142 l 67 -193 q 140 -106 111 -149 q 185 -12 169 -64 q 131 19 149 -6 q 114 76 114 43 l 114 99 q 138 167 114 140 q 214 193 163 193 m 214 528 q 138 555 163 528 q 114 622 114 582 l 114 644 q 138 712 114 686 q 214 738 163 738 q 291 712 267 738 q 315 644 315 686 l 315 622 q 291 555 315 582 q 214 528 267 528 z "},";":{"ha":428,"x_min":67,"x_max":315,"o":"m 214 193 q 291 167 267 193 q 315 99 315 140 l 315 76 q 278 -67 315 8 q 179 -193 242 -142 l 67 -193 q 140 -106 111 -149 q 185 -12 169 -64 q 131 19 149 -6 q 114 76 114 43 l 114 99 q 138 167 114 140 q 214 193 163 193 m 214 528 q 138 555 163 528 q 114 622 114 582 l 114 644 q 138 712 114 686 q 214 738 163 738 q 291 712 267 738 q 315 644 315 686 l 315 622 q 291 555 315 582 q 214 528 267 528 z "},"'":{"ha":351,"x_min":108,"x_max":243,"o":"m 243 611 l 108 611 l 108 1028 l 243 1028 l 243 611 z "},"\"":{"ha":626,"x_min":108,"x_max":518,"o":"m 243 611 l 108 611 l 108 1028 l 243 1028 l 243 611 m 517 611 l 382 611 l 382 1028 l 517 1028 l 517 611 z "},"‘":{"ha":396,"x_min":93,"x_max":339,"o":"m 193 651 q 117 676 142 651 q 93 740 93 701 l 93 764 q 131 905 93 832 q 231 1028 169 978 l 339 1028 q 267 944 296 985 q 225 851 238 903 q 276 822 260 846 q 293 767 293 797 l 293 740 q 269 676 293 701 q 193 651 244 651 z "},"’":{"ha":396,"x_min":57,"x_max":301,"o":"m 203 1042 q 278 1017 254 1042 q 301 951 301 992 l 301 928 q 264 789 301 863 q 165 665 226 715 l 57 665 q 128 749 100 708 q 171 840 157 790 q 119 872 136 849 q 103 926 103 894 l 103 951 q 127 1017 103 992 q 203 1042 151 1042 z "},"“":{"ha":696,"x_min":93,"x_max":639,"o":"m 193 651 q 117 676 142 651 q 93 740 93 701 l 93 764 q 131 905 93 832 q 231 1028 169 978 l 339 1028 q 267 944 296 985 q 225 851 238 903 q 276 822 260 846 q 293 767 293 797 l 293 740 q 269 676 293 701 q 193 651 244 651 m 493 651 q 417 676 442 651 q 393 740 393 701 l 393 764 q 431 905 393 832 q 531 1028 469 978 l 639 1028 q 567 944 596 985 q 525 851 538 903 q 576 822 560 846 q 593 767 593 797 l 593 740 q 569 676 593 701 q 493 651 544 651 z "},"”":{"ha":694,"x_min":57,"x_max":601,"o":"m 203 1042 q 278 1017 254 1042 q 301 951 301 992 l 301 928 q 264 789 301 863 q 165 665 226 715 l 57 665 q 128 749 100 708 q 171 840 157 790 q 119 872 136 849 q 103 926 103 894 l 103 951 q 127 1017 103 992 q 203 1042 151 1042 m 503 1042 q 578 1017 554 1042 q 601 951 601 992 l 601 928 q 564 789 601 863 q 465 665 526 715 l 357 665 q 428 749 400 708 q 471 840 457 790 q 419 872 436 849 q 403 926 403 894 l 403 951 q 427 1017 403 992 q 503 1042 451 1042 z "},"‚":{"ha":399,"x_min":50,"x_max":296,"o":"m 197 215 q 273 190 250 215 q 296 125 296 164 l 296 100 q 259 -39 296 33 q 161 -161 222 -111 l 50 -161 q 124 -77 94 -118 q 165 14 153 -36 q 115 46 131 22 q 99 100 99 69 l 99 125 q 122 190 99 164 q 197 215 144 215 z "},"„":{"ha":697,"x_min":50,"x_max":596,"o":"m 197 215 q 273 190 250 215 q 296 125 296 164 l 296 100 q 259 -39 296 33 q 161 -161 222 -111 l 50 -161 q 124 -77 94 -118 q 165 14 153 -36 q 115 46 131 22 q 99 100 99 69 l 99 125 q 122 190 99 164 q 197 215 144 215 m 497 215 q 573 190 550 215 q 596 125 596 164 l 596 100 q 559 -39 596 33 q 461 -161 522 -111 l 350 -161 q 424 -77 394 -118 q 465 14 453 -36 q 415 46 431 22 q 399 100 399 69 l 399 125 q 422 190 399 164 q 497 215 444 215 z "},"‹":{"ha":431,"x_min":51,"x_max":358,"o":"m 358 190 l 314 93 l 51 319 l 51 456 l 314 682 l 358 585 l 181 389 l 181 386 l 358 190 z "},"›":{"ha":431,"x_min":71,"x_max":379,"o":"m 71 190 l 250 386 l 250 389 l 71 585 l 115 682 l 379 456 l 379 319 l 115 93 l 71 190 z "},"«":{"ha":739,"x_min":51,"x_max":668,"o":"m 358 190 l 314 93 l 51 319 l 51 456 l 314 682 l 358 585 l 181 389 l 181 386 l 358 190 m 668 190 l 624 93 l 361 319 l 361 456 l 624 682 l 668 585 l 490 389 l 490 386 l 668 190 z "},"»":{"ha":739,"x_min":71,"x_max":688,"o":"m 71 190 l 250 386 l 250 389 l 71 585 l 115 682 l 379 456 l 379 319 l 115 93 l 71 190 m 381 190 l 560 386 l 560 389 l 381 585 l 425 682 l 689 456 l 689 319 l 425 93 l 381 190 z "},"¡":{"ha":415,"x_min":107,"x_max":310,"o":"m 289 -247 l 126 -247 l 126 29 l 172 444 l 242 444 l 289 29 l 289 -247 m 208 532 q 131 558 156 532 q 107 622 107 583 l 107 647 q 131 713 107 688 q 208 739 156 739 q 285 713 261 739 q 310 647 310 688 l 310 622 q 285 558 310 583 q 208 532 261 532 z "},"!":{"ha":415,"x_min":107,"x_max":310,"o":"m 243 278 l 174 278 l 128 693 l 128 969 l 290 969 l 290 693 l 243 278 m 208 -17 q 131 9 156 -17 q 107 75 107 35 l 107 99 q 131 165 107 139 q 208 190 156 190 q 285 165 261 190 q 310 99 310 139 l 310 75 q 285 9 310 35 q 208 -17 261 -17 z "},"¿":{"ha":665,"x_min":46,"x_max":650,"o":"m 343 -264 q 187 -230 254 -264 q 83 -135 119 -196 q 46 8 46 -74 q 82 151 46 93 q 176 244 118 210 q 296 290 233 279 l 296 418 l 440 418 l 440 197 q 267 149 328 192 q 207 24 207 107 l 207 4 q 247 -95 207 -58 q 349 -132 286 -132 q 460 -91 418 -132 q 518 13 503 -50 l 650 -40 q 596 -149 633 -99 q 497 -232 558 -200 q 343 -264 435 -264 m 368 532 q 292 558 317 532 q 267 622 267 583 l 267 647 q 292 713 267 688 q 368 739 317 739 q 446 713 422 739 q 469 647 469 688 l 469 622 q 446 558 469 583 q 368 532 422 532 z "},"?":{"ha":676,"x_min":26,"x_max":631,"o":"m 381 304 l 236 304 l 236 525 q 409 573 349 531 q 469 699 469 615 l 469 718 q 430 817 469 781 q 328 853 390 853 q 215 812 258 853 q 158 710 172 771 l 26 763 q 81 872 44 821 q 181 954 118 922 q 332 986 243 986 q 490 952 424 986 q 594 857 557 918 q 631 714 631 796 q 594 571 631 629 q 501 478 558 513 q 381 432 443 444 l 381 304 m 310 -17 q 233 9 257 -17 q 208 75 208 35 l 208 99 q 233 165 208 139 q 310 190 257 190 q 388 165 364 190 q 411 99 411 139 l 411 75 q 388 9 411 35 q 310 -17 364 -17 z "},"(":{"ha":467,"x_min":88,"x_max":479,"o":"m 88 433 q 121 687 88 568 q 210 901 154 806 q 336 1056 265 996 l 479 1056 q 348 894 404 986 q 261 697 292 801 q 231 488 231 593 l 231 376 q 262 164 231 269 q 349 -33 293 58 q 479 -190 404 -124 l 335 -190 q 212 -37 268 -132 q 122 178 156 57 q 88 433 88 299 z "},")":{"ha":467,"x_min":-11,"x_max":379,"o":"m 379 433 q 346 178 379 299 q 256 -37 313 58 q 131 -190 200 -132 l -11 -190 q 119 -31 64 -124 q 206 166 175 61 q 236 376 236 271 l 236 488 q 206 699 236 594 q 119 896 175 804 q -11 1056 64 988 l 132 1056 q 257 901 201 996 q 346 688 313 807 q 379 433 379 568 z "},"[":{"ha":450,"x_min":119,"x_max":374,"o":"m 374 -192 l 119 -192 l 119 1056 l 374 1056 l 374 943 l 256 943 l 256 -79 l 374 -79 l 374 -192 z "},"]":{"ha":450,"x_min":78,"x_max":331,"o":"m 78 1056 l 331 1056 l 331 -192 l 78 -192 l 78 -79 l 194 -79 l 194 943 l 78 943 l 78 1056 z "},"{":{"ha":493,"x_min":29,"x_max":417,"o":"m 417 -192 l 285 -192 q 197 -157 229 -192 q 164 -67 164 -122 l 164 244 q 126 337 164 306 q 29 368 88 368 l 29 497 q 126 528 88 497 q 164 619 164 560 l 164 931 q 197 1022 164 988 q 285 1056 229 1056 l 417 1056 l 417 943 l 300 943 l 300 617 q 282 535 300 574 q 233 472 264 497 q 163 439 201 447 l 163 425 q 233 392 201 418 q 282 329 264 367 q 300 247 300 292 l 300 -79 l 417 -79 l 417 -192 z "},"}":{"ha":493,"x_min":78,"x_max":465,"o":"m 78 1056 l 208 1056 q 298 1022 265 1056 q 331 931 331 988 l 331 619 q 369 528 331 560 q 465 497 407 497 l 465 368 q 369 337 407 368 q 331 244 331 306 l 331 -67 q 298 -157 331 -122 q 208 -192 265 -192 l 78 -192 l 78 -79 l 194 -79 l 194 247 q 213 329 194 292 q 261 392 231 367 q 331 425 292 418 l 331 440 q 261 474 292 449 q 213 536 231 499 q 194 618 194 574 l 194 943 l 78 943 l 78 1056 z "},"/":{"ha":578,"x_min":8,"x_max":524,"o":"m 139 -210 l 8 -210 l 393 1028 l 524 1028 l 139 -210 z "},"\\":{"ha":578,"x_min":53,"x_max":565,"o":"m 565 -210 l 436 -210 l 53 1028 l 183 1028 l 565 -210 z "},"⁄":{"ha":204,"x_min":-307,"x_max":511,"o":"m -189 0 l -307 0 l 393 969 l 511 969 l -189 0 z "},"∕":{"ha":204,"x_min":-307,"x_max":511,"o":"m -189 0 l -307 0 l 393 969 l 511 969 l -189 0 z "},"%":{"ha":1315,"x_min":82,"x_max":1233,"o":"m 392 0 l 251 0 l 924 969 l 1064 969 l 392 0 m 314 436 q 188 468 240 436 q 109 561 136 500 q 82 711 82 622 q 109 861 82 800 q 188 954 136 922 q 314 986 240 986 q 440 954 389 986 q 519 861 492 922 q 546 711 546 800 q 519 561 546 622 q 440 468 492 500 q 314 436 389 436 m 314 529 q 369 544 347 529 q 401 592 390 560 q 413 672 413 624 l 413 750 q 401 831 413 799 q 369 878 390 863 q 314 893 347 893 q 259 878 281 893 q 226 831 238 863 q 215 750 215 799 l 215 672 q 226 592 215 624 q 259 544 238 560 q 314 529 281 529 m 1001 -17 q 876 15 928 -17 q 797 108 824 47 q 769 258 769 169 q 797 408 769 347 q 876 501 824 469 q 1001 533 928 533 q 1128 501 1076 533 q 1206 408 1179 469 q 1233 258 1233 347 q 1206 108 1233 169 q 1128 15 1179 47 q 1001 -17 1076 -17 m 1001 76 q 1057 92 1035 76 q 1090 139 1079 107 q 1101 219 1101 171 l 1101 297 q 1090 378 1101 346 q 1057 425 1079 410 q 1001 440 1035 440 q 947 425 968 440 q 914 378 925 410 q 903 297 903 346 l 903 219 q 914 139 903 171 q 947 92 925 107 q 1001 76 968 76 z "},"‰":{"ha":1858,"x_min":82,"x_max":1778,"o":"m 392 0 l 251 0 l 924 969 l 1064 969 l 392 0 m 314 436 q 188 468 240 436 q 109 561 136 500 q 82 711 82 622 q 109 861 82 800 q 188 954 136 922 q 314 986 240 986 q 440 954 389 986 q 519 861 492 922 q 546 711 546 800 q 519 561 546 622 q 440 468 492 500 q 314 436 389 436 m 314 529 q 369 544 347 529 q 401 592 390 560 q 413 672 413 624 l 413 750 q 401 831 413 799 q 369 878 390 863 q 314 893 347 893 q 259 878 281 893 q 226 831 238 863 q 215 750 215 799 l 215 672 q 226 592 215 624 q 259 544 238 560 q 314 529 281 529 m 1001 -17 q 876 15 928 -17 q 797 108 824 47 q 769 258 769 169 q 797 408 769 347 q 876 501 824 469 q 1001 533 928 533 q 1128 501 1076 533 q 1206 408 1179 469 q 1233 258 1233 347 q 1206 108 1233 169 q 1128 15 1179 47 q 1001 -17 1076 -17 m 1001 76 q 1057 92 1035 76 q 1090 139 1079 107 q 1101 219 1101 171 l 1101 297 q 1090 378 1101 346 q 1057 425 1079 410 q 1001 440 1035 440 q 947 425 968 440 q 914 378 925 410 q 903 297 903 346 l 903 219 q 914 139 903 171 q 947 92 925 107 q 1001 76 968 76 m 1544 -17 q 1419 15 1471 -17 q 1340 108 1367 47 q 1313 258 1313 169 q 1340 408 1313 347 q 1419 501 1367 469 q 1544 533 1471 533 q 1672 501 1619 533 q 1751 408 1724 469 q 1778 258 1778 347 q 1751 108 1778 169 q 1672 15 1724 47 q 1544 -17 1619 -17 m 1544 76 q 1600 92 1578 76 q 1633 139 1622 107 q 1644 219 1644 171 l 1644 297 q 1633 378 1644 346 q 1600 425 1622 410 q 1544 440 1578 440 q 1490 425 1513 440 q 1457 378 1468 410 q 1446 297 1446 346 l 1446 219 q 1457 139 1446 171 q 1490 92 1468 107 q 1544 76 1513 76 z "},"|":{"ha":489,"x_min":179,"x_max":308,"o":"m 308 -192 l 179 -192 l 179 1056 l 308 1056 l 308 -192 z "},"¦":{"ha":489,"x_min":179,"x_max":308,"o":"m 308 561 l 179 561 l 179 1056 l 308 1056 l 308 561 m 308 -192 l 179 -192 l 179 303 l 308 303 l 308 -192 z "},"§":{"ha":804,"x_min":90,"x_max":714,"o":"m 668 11 q 631 -111 668 -60 q 531 -191 594 -162 q 381 -219 467 -219 q 249 -199 314 -219 q 131 -132 183 -179 l 210 -35 q 288 -84 244 -67 q 383 -101 331 -101 q 491 -73 451 -101 q 531 6 531 -44 q 515 59 531 38 q 470 97 500 81 q 397 125 440 113 l 301 153 q 178 207 225 175 q 111 278 132 239 q 90 363 90 318 q 128 477 90 426 q 240 558 167 528 l 240 574 q 165 651 193 604 q 136 760 136 697 q 172 881 136 831 q 272 959 208 932 q 421 986 336 986 q 554 967 488 986 q 674 899 621 947 l 593 803 q 517 851 558 833 q 418 869 475 869 q 311 842 351 869 q 271 764 271 815 q 287 712 271 733 q 333 675 303 690 q 406 646 363 660 l 501 619 q 625 565 578 597 q 693 492 672 532 q 714 408 714 453 q 676 294 714 344 q 563 213 638 243 l 563 199 q 640 120 611 167 q 668 11 668 74 m 578 365 q 564 423 578 397 q 519 469 550 449 q 438 503 488 489 l 343 529 q 321 535 332 532 q 299 543 310 539 q 244 481 264 515 q 225 406 225 447 q 257 324 225 357 q 365 268 289 290 l 460 243 q 483 236 471 240 q 504 228 494 232 q 558 290 539 257 q 578 365 578 324 z "},"¶":{"ha":921,"x_min":60,"x_max":824,"o":"m 339 -207 l 339 393 q 198 433 261 393 q 97 538 135 472 q 60 681 60 603 q 97 826 60 760 q 198 931 135 892 q 339 969 261 969 l 824 969 l 824 853 l 731 853 l 731 -207 l 608 -207 l 608 853 l 463 853 l 463 -207 l 339 -207 z "},"©":{"ha":1088,"x_min":71,"x_max":1015,"o":"m 543 -15 q 302 46 410 -15 q 133 219 194 107 q 71 485 71 331 q 133 751 71 639 q 302 924 194 864 q 543 985 410 985 q 785 924 679 985 q 953 751 892 864 q 1015 485 1015 639 q 953 219 1015 331 q 785 46 892 107 q 543 -15 679 -15 m 543 69 q 738 118 653 69 q 870 251 822 167 q 918 440 918 335 l 918 529 q 870 719 918 635 q 738 851 822 803 q 543 900 653 900 q 350 851 435 900 q 217 719 265 803 q 169 529 169 635 l 169 440 q 217 251 169 335 q 350 118 265 167 q 543 69 435 69 m 554 203 q 367 280 435 203 q 300 485 300 357 q 367 690 300 614 q 554 767 435 767 q 690 729 638 767 q 767 631 742 692 l 663 576 q 622 634 647 613 q 554 656 597 656 q 471 622 500 656 q 442 533 442 589 l 442 435 q 471 347 442 381 q 554 314 500 314 q 626 337 599 314 q 674 396 654 360 l 776 340 q 698 243 751 283 q 554 203 644 203 z "},"®":{"ha":654,"x_min":50,"x_max":604,"o":"m 326 414 q 188 451 251 414 q 88 554 125 489 q 50 700 50 619 q 88 847 50 782 q 188 949 125 911 q 326 986 251 986 q 467 949 404 986 q 567 847 529 911 q 604 700 604 782 q 567 554 604 619 q 467 451 529 489 q 326 414 404 414 m 326 474 q 435 501 388 474 q 510 576 482 529 q 538 682 538 624 l 538 718 q 510 824 538 776 q 435 899 482 871 q 326 926 388 926 q 220 899 268 926 q 144 824 172 871 q 115 718 115 776 l 115 682 q 144 576 115 624 q 220 501 172 529 q 326 474 268 474 m 286 653 l 286 553 l 215 553 l 215 843 l 347 843 q 422 817 397 843 q 446 751 446 792 q 431 695 446 717 q 393 664 417 674 l 458 553 l 381 553 l 326 653 l 286 653 m 286 706 l 339 706 q 365 713 356 706 q 374 736 374 721 l 374 757 q 365 780 374 772 q 339 788 356 788 l 286 788 l 286 706 z "},"™":{"ha":888,"x_min":40,"x_max":792,"o":"m 242 576 l 151 576 l 151 897 l 40 897 l 40 969 l 351 969 l 351 897 l 242 897 l 242 576 m 492 576 l 411 576 l 411 969 l 514 969 l 601 800 l 608 800 l 694 969 l 792 969 l 792 576 l 713 576 l 713 732 l 719 854 l 714 854 l 601 644 l 490 854 l 485 854 l 492 732 l 492 576 z "},"ª":{"ha":583,"x_min":60,"x_max":526,"o":"m 526 564 l 526 474 l 464 474 q 398 494 425 474 q 371 567 371 515 l 371 588 l 406 554 l 365 554 q 313 490 351 515 q 214 465 275 465 q 101 504 142 465 q 60 608 60 543 q 115 720 60 683 q 272 757 169 757 l 363 757 l 363 790 q 339 867 363 842 q 265 892 315 892 q 189 872 219 892 q 142 824 158 853 l 75 881 q 147 949 97 919 q 275 978 196 978 q 420 931 367 978 q 474 796 474 885 l 474 564 l 526 564 m 363 688 l 272 688 q 197 672 224 688 q 169 625 169 656 l 169 608 q 190 562 169 576 q 249 547 211 547 q 328 569 294 547 q 363 629 363 590 l 363 688 z "},"º":{"ha":574,"x_min":57,"x_max":517,"o":"m 288 465 q 118 534 179 465 q 57 722 57 603 q 118 909 57 840 q 288 978 179 978 q 456 909 394 978 q 517 722 517 840 q 456 534 517 603 q 288 465 396 465 m 288 554 q 370 588 342 554 q 399 679 399 621 l 399 764 q 370 856 399 822 q 288 890 342 890 q 204 856 233 890 q 175 764 175 822 l 175 679 q 204 588 175 621 q 288 554 233 554 z "},"°":{"ha":651,"x_min":82,"x_max":569,"o":"m 325 489 q 201 522 257 489 q 114 610 146 554 q 82 738 82 667 q 114 865 82 808 q 201 953 146 921 q 325 986 257 986 q 450 953 394 986 q 538 865 506 921 q 569 738 569 808 q 538 610 569 667 q 450 522 506 554 q 325 489 394 489 m 326 597 q 394 615 365 597 q 438 666 422 633 q 453 738 453 699 q 438 810 453 778 q 394 860 422 842 q 326 879 365 879 q 258 860 288 879 q 213 810 229 842 q 197 738 197 778 q 213 666 197 699 q 258 615 229 633 q 326 597 286 597 z "},"′":{"ha":351,"x_min":65,"x_max":286,"o":"m 204 506 l 65 506 l 147 969 l 286 969 l 204 506 z "},"″":{"ha":626,"x_min":65,"x_max":560,"o":"m 204 506 l 65 506 l 147 969 l 286 969 l 204 506 m 478 506 l 339 506 l 421 969 l 560 969 l 478 506 z "},"*":{"ha":714,"x_min":47,"x_max":667,"o":"m 292 1038 l 424 1038 l 414 813 l 417 810 l 626 892 l 667 771 l 449 708 l 447 704 l 593 524 l 486 450 l 358 643 l 356 643 l 228 450 l 121 524 l 268 704 l 267 708 l 47 771 l 89 892 l 299 810 l 301 813 l 292 1038 z "},"†":{"ha":749,"x_min":56,"x_max":693,"o":"m 440 -278 l 310 -278 l 310 601 l 56 601 l 56 717 l 310 717 l 310 1028 l 440 1028 l 440 717 l 693 717 l 693 601 l 440 601 l 440 -278 z "},"‡":{"ha":761,"x_min":61,"x_max":700,"o":"m 446 -278 l 315 -278 l 315 33 l 61 33 l 61 149 l 315 149 l 315 601 l 61 601 l 61 717 l 315 717 l 315 1028 l 446 1028 l 446 717 l 700 717 l 700 601 l 446 601 l 446 149 l 700 149 l 700 33 l 446 33 l 446 -278 z "},"#":{"ha":942,"x_min":54,"x_max":883,"o":"m 493 0 l 540 265 l 322 265 l 276 0 l 169 0 l 217 265 l 54 265 l 54 367 l 233 367 l 274 603 l 113 603 l 113 704 l 292 704 l 338 969 l 443 969 l 397 704 l 615 704 l 660 969 l 767 969 l 721 704 l 883 704 l 883 603 l 703 603 l 664 367 l 825 367 l 825 265 l 646 265 l 600 0 l 493 0 m 339 367 l 557 367 l 597 603 l 379 603 l 339 367 z "},"^":{"ha":833,"x_min":65,"x_max":769,"o":"m 769 460 l 650 400 l 418 815 l 411 815 l 179 400 l 65 460 l 349 969 l 488 969 l 769 460 z "},"~":{"ha":833,"x_min":81,"x_max":753,"o":"m 581 314 q 490 328 529 314 q 403 364 450 342 q 327 397 364 383 q 247 411 290 411 q 191 401 215 411 q 135 369 167 392 l 81 454 q 148 513 107 490 q 253 535 189 535 q 344 522 304 535 q 431 485 383 508 q 506 452 469 467 q 586 438 543 438 q 644 448 619 438 q 699 479 668 458 l 753 394 q 685 337 726 360 q 581 314 644 314 z "},"+":{"ha":833,"x_min":93,"x_max":740,"o":"m 485 86 l 349 86 l 349 363 l 93 363 l 93 486 l 349 486 l 349 761 l 485 761 l 485 486 l 740 486 l 740 363 l 485 363 l 485 86 z "},"−":{"ha":833,"x_min":93,"x_max":740,"o":"m 740 363 l 93 363 l 93 486 l 740 486 l 740 363 z "},"±":{"ha":833,"x_min":93,"x_max":740,"o":"m 485 231 l 349 231 l 349 488 l 93 488 l 93 613 l 349 613 l 349 868 l 485 868 l 485 613 l 740 613 l 740 488 l 485 488 l 485 231 m 740 0 l 93 0 l 93 125 l 740 125 l 740 0 z "},"×":{"ha":833,"x_min":119,"x_max":714,"o":"m 625 117 l 417 332 l 208 117 l 119 204 l 329 419 l 119 636 l 208 724 l 417 508 l 625 724 l 714 636 l 504 419 l 714 204 l 625 117 z "},"÷":{"ha":833,"x_min":93,"x_max":740,"o":"m 740 363 l 93 363 l 93 486 l 740 486 l 740 363 m 417 58 q 339 81 363 58 q 315 138 315 104 l 315 169 q 339 225 315 201 q 417 249 363 249 q 495 225 472 249 q 518 169 518 201 l 518 138 q 495 81 518 104 q 417 58 472 58 m 417 599 q 339 622 363 599 q 315 678 315 646 l 315 710 q 339 766 315 743 q 417 789 363 789 q 495 766 472 789 q 518 710 518 743 l 518 678 q 495 622 518 646 q 417 599 472 599 z "},"=":{"ha":833,"x_min":93,"x_max":740,"o":"m 740 511 l 93 511 l 93 635 l 740 635 l 740 511 m 740 214 l 93 214 l 93 338 l 740 338 l 740 214 z "},"≈":{"ha":833,"x_min":81,"x_max":753,"o":"m 581 463 q 490 476 529 463 q 403 513 450 490 q 327 546 364 532 q 247 560 290 560 q 191 550 215 560 q 135 518 167 540 l 81 603 q 148 661 107 639 q 253 683 189 683 q 344 670 304 683 q 431 633 383 657 q 506 601 469 615 q 586 586 543 586 q 644 597 619 586 q 699 628 668 607 l 753 543 q 685 485 726 508 q 581 463 644 463 m 581 165 q 490 179 529 165 q 403 215 450 193 q 327 249 364 235 q 247 263 290 263 q 191 253 215 263 q 135 221 167 243 l 81 306 q 148 364 107 342 q 253 386 189 386 q 344 373 304 386 q 431 336 383 360 q 506 303 469 318 q 586 289 543 289 q 644 299 619 289 q 699 331 668 310 l 753 246 q 685 188 726 211 q 581 165 644 165 z "},"≠":{"ha":833,"x_min":93,"x_max":740,"o":"m 297 79 l 165 79 l 239 214 l 93 214 l 93 338 l 304 338 l 396 513 l 93 513 l 93 635 l 461 635 l 533 771 l 665 771 l 593 635 l 740 635 l 740 513 l 526 513 l 435 338 l 740 338 l 740 214 l 369 214 l 297 79 z "},"<":{"ha":833,"x_min":133,"x_max":700,"o":"m 700 -11 l 133 342 l 133 457 l 700 808 l 700 653 l 285 404 l 285 394 l 700 144 l 700 -11 z "},">":{"ha":833,"x_min":133,"x_max":700,"o":"m 133 -11 l 133 144 l 549 394 l 549 404 l 133 653 l 133 808 l 700 457 l 700 342 l 133 -11 z "},"≤":{"ha":833,"x_min":133,"x_max":700,"o":"m 700 0 l 133 0 l 133 122 l 700 122 l 700 0 m 700 832 l 700 686 l 297 510 l 297 500 l 700 325 l 700 179 l 133 443 l 133 567 l 700 832 z "},"≥":{"ha":833,"x_min":133,"x_max":700,"o":"m 133 179 l 133 325 l 536 501 l 536 511 l 133 686 l 133 832 l 700 568 l 700 444 l 133 179 m 133 0 l 133 122 l 700 122 l 700 0 l 133 0 z "},"∙":{"ha":472,"x_min":135,"x_max":336,"o":"m 236 317 q 160 344 185 317 q 135 411 135 371 l 135 433 q 160 501 135 475 q 236 526 185 526 q 312 501 288 526 q 336 433 336 475 l 336 411 q 312 344 336 371 q 236 317 288 317 z "},"·":{"ha":472,"x_min":135,"x_max":336,"o":"m 236 317 q 160 344 185 317 q 135 411 135 371 l 135 433 q 160 501 135 475 q 236 526 185 526 q 312 501 288 526 q 336 433 336 475 l 336 411 q 312 344 336 371 q 236 317 288 317 z "},"·":{"ha":428,"x_min":114,"x_max":315,"o":"m 214 528 q 138 555 163 528 q 114 622 114 582 l 114 644 q 138 712 114 686 q 214 738 163 738 q 291 712 267 738 q 315 644 315 686 l 315 622 q 291 555 315 582 q 214 528 267 528 z "},"•":{"ha":571,"x_min":97,"x_max":472,"o":"m 285 238 q 140 283 182 238 q 97 397 97 329 l 97 442 q 140 556 97 510 q 285 601 182 601 q 430 556 388 601 q 472 442 472 510 l 472 397 q 430 283 472 329 q 285 238 388 238 z "},"∶":{"ha":428,"x_min":114,"x_max":315,"o":"m 214 157 q 138 184 163 157 q 114 251 114 211 l 114 274 q 138 341 114 315 q 214 367 163 367 q 291 341 267 367 q 315 274 315 315 l 315 251 q 291 184 315 211 q 214 157 267 157 m 214 601 q 138 628 163 601 q 114 696 114 656 l 114 718 q 138 785 114 760 q 214 811 163 811 q 291 785 267 811 q 315 718 315 760 l 315 696 q 291 628 315 656 q 214 601 267 601 z "},"◊":{"ha":833,"x_min":69,"x_max":765,"o":"m 474 0 l 361 0 l 69 485 l 361 969 l 474 969 l 765 485 l 474 0 m 413 144 l 422 144 l 621 485 l 422 825 l 413 825 l 214 485 l 413 144 z "},"¬":{"ha":833,"x_min":85,"x_max":740,"o":"m 740 108 l 614 108 l 614 363 l 85 363 l 85 486 l 740 486 l 740 108 z "},"√":{"ha":833,"x_min":32,"x_max":799,"o":"m 518 0 l 324 0 l 156 597 l 32 597 l 32 722 l 260 722 l 333 456 l 419 126 l 428 126 l 517 456 l 663 969 l 799 969 l 518 0 z "},"∫":{"ha":604,"x_min":61,"x_max":544,"o":"m 61 -278 l 61 -154 l 226 -154 l 226 844 q 272 976 226 925 q 410 1028 317 1028 l 544 1028 l 544 904 l 378 904 l 378 -94 q 333 -226 378 -175 q 194 -278 289 -278 l 61 -278 z "},"∞":{"ha":1058,"x_min":26,"x_max":1033,"o":"m 286 142 q 147 176 206 142 q 58 272 89 210 q 26 415 26 333 q 58 558 26 496 q 147 653 89 619 q 286 688 206 688 q 455 642 389 688 q 556 496 521 596 l 563 496 q 603 601 572 558 q 679 666 635 644 q 772 688 724 688 q 912 653 853 688 q 1002 558 971 619 q 1033 415 1033 496 q 1002 272 1033 333 q 912 176 971 210 q 772 142 853 142 q 603 188 669 142 q 503 333 538 233 l 496 333 q 456 228 486 271 q 381 163 425 185 q 286 142 336 142 m 286 263 q 397 300 351 263 q 464 407 443 338 q 397 525 442 483 q 286 567 351 567 q 200 533 232 567 q 168 440 168 499 l 168 389 q 200 297 168 332 q 286 263 232 263 m 772 263 q 860 297 828 263 q 892 389 892 332 l 892 440 q 860 533 892 499 q 772 567 828 567 q 661 529 707 567 q 596 422 615 492 q 663 304 618 346 q 772 263 707 263 z "},"℮":{"ha":1001,"x_min":46,"x_max":954,"o":"m 271 485 l 271 139 q 333 97 299 115 q 410 69 368 79 q 500 60 451 60 q 647 85 583 60 q 758 158 711 111 q 839 267 806 206 l 908 228 q 815 103 872 158 q 678 15 757 47 q 500 -17 599 -17 q 267 45 369 -17 q 105 219 164 107 q 46 485 46 332 q 105 750 46 638 q 267 924 164 863 q 500 986 369 986 q 733 924 631 986 q 895 750 836 863 q 954 485 954 638 l 271 485 m 271 557 l 731 557 l 731 835 q 668 876 703 858 q 592 903 633 893 q 500 914 550 914 q 410 903 451 914 q 333 876 368 893 q 271 835 299 858 l 271 557 z "},"ℓ":{"ha":717,"x_min":36,"x_max":681,"o":"m 403 -17 q 279 13 332 -17 q 198 96 226 42 q 169 221 169 150 l 169 231 q 135 207 153 218 q 101 185 118 196 l 36 289 q 103 331 69 308 q 163 374 138 354 l 163 769 q 192 931 163 871 q 271 1018 221 992 q 382 1044 321 1044 q 545 980 489 1044 q 601 797 601 915 q 568 628 601 708 q 469 472 535 549 q 307 313 404 394 l 307 253 q 333 147 307 179 q 407 115 360 115 q 469 131 442 115 q 519 180 496 147 q 564 260 542 213 l 681 196 q 617 87 656 135 q 526 11 579 39 q 403 -17 474 -17 m 388 914 q 331 885 356 914 q 307 778 307 856 l 307 469 q 390 569 356 518 q 442 673 424 619 q 461 782 461 726 l 461 801 q 441 888 461 861 q 388 914 421 914 z "},"№":{"ha":1446,"x_min":119,"x_max":1389,"o":"m 1164 501 q 1000 565 1063 501 q 938 744 938 629 q 1000 923 938 860 q 1164 986 1063 986 q 1326 923 1264 986 q 1389 744 1389 860 q 1326 565 1389 629 q 1164 501 1264 501 m 267 0 l 119 0 l 119 969 l 292 969 l 568 457 l 685 226 l 689 226 l 689 457 l 689 969 l 836 969 l 836 0 l 663 0 l 376 524 l 271 736 l 267 736 l 267 524 l 267 0 m 1164 592 q 1242 624 1213 592 q 1271 706 1271 656 l 1271 782 q 1258 842 1271 817 q 1221 883 1244 868 q 1164 897 1197 897 q 1106 883 1131 897 q 1069 842 1082 868 q 1056 782 1056 817 l 1056 706 q 1085 624 1056 656 q 1164 592 1114 592 m 1367 322 l 960 322 l 960 422 l 1367 422 l 1367 322 z "},"∂":{"ha":818,"x_min":72,"x_max":742,"o":"m 742 376 q 700 156 742 243 q 585 26 658 68 q 411 -17 511 -17 q 163 81 253 -17 q 72 347 72 179 q 108 533 72 454 q 210 656 144 613 q 364 700 276 700 q 477 673 431 700 q 556 599 524 646 l 563 601 q 482 736 539 672 q 344 859 425 800 q 165 969 263 918 l 394 969 q 509 885 449 936 q 622 764 569 835 q 708 597 675 693 q 742 376 742 501 m 407 104 q 501 126 461 104 q 562 191 540 147 q 583 297 583 235 l 583 386 q 562 492 583 450 q 501 557 540 535 q 407 579 461 579 q 314 557 354 579 q 252 492 274 535 q 231 386 231 450 l 231 297 q 252 191 231 235 q 314 126 274 147 q 407 104 354 104 z "},"¤":{"ha":860,"x_min":21,"x_max":839,"o":"m 429 158 q 326 172 374 158 q 242 211 278 186 l 107 76 l 21 161 l 158 299 q 125 384 136 338 q 114 485 114 431 q 125 585 114 539 q 158 671 136 632 l 21 808 l 107 893 l 242 758 q 326 797 278 783 q 429 811 374 811 q 534 797 486 811 q 618 758 582 783 l 753 893 l 839 808 l 701 671 q 735 585 724 632 q 746 485 746 539 q 735 384 746 431 q 701 299 724 338 l 839 161 l 753 76 l 618 211 q 534 172 582 186 q 429 158 486 158 m 429 275 q 547 317 503 275 q 590 443 590 360 l 590 526 q 547 652 590 610 q 429 694 503 694 q 313 652 357 694 q 269 526 269 610 l 269 443 q 313 317 269 360 q 429 275 357 275 z "},"¢":{"ha":736,"x_min":61,"x_max":685,"o":"m 449 -158 l 328 -158 l 328 -11 q 131 107 201 10 q 61 358 61 204 q 132 610 61 513 q 328 728 203 707 l 328 875 l 449 875 l 449 731 q 590 676 535 721 q 675 564 644 631 l 561 501 q 515 570 544 543 q 443 607 486 597 l 443 110 q 522 147 489 118 q 576 221 556 176 l 685 154 q 595 41 654 86 q 449 -14 536 -4 l 449 -158 m 214 299 q 244 179 214 229 q 335 113 275 129 l 335 604 q 244 538 275 588 q 214 418 214 488 l 214 299 z "},"€":{"ha":869,"x_min":76,"x_max":817,"o":"m 481 -17 q 265 42 356 -17 q 126 212 175 100 q 76 485 76 324 q 126 758 76 646 q 265 928 175 869 q 481 986 356 986 q 628 961 567 986 q 734 892 690 936 q 807 793 778 849 l 690 714 q 609 817 661 779 q 481 856 557 856 q 327 799 388 856 q 247 650 267 743 l 589 650 l 589 543 l 240 543 q 240 485 240 514 q 240 426 240 456 l 589 426 l 589 319 l 247 319 q 327 169 267 225 q 481 114 388 114 q 613 155 558 114 q 700 265 668 196 l 817 183 q 744 83 789 129 q 635 10 700 38 q 481 -17 571 -17 z "},"ƒ":{"ha":674,"x_min":0,"x_max":647,"o":"m 0 -186 l 14 -62 l 197 -62 l 243 389 l 67 389 l 79 518 l 256 518 l 283 785 q 342 918 292 867 q 485 969 392 969 l 647 969 l 633 846 l 442 846 l 407 518 l 615 518 l 604 389 l 394 389 l 354 -3 q 297 -135 347 -83 q 153 -186 247 -186 l 0 -186 z "},"£":{"ha":818,"x_min":68,"x_max":769,"o":"m 746 0 l 104 0 l 104 160 q 185 234 160 185 q 211 342 211 283 q 210 372 211 357 q 206 400 208 386 l 68 400 l 68 526 l 164 526 q 139 608 150 567 q 128 697 128 649 q 168 848 128 783 q 283 949 208 913 q 460 986 357 986 q 644 944 569 986 q 769 824 719 901 l 654 742 q 572 822 618 794 q 460 850 525 850 q 333 806 379 850 q 288 676 288 763 q 297 599 288 635 q 319 526 307 563 l 607 526 l 607 400 l 360 400 q 363 376 363 388 q 364 351 364 365 q 331 223 364 276 q 258 144 297 169 l 258 136 l 746 136 l 746 0 z "},"$":{"ha":832,"x_min":60,"x_max":761,"o":"m 481 -114 l 363 -114 l 363 58 l 372 78 l 372 892 l 363 911 l 363 1083 l 481 1083 l 481 911 l 472 892 l 472 78 l 481 58 l 481 -114 m 411 3 q 262 24 329 3 q 144 83 194 46 q 60 163 94 119 l 161 254 q 228 189 190 218 q 315 142 267 160 q 419 125 363 125 q 527 146 483 125 q 593 201 571 167 q 615 278 615 235 q 601 342 615 314 q 554 390 588 369 q 464 421 521 410 l 382 438 q 213 496 278 460 q 119 584 149 532 q 89 707 89 636 q 126 840 89 782 q 240 933 164 899 q 429 967 315 967 q 622 925 543 967 q 750 819 701 883 l 647 735 q 560 810 617 775 q 421 844 503 844 q 278 806 324 844 q 233 714 233 768 q 250 647 233 674 q 301 603 267 619 q 383 575 335 586 l 474 554 q 637 497 574 532 q 731 412 700 463 q 761 288 761 361 q 720 143 761 208 q 601 40 679 78 q 411 3 524 3 z "},"¥":{"ha":867,"x_min":39,"x_max":829,"o":"m 750 194 l 510 194 l 510 0 l 354 0 l 354 194 l 114 194 l 114 301 l 354 301 l 354 418 l 114 418 l 114 525 l 288 525 l 39 969 l 215 969 l 436 556 l 442 556 l 658 969 l 829 969 l 576 525 l 750 525 l 750 418 l 510 418 l 510 301 l 750 301 l 750 194 z "},"฿":{"ha":907,"x_min":119,"x_max":833,"o":"m 507 29 l 507 -118 l 390 -118 l 390 29 l 119 29 l 119 940 l 390 940 l 390 1083 l 507 1083 l 507 940 l 549 940 q 732 876 665 940 q 799 706 799 813 q 752 567 799 613 q 629 511 706 522 l 629 503 q 727 476 681 497 q 803 411 774 456 q 833 292 833 367 q 801 158 833 218 q 713 64 768 99 q 588 29 658 29 l 507 29 m 271 554 l 397 554 l 397 810 l 271 810 l 271 554 m 501 810 l 501 554 l 529 554 q 614 581 586 554 q 642 661 642 608 l 642 704 q 614 783 642 757 q 529 810 586 810 l 501 810 m 271 160 l 397 160 l 397 431 l 271 431 l 271 160 m 501 431 l 501 160 l 546 160 q 615 172 586 160 q 660 210 644 185 q 676 272 676 235 l 676 318 q 660 381 676 356 q 615 418 644 406 q 546 431 586 431 l 501 431 z "},"₡":{"ha":865,"x_min":76,"x_max":813,"o":"m 364 -114 l 268 -114 l 288 68 l 290 82 l 375 888 l 374 901 l 393 1083 l 488 1083 l 469 901 l 465 888 l 381 82 l 383 68 l 364 -114 m 525 -114 l 431 -114 l 449 68 l 453 82 l 538 888 l 536 901 l 556 1083 l 650 1083 l 632 901 l 628 888 l 543 82 l 544 68 l 525 -114 m 76 485 q 126 751 76 643 q 267 913 175 858 q 483 967 360 967 q 638 940 575 967 q 742 872 700 914 q 810 779 783 829 l 694 701 q 653 767 681 736 q 581 819 625 799 q 474 839 536 839 q 347 803 400 839 q 265 706 293 768 q 238 564 238 644 l 238 407 q 254 291 238 342 q 303 204 271 240 q 380 149 335 168 q 479 131 425 131 q 612 170 556 131 q 699 279 668 210 l 813 200 q 742 103 786 147 q 633 31 697 58 q 479 3 568 3 q 314 33 388 3 q 187 124 240 64 q 105 274 133 183 q 76 485 76 364 z "},"₤":{"ha":818,"x_min":68,"x_max":769,"o":"m 746 132 l 746 0 l 104 0 l 104 157 q 165 203 142 174 q 200 269 189 232 q 211 349 211 307 q 199 431 211 389 q 169 515 186 472 q 140 603 153 557 q 128 697 128 649 q 168 848 128 783 q 283 949 208 913 q 460 986 357 986 q 644 944 569 986 q 769 824 719 901 l 654 743 q 572 824 618 797 q 460 851 525 851 q 333 807 379 851 q 288 676 288 763 q 299 592 288 632 q 326 513 311 551 q 353 435 342 474 q 364 358 364 397 q 335 228 364 285 q 258 142 306 172 l 258 132 l 746 132 m 68 542 l 68 647 l 594 647 l 594 542 l 68 542 m 68 324 l 68 431 l 594 431 l 594 324 l 68 324 z "},"₦":{"ha":1014,"x_min":22,"x_max":992,"o":"m 693 0 l 514 324 l 282 324 l 282 0 l 138 0 l 138 321 l 22 321 l 22 428 l 138 428 l 138 544 l 22 544 l 22 651 l 138 651 l 138 969 l 317 969 l 493 649 l 733 649 l 733 969 l 875 969 l 875 651 l 992 651 l 992 544 l 875 544 l 875 428 l 992 428 l 992 321 l 875 321 l 875 0 l 693 0 m 282 424 l 465 424 l 383 575 l 286 756 l 282 756 l 282 575 l 282 424 m 543 550 l 632 385 l 729 204 l 733 204 l 733 385 l 733 550 l 543 550 z "},"₨":{"ha":1097,"x_min":119,"x_max":1054,"o":"m 274 0 l 119 0 l 119 969 l 397 969 q 595 898 525 969 q 665 699 665 826 q 633 551 665 613 q 535 457 600 489 l 651 221 q 716 133 682 161 q 800 104 750 104 q 872 125 846 104 q 897 181 897 146 q 892 215 897 200 q 872 247 886 229 q 831 289 858 264 l 804 315 q 722 414 747 369 q 697 514 697 458 q 752 647 697 596 q 900 697 807 697 q 979 689 939 697 q 1054 657 1019 681 l 1000 554 q 960 575 981 568 q 913 582 939 582 q 860 565 881 582 q 840 517 840 549 q 858 464 840 488 q 913 404 875 440 l 936 383 q 999 315 976 344 q 1033 255 1022 285 q 1044 185 1044 225 q 1017 82 1044 128 q 934 10 990 36 q 786 -17 878 -17 q 674 -1 724 -17 q 586 51 624 15 q 519 146 549 86 l 393 418 l 274 418 l 274 0 m 274 547 l 379 547 q 474 576 440 547 q 507 663 507 606 l 507 724 q 474 810 507 782 q 379 839 440 839 l 274 839 l 274 547 z "},"₩":{"ha":1364,"x_min":51,"x_max":1313,"o":"m 878 0 l 797 325 l 558 325 l 476 0 l 301 0 l 226 322 l 51 322 l 51 429 l 200 429 l 174 544 l 51 544 l 51 651 l 149 651 l 74 969 l 229 969 l 297 649 l 515 649 l 596 969 l 771 969 l 849 649 l 1069 649 l 1140 969 l 1293 969 l 1214 651 l 1313 651 l 1313 544 l 1188 544 l 1160 429 l 1313 429 l 1313 322 l 1133 322 l 1053 0 l 878 0 m 401 178 l 479 500 l 490 550 l 318 550 l 329 500 l 397 178 l 401 178 m 963 179 l 967 179 l 1036 499 l 1047 550 l 874 550 l 885 503 l 963 179 m 600 488 l 585 424 l 772 424 l 757 486 l 681 803 l 678 803 l 600 488 z "},"₪":{"ha":1156,"x_min":119,"x_max":1036,"o":"m 378 0 l 378 729 l 521 729 l 521 129 l 768 129 q 833 143 804 129 q 877 186 861 157 q 893 263 893 215 l 893 969 l 1036 969 l 1036 275 q 965 68 1036 136 q 781 0 893 0 l 378 0 m 264 0 l 119 0 l 119 969 l 525 969 q 708 901 638 969 q 779 694 779 833 l 779 239 l 635 239 l 635 707 q 619 783 635 754 q 576 826 603 813 q 511 840 549 840 l 264 840 l 264 0 z "},"₫":{"ha":803,"x_min":78,"x_max":750,"o":"m 513 210 l 513 307 l 506 307 q 433 228 479 260 q 314 197 388 197 q 142 269 207 197 q 78 482 78 342 q 142 696 78 625 q 314 767 207 767 q 433 737 388 767 q 506 656 479 707 l 513 656 l 513 844 l 321 844 l 321 946 l 513 946 l 513 1028 l 661 1028 l 661 946 l 750 946 l 750 844 l 661 844 l 661 210 l 513 210 m 372 310 q 446 324 415 310 q 494 362 476 338 q 513 417 513 386 l 513 549 q 494 603 513 579 q 446 642 476 628 q 372 656 415 656 q 267 618 306 656 q 228 519 228 581 l 228 446 q 267 348 228 386 q 372 310 306 310 m 696 0 l 88 0 l 88 115 l 696 115 l 696 0 z "},"₭":{"ha":897,"x_min":11,"x_max":868,"o":"m 288 433 l 288 0 l 132 0 l 132 433 l 11 433 l 11 558 l 132 558 l 132 969 l 288 969 l 288 558 l 374 558 l 664 969 l 839 969 l 599 643 l 536 558 l 814 558 l 814 433 l 549 433 l 611 349 l 868 0 l 682 0 l 376 433 l 288 433 z "},"₮":{"ha":842,"x_min":54,"x_max":789,"o":"m 678 382 l 500 296 l 500 0 l 343 0 l 343 221 l 165 136 l 165 244 l 343 329 l 343 442 l 165 357 l 165 465 l 343 550 l 343 838 l 54 838 l 54 969 l 789 969 l 789 838 l 500 838 l 500 625 l 678 710 l 678 601 l 500 517 l 500 404 l 678 490 l 678 382 z "},"₱":{"ha":914,"x_min":33,"x_max":890,"o":"m 306 244 l 306 0 l 150 0 l 150 449 l 33 449 l 33 550 l 150 550 l 150 667 l 33 667 l 33 767 l 150 767 l 150 969 l 501 969 q 668 919 604 969 q 758 767 732 869 l 890 767 l 890 667 l 774 667 l 774 550 l 890 550 l 890 449 l 757 449 q 667 297 731 350 q 500 244 603 244 l 306 244 m 306 851 l 306 761 l 613 761 q 569 826 600 801 q 490 851 538 851 l 306 851 m 306 544 l 619 544 l 619 671 l 306 671 l 306 544 m 306 361 l 490 361 q 570 386 538 361 q 614 454 603 411 l 306 454 l 306 361 z "},"₲":{"ha":933,"x_min":76,"x_max":846,"o":"m 76 485 q 126 752 76 644 q 266 913 175 860 q 479 967 357 967 q 607 949 551 967 q 705 902 663 932 q 777 834 747 872 q 826 754 807 796 l 703 689 q 661 763 689 728 q 589 818 633 797 q 481 839 544 839 q 347 803 401 839 q 265 706 293 768 q 238 564 238 644 l 238 407 q 255 287 238 339 q 305 200 272 235 q 382 148 338 165 q 482 131 426 131 q 596 154 547 131 q 672 224 644 178 q 699 336 699 271 l 699 386 l 457 386 l 457 515 l 846 515 l 846 356 q 809 187 846 254 q 715 78 772 119 q 591 20 657 38 q 464 3 525 3 q 336 22 396 3 q 229 81 276 42 q 147 177 182 119 q 94 312 113 235 q 76 485 76 389 m 414 -114 l 294 -114 l 326 68 l 333 82 l 476 888 l 471 901 l 503 1083 l 622 1083 l 592 901 l 583 888 l 440 82 l 446 68 l 414 -114 z "},"₴":{"ha":882,"x_min":60,"x_max":822,"o":"m 450 -17 q 288 19 356 -17 q 185 118 221 56 q 149 258 149 181 q 152 299 149 281 q 160 332 156 317 l 60 332 l 60 439 l 222 439 l 347 510 l 426 553 l 426 556 l 293 556 l 60 556 l 60 663 l 571 663 q 578 690 575 675 q 581 722 581 706 q 542 823 581 790 q 432 856 503 856 q 332 835 379 856 q 247 771 285 814 l 161 868 q 286 956 213 926 q 440 986 360 986 q 593 954 529 986 q 692 866 657 922 q 726 736 726 810 q 724 699 726 718 q 717 663 722 679 l 822 663 l 822 556 l 651 556 l 528 486 l 451 442 l 451 439 l 585 439 l 822 439 l 822 332 l 310 332 q 299 301 303 318 q 294 265 294 285 q 339 151 294 189 q 458 113 383 113 q 560 136 511 113 q 664 217 610 160 l 749 118 q 621 19 697 56 q 450 -17 544 -17 z "},"₵":{"ha":860,"x_min":76,"x_max":807,"o":"m 415 -114 l 296 -114 l 326 68 l 333 82 l 478 888 l 472 901 l 504 1083 l 624 1083 l 592 901 l 585 888 l 440 82 l 447 68 l 415 -114 m 76 485 q 126 749 76 642 q 267 912 176 857 q 476 967 357 967 q 632 940 568 967 q 738 870 696 913 q 804 779 779 828 l 689 701 q 647 767 675 736 q 578 819 619 799 q 476 839 536 839 q 348 803 401 839 q 266 706 294 768 q 238 564 238 644 l 238 407 q 255 292 238 343 q 303 205 272 240 q 379 150 335 169 q 476 131 424 131 q 608 171 554 131 q 693 279 663 211 l 807 201 q 735 103 779 149 q 628 31 692 58 q 476 3 565 3 q 315 33 389 3 q 187 125 240 64 q 105 276 133 186 q 76 485 76 365 z "},"₸":{"ha":842,"x_min":54,"x_max":789,"o":"m 789 851 l 54 851 l 54 969 l 789 969 l 789 851 m 789 614 l 500 614 l 500 0 l 343 0 l 343 614 l 54 614 l 54 731 l 789 731 l 789 614 z "},"₹":{"ha":854,"x_min":79,"x_max":806,"o":"m 710 0 l 519 0 l 247 367 l 79 367 l 79 485 l 353 485 q 460 516 418 485 q 501 607 501 547 l 501 610 l 79 610 l 79 728 l 501 728 l 501 731 q 460 822 501 793 q 353 851 418 851 l 79 851 l 79 969 l 806 969 l 806 851 l 553 851 l 553 846 q 589 833 569 844 q 626 797 608 822 q 651 728 644 772 l 806 728 l 806 610 l 654 610 q 606 478 644 533 q 508 395 568 424 q 374 367 449 367 l 339 367 l 394 411 l 710 0 z "},"₺":{"ha":844,"x_min":21,"x_max":793,"o":"m 150 0 l 150 324 l 21 261 l 21 369 l 150 432 l 150 544 l 21 482 l 21 590 l 150 653 l 150 969 l 307 969 l 307 726 l 568 853 l 568 744 l 307 619 l 307 507 l 568 632 l 568 524 l 307 399 l 307 131 l 422 131 q 541 163 492 131 q 616 260 590 194 q 642 424 642 325 l 793 424 q 755 210 793 306 q 638 57 717 114 q 438 0 558 0 l 150 0 z "},"₽":{"ha":888,"x_min":33,"x_max":835,"o":"m 651 167 l 306 167 l 306 0 l 149 0 l 149 167 l 33 167 l 33 285 l 149 285 l 149 410 l 33 410 l 33 528 l 149 528 l 149 969 l 556 969 q 761 895 688 969 q 835 689 835 821 q 761 485 835 560 q 556 410 688 410 l 306 410 l 306 285 l 651 285 l 651 167 m 306 838 l 306 528 l 543 528 q 612 542 583 528 q 656 584 640 557 q 671 650 671 611 l 671 719 q 656 785 671 758 q 612 824 640 811 q 543 838 583 838 l 306 838 z "},"₿":{"ha":906,"x_min":119,"x_max":832,"o":"m 474 -114 l 474 29 l 386 29 l 386 -114 l 265 -114 l 265 29 l 119 29 l 119 940 l 265 940 l 265 1083 l 386 1083 l 386 940 l 474 940 l 474 1083 l 594 1083 l 594 939 q 744 865 690 926 q 797 706 797 803 q 751 567 797 613 q 629 511 704 522 l 629 503 q 728 476 682 497 q 803 410 774 454 q 832 292 832 365 q 801 159 832 218 q 717 65 771 100 q 594 29 663 31 l 594 -114 l 474 -114 m 269 810 l 269 557 l 528 557 q 613 583 585 557 q 640 663 640 610 l 640 704 q 613 783 640 757 q 528 810 585 810 l 269 810 m 269 431 l 269 160 l 546 160 q 614 172 585 160 q 659 210 643 185 q 675 272 675 236 l 675 317 q 659 379 675 354 q 614 417 643 404 q 546 431 585 431 l 269 431 z "},"ﬁ":{"ha":835,"x_min":36,"x_max":740,"o":"m 146 0 l 146 599 l 36 599 l 36 722 l 146 722 l 146 842 q 192 978 146 929 q 329 1028 239 1028 l 449 1028 l 449 904 l 297 904 l 297 722 l 726 722 l 726 0 l 575 0 l 575 599 l 297 599 l 297 0 l 146 0 m 650 851 q 583 874 604 851 q 561 931 561 896 l 561 954 q 583 1011 561 989 q 650 1033 604 1033 q 719 1011 699 1033 q 740 954 740 989 l 740 931 q 719 874 740 896 q 650 851 699 851 z "},"ﬂ":{"ha":868,"x_min":36,"x_max":832,"o":"m 146 0 l 146 599 l 36 599 l 36 722 l 146 722 l 146 842 q 192 978 146 929 q 329 1028 239 1028 l 449 1028 l 449 904 l 297 904 l 297 722 l 449 722 l 449 599 l 297 599 l 297 0 l 146 0 m 832 0 l 736 0 q 619 41 658 0 q 581 151 581 82 l 581 1028 l 732 1028 l 732 124 l 832 124 l 832 0 z "},"á":{"ha":763,"x_min":56,"x_max":722,"o":"m 722 0 l 638 0 q 566 19 596 0 q 521 72 536 38 q 506 154 506 107 l 506 167 l 549 121 l 500 121 q 424 19 479 54 q 289 -17 368 -17 q 117 42 178 -17 q 56 199 56 100 q 91 319 56 271 q 194 391 126 367 q 364 415 263 415 l 494 415 l 494 476 q 458 578 494 542 q 346 615 422 615 q 242 587 283 615 q 174 517 201 558 l 83 599 q 185 699 119 660 q 356 739 251 739 q 570 673 494 739 q 646 486 646 607 l 646 124 l 722 124 l 722 0 m 494 318 l 367 318 q 249 293 288 318 q 210 221 210 268 l 210 196 q 243 124 210 149 q 332 99 276 99 q 415 113 379 99 q 473 153 451 126 q 494 214 494 179 l 494 318 m 539 1040 l 375 808 l 281 854 l 407 1104 l 539 1040 z "},"ă":{"ha":763,"x_min":56,"x_max":722,"o":"m 722 0 l 638 0 q 566 19 596 0 q 521 72 536 38 q 506 154 506 107 l 506 167 l 549 121 l 500 121 q 424 19 479 54 q 289 -17 368 -17 q 117 42 178 -17 q 56 199 56 100 q 91 319 56 271 q 194 391 126 367 q 364 415 263 415 l 494 415 l 494 476 q 458 578 494 542 q 346 615 422 615 q 242 587 283 615 q 174 517 201 558 l 83 599 q 185 699 119 660 q 356 739 251 739 q 570 673 494 739 q 646 486 646 607 l 646 124 l 722 124 l 722 0 m 494 318 l 367 318 q 249 293 288 318 q 210 221 210 268 l 210 196 q 243 124 210 149 q 332 99 276 99 q 415 113 379 99 q 473 153 451 126 q 494 214 494 179 l 494 318 m 360 818 q 262 837 301 818 q 196 886 222 856 q 153 951 169 917 q 126 1018 138 985 l 210 1060 l 239 1014 q 288 953 263 976 q 360 929 314 929 q 432 953 406 929 q 482 1014 458 976 l 510 1060 l 593 1018 q 566 951 582 985 q 523 886 550 917 q 456 837 496 856 q 360 818 417 818 z "},"ǎ":{"ha":763,"x_min":56,"x_max":722,"o":"m 722 0 l 638 0 q 566 19 596 0 q 521 72 536 38 q 506 154 506 107 l 506 167 l 549 121 l 500 121 q 424 19 479 54 q 289 -17 368 -17 q 117 42 178 -17 q 56 199 56 100 q 91 319 56 271 q 194 391 126 367 q 364 415 263 415 l 494 415 l 494 476 q 458 578 494 542 q 346 615 422 615 q 242 587 283 615 q 174 517 201 558 l 83 599 q 185 699 119 660 q 356 739 251 739 q 570 673 494 739 q 646 486 646 607 l 646 124 l 722 124 l 722 0 m 494 318 l 367 318 q 249 293 288 318 q 210 221 210 268 l 210 196 q 243 124 210 149 q 332 99 276 99 q 415 113 379 99 q 473 153 451 126 q 494 214 494 179 l 494 318 m 436 825 l 283 825 l 117 1033 l 194 1092 l 360 931 l 525 1092 l 603 1033 l 436 825 z "},"â":{"ha":763,"x_min":56,"x_max":722,"o":"m 722 0 l 638 0 q 566 19 596 0 q 521 72 536 38 q 506 154 506 107 l 506 167 l 549 121 l 500 121 q 424 19 479 54 q 289 -17 368 -17 q 117 42 178 -17 q 56 199 56 100 q 91 319 56 271 q 194 391 126 367 q 364 415 263 415 l 494 415 l 494 476 q 458 578 494 542 q 346 615 422 615 q 242 587 283 615 q 174 517 201 558 l 83 599 q 185 699 119 660 q 356 739 251 739 q 570 673 494 739 q 646 486 646 607 l 646 124 l 722 124 l 722 0 m 494 318 l 367 318 q 249 293 288 318 q 210 221 210 268 l 210 196 q 243 124 210 149 q 332 99 276 99 q 415 113 379 99 q 473 153 451 126 q 494 214 494 179 l 494 318 m 283 1081 l 436 1081 l 603 872 l 525 813 l 360 975 l 194 813 l 117 872 l 283 1081 z "},"ä":{"ha":763,"x_min":56,"x_max":722,"o":"m 722 0 l 638 0 q 566 19 596 0 q 521 72 536 38 q 506 154 506 107 l 506 167 l 549 121 l 500 121 q 424 19 479 54 q 289 -17 368 -17 q 117 42 178 -17 q 56 199 56 100 q 91 319 56 271 q 194 391 126 367 q 364 415 263 415 l 494 415 l 494 476 q 458 578 494 542 q 346 615 422 615 q 242 587 283 615 q 174 517 201 558 l 83 599 q 185 699 119 660 q 356 739 251 739 q 570 673 494 739 q 646 486 646 607 l 646 124 l 722 124 l 722 0 m 494 318 l 367 318 q 249 293 288 318 q 210 221 210 268 l 210 196 q 243 124 210 149 q 332 99 276 99 q 415 113 379 99 q 473 153 451 126 q 494 214 494 179 l 494 318 m 221 847 q 154 868 174 847 q 135 922 135 889 l 135 946 q 154 999 135 978 q 221 1019 174 1019 q 288 999 268 1019 q 307 946 307 978 l 307 922 q 288 868 307 889 q 221 847 268 847 m 499 847 q 433 868 453 847 q 413 922 413 889 l 413 946 q 433 999 413 978 q 499 1019 453 1019 q 565 999 546 1019 q 585 946 585 978 l 585 922 q 565 868 585 889 q 499 847 546 847 z "},"ạ":{"ha":763,"x_min":56,"x_max":722,"o":"m 722 0 l 638 0 q 566 19 596 0 q 521 72 536 38 q 506 154 506 107 l 506 167 l 549 121 l 500 121 q 424 19 479 54 q 289 -17 368 -17 q 117 42 178 -17 q 56 199 56 100 q 91 319 56 271 q 194 391 126 367 q 364 415 263 415 l 494 415 l 494 476 q 458 578 494 542 q 346 615 422 615 q 242 587 283 615 q 174 517 201 558 l 83 599 q 185 699 119 660 q 356 739 251 739 q 570 673 494 739 q 646 486 646 607 l 646 124 l 722 124 l 722 0 m 494 318 l 367 318 q 249 293 288 318 q 210 221 210 268 l 210 196 q 243 124 210 149 q 332 99 276 99 q 415 113 379 99 q 473 153 451 126 q 494 214 494 179 l 494 318 m 354 -256 q 287 -235 308 -256 q 265 -182 265 -214 l 265 -157 q 287 -104 265 -125 q 354 -83 308 -83 q 422 -104 401 -83 q 443 -157 443 -125 l 443 -182 q 422 -235 443 -214 q 354 -256 401 -256 z "},"à":{"ha":763,"x_min":56,"x_max":722,"o":"m 722 0 l 638 0 q 566 19 596 0 q 521 72 536 38 q 506 154 506 107 l 506 167 l 549 121 l 500 121 q 424 19 479 54 q 289 -17 368 -17 q 117 42 178 -17 q 56 199 56 100 q 91 319 56 271 q 194 391 126 367 q 364 415 263 415 l 494 415 l 494 476 q 458 578 494 542 q 346 615 422 615 q 242 587 283 615 q 174 517 201 558 l 83 599 q 185 699 119 660 q 356 739 251 739 q 570 673 494 739 q 646 486 646 607 l 646 124 l 722 124 l 722 0 m 494 318 l 367 318 q 249 293 288 318 q 210 221 210 268 l 210 196 q 243 124 210 149 q 332 99 276 99 q 415 113 379 99 q 473 153 451 126 q 494 214 494 179 l 494 318 m 344 808 l 181 1040 l 313 1104 l 439 854 l 344 808 z "},"ả":{"ha":763,"x_min":56,"x_max":722,"o":"m 722 0 l 638 0 q 566 19 596 0 q 521 72 536 38 q 506 154 506 107 l 506 167 l 549 121 l 500 121 q 424 19 479 54 q 289 -17 368 -17 q 117 42 178 -17 q 56 199 56 100 q 91 319 56 271 q 194 391 126 367 q 364 415 263 415 l 494 415 l 494 476 q 458 578 494 542 q 346 615 422 615 q 242 587 283 615 q 174 517 201 558 l 83 599 q 185 699 119 660 q 356 739 251 739 q 570 673 494 739 q 646 486 646 607 l 646 124 l 722 124 l 722 0 m 494 318 l 367 318 q 249 293 288 318 q 210 221 210 268 l 210 196 q 243 124 210 149 q 332 99 276 99 q 415 113 379 99 q 473 153 451 126 q 494 214 494 179 l 494 318 m 222 974 l 222 1085 l 393 1085 q 482 1059 457 1085 q 507 997 507 1033 q 488 922 507 963 q 435 840 468 882 l 399 797 l 318 836 l 388 974 l 222 974 z "},"ā":{"ha":763,"x_min":56,"x_max":722,"o":"m 722 0 l 638 0 q 566 19 596 0 q 521 72 536 38 q 506 154 506 107 l 506 167 l 549 121 l 500 121 q 424 19 479 54 q 289 -17 368 -17 q 117 42 178 -17 q 56 199 56 100 q 91 319 56 271 q 194 391 126 367 q 364 415 263 415 l 494 415 l 494 476 q 458 578 494 542 q 346 615 422 615 q 242 587 283 615 q 174 517 201 558 l 83 599 q 185 699 119 660 q 356 739 251 739 q 570 673 494 739 q 646 486 646 607 l 646 124 l 722 124 l 722 0 m 494 318 l 367 318 q 249 293 288 318 q 210 221 210 268 l 210 196 q 243 124 210 149 q 332 99 276 99 q 415 113 379 99 q 473 153 451 126 q 494 214 494 179 l 494 318 m 157 876 l 157 992 l 563 992 l 563 876 l 157 876 z "},"ą":{"ha":763,"x_min":56,"x_max":757,"o":"m 722 125 l 722 0 q 628 -78 660 -49 q 587 -126 597 -107 q 576 -160 576 -144 q 590 -194 576 -185 q 624 -204 604 -204 q 663 -194 644 -204 q 694 -168 681 -183 l 757 -229 q 707 -273 743 -256 q 615 -290 671 -290 q 541 -279 575 -290 q 486 -244 507 -268 q 465 -179 465 -219 q 509 -84 465 -125 q 618 -4 553 -43 l 601 40 l 667 0 l 638 0 q 565 19 594 0 q 520 74 535 39 q 506 154 506 108 l 506 167 l 549 121 l 500 121 q 424 19 479 54 q 289 -17 368 -17 q 117 42 178 -17 q 56 199 56 100 q 91 319 56 271 q 194 391 126 367 q 364 415 263 415 l 494 415 l 494 476 q 458 578 494 542 q 346 615 422 615 q 242 587 283 615 q 174 517 201 558 l 83 599 q 185 699 119 660 q 356 739 251 739 q 570 673 494 739 q 646 486 646 607 l 646 125 l 722 125 m 494 318 l 367 318 q 249 293 288 318 q 210 221 210 268 l 210 196 q 243 124 210 149 q 332 99 276 99 q 415 113 379 99 q 473 153 451 126 q 494 214 494 179 l 494 318 z "},"å":{"ha":763,"x_min":56,"x_max":722,"o":"m 722 0 l 638 0 q 566 19 596 0 q 521 72 536 38 q 506 154 506 107 l 506 167 l 549 121 l 500 121 q 424 19 479 54 q 289 -17 368 -17 q 117 42 178 -17 q 56 199 56 100 q 91 319 56 271 q 194 391 126 367 q 364 415 263 415 l 494 415 l 494 476 q 458 578 494 542 q 346 615 422 615 q 242 587 283 615 q 174 517 201 558 l 83 599 q 185 699 119 660 q 356 739 251 739 q 570 673 494 739 q 646 486 646 607 l 646 124 l 722 124 l 722 0 m 494 318 l 367 318 q 249 293 288 318 q 210 221 210 268 l 210 196 q 243 124 210 149 q 332 99 276 99 q 415 113 379 99 q 473 153 451 126 q 494 214 494 179 l 494 318 m 360 789 q 269 812 310 789 q 203 875 228 835 q 179 965 179 915 q 203 1056 179 1017 q 269 1119 228 1096 q 360 1142 310 1142 q 451 1119 411 1142 q 516 1056 492 1096 q 540 965 540 1017 q 516 875 540 915 q 451 812 492 835 q 360 789 411 789 m 360 872 q 416 892 396 872 q 436 947 436 913 l 436 985 q 416 1039 436 1019 q 360 1058 396 1058 q 303 1039 324 1058 q 283 985 283 1019 l 283 947 q 303 892 283 913 q 360 872 324 872 z "},"ǻ":{"ha":763,"x_min":56,"x_max":722,"o":"m 722 0 l 638 0 q 566 19 596 0 q 521 72 536 38 q 506 154 506 107 l 506 167 l 549 121 l 500 121 q 424 19 479 54 q 289 -17 368 -17 q 117 42 178 -17 q 56 199 56 100 q 91 319 56 271 q 194 391 126 367 q 364 415 263 415 l 494 415 l 494 476 q 458 578 494 542 q 346 615 422 615 q 242 587 283 615 q 174 517 201 558 l 83 599 q 185 699 119 660 q 356 739 251 739 q 570 673 494 739 q 646 486 646 607 l 646 124 l 722 124 l 722 0 m 494 318 l 367 318 q 249 293 288 318 q 210 221 210 268 l 210 196 q 243 124 210 149 q 332 99 276 99 q 415 113 379 99 q 473 153 451 126 q 494 214 494 179 l 494 318 m 528 1269 l 364 1131 l 300 1186 l 436 1347 l 528 1269 m 360 785 q 231 830 283 785 q 178 947 178 875 q 231 1065 178 1021 q 360 1110 283 1110 q 489 1065 436 1110 q 542 947 542 1021 q 489 830 542 875 q 360 785 436 785 m 360 865 q 418 883 397 865 q 439 936 439 901 l 439 960 q 418 1011 439 993 q 360 1029 397 1029 q 301 1011 322 1029 q 281 960 281 993 l 281 936 q 301 883 281 901 q 360 865 322 865 z "},"ã":{"ha":763,"x_min":56,"x_max":722,"o":"m 722 0 l 638 0 q 566 19 596 0 q 521 72 536 38 q 506 154 506 107 l 506 167 l 549 121 l 500 121 q 424 19 479 54 q 289 -17 368 -17 q 117 42 178 -17 q 56 199 56 100 q 91 319 56 271 q 194 391 126 367 q 364 415 263 415 l 494 415 l 494 476 q 458 578 494 542 q 346 615 422 615 q 242 587 283 615 q 174 517 201 558 l 83 599 q 185 699 119 660 q 356 739 251 739 q 570 673 494 739 q 646 486 646 607 l 646 124 l 722 124 l 722 0 m 494 318 l 367 318 q 249 293 288 318 q 210 221 210 268 l 210 196 q 243 124 210 149 q 332 99 276 99 q 415 113 379 99 q 473 153 451 126 q 494 214 494 179 l 494 318 m 463 843 q 403 854 429 843 q 354 876 378 865 q 297 900 321 892 q 251 908 274 908 q 210 899 229 908 q 171 872 192 890 l 114 944 q 170 1000 135 976 q 257 1024 206 1024 q 316 1013 290 1024 q 365 992 342 1003 q 422 968 399 976 q 468 960 446 960 q 510 969 492 960 q 549 996 528 978 l 606 924 q 549 867 585 892 q 463 843 514 843 z "},"ắ":{"ha":763,"x_min":56,"x_max":722,"o":"m 722 0 l 638 0 q 566 19 596 0 q 521 72 536 38 q 506 154 506 107 l 506 167 l 549 121 l 500 121 q 424 19 479 54 q 289 -17 368 -17 q 117 42 178 -17 q 56 199 56 100 q 91 319 56 271 q 194 391 126 367 q 364 415 263 415 l 494 415 l 494 476 q 458 578 494 542 q 346 615 422 615 q 242 587 283 615 q 174 517 201 558 l 83 599 q 185 699 119 660 q 356 739 251 739 q 570 673 494 739 q 646 486 646 607 l 646 124 l 722 124 l 722 0 m 494 318 l 367 318 q 249 293 288 318 q 210 221 210 268 l 210 196 q 243 124 210 149 q 332 99 276 99 q 415 113 379 99 q 473 153 451 126 q 494 214 494 179 l 494 318 m 360 804 q 237 834 285 804 q 162 908 189 864 q 119 993 135 951 l 200 1039 l 229 994 q 285 933 256 954 q 360 911 315 911 q 435 933 406 911 q 490 994 465 954 l 519 1039 l 600 993 q 558 908 585 951 q 483 834 531 864 q 360 804 436 804 m 536 1221 l 375 990 l 289 1032 l 414 1282 l 536 1221 z "},"ặ":{"ha":763,"x_min":56,"x_max":722,"o":"m 722 0 l 638 0 q 566 19 596 0 q 521 72 536 38 q 506 154 506 107 l 506 167 l 549 121 l 500 121 q 424 19 479 54 q 289 -17 368 -17 q 117 42 178 -17 q 56 199 56 100 q 91 319 56 271 q 194 391 126 367 q 364 415 263 415 l 494 415 l 494 476 q 458 578 494 542 q 346 615 422 615 q 242 587 283 615 q 174 517 201 558 l 83 599 q 185 699 119 660 q 356 739 251 739 q 570 673 494 739 q 646 486 646 607 l 646 124 l 722 124 l 722 0 m 494 318 l 367 318 q 249 293 288 318 q 210 221 210 268 l 210 196 q 243 124 210 149 q 332 99 276 99 q 415 113 379 99 q 473 153 451 126 q 494 214 494 179 l 494 318 m 360 818 q 262 837 301 818 q 196 886 222 856 q 153 951 169 917 q 126 1018 138 985 l 210 1060 l 239 1014 q 288 953 263 976 q 360 929 314 929 q 432 953 406 929 q 482 1014 458 976 l 510 1060 l 593 1018 q 566 951 582 985 q 523 886 550 917 q 456 837 496 856 q 360 818 417 818 m 354 -256 q 287 -235 308 -256 q 265 -182 265 -214 l 265 -157 q 287 -104 265 -125 q 354 -83 308 -83 q 422 -104 401 -83 q 443 -157 443 -125 l 443 -182 q 422 -235 443 -214 q 354 -256 401 -256 z "},"ằ":{"ha":763,"x_min":56,"x_max":722,"o":"m 722 0 l 638 0 q 566 19 596 0 q 521 72 536 38 q 506 154 506 107 l 506 167 l 549 121 l 500 121 q 424 19 479 54 q 289 -17 368 -17 q 117 42 178 -17 q 56 199 56 100 q 91 319 56 271 q 194 391 126 367 q 364 415 263 415 l 494 415 l 494 476 q 458 578 494 542 q 346 615 422 615 q 242 587 283 615 q 174 517 201 558 l 83 599 q 185 699 119 660 q 356 739 251 739 q 570 673 494 739 q 646 486 646 607 l 646 124 l 722 124 l 722 0 m 494 318 l 367 318 q 249 293 288 318 q 210 221 210 268 l 210 196 q 243 124 210 149 q 332 99 276 99 q 415 113 379 99 q 473 153 451 126 q 494 214 494 179 l 494 318 m 360 804 q 237 834 285 804 q 162 908 189 864 q 119 993 135 951 l 200 1039 l 229 994 q 285 933 256 954 q 360 911 315 911 q 435 933 406 911 q 490 994 465 954 l 519 1039 l 600 993 q 558 908 585 951 q 483 834 531 864 q 360 804 436 804 m 344 990 l 185 1221 l 307 1282 l 431 1033 l 344 990 z "},"ẳ":{"ha":763,"x_min":56,"x_max":722,"o":"m 722 0 l 638 0 q 566 19 596 0 q 521 72 536 38 q 506 154 506 107 l 506 167 l 549 121 l 500 121 q 424 19 479 54 q 289 -17 368 -17 q 117 42 178 -17 q 56 199 56 100 q 91 319 56 271 q 194 391 126 367 q 364 415 263 415 l 494 415 l 494 476 q 458 578 494 542 q 346 615 422 615 q 242 587 283 615 q 174 517 201 558 l 83 599 q 185 699 119 660 q 356 739 251 739 q 570 673 494 739 q 646 486 646 607 l 646 124 l 722 124 l 722 0 m 494 318 l 367 318 q 249 293 288 318 q 210 221 210 268 l 210 196 q 243 124 210 149 q 332 99 276 99 q 415 113 379 99 q 473 153 451 126 q 494 214 494 179 l 494 318 m 360 804 q 237 834 285 804 q 162 908 189 864 q 119 993 135 951 l 200 1039 l 229 994 q 285 933 256 954 q 360 911 315 911 q 435 933 406 911 q 490 994 465 954 l 519 1039 l 600 993 q 558 908 585 951 q 483 834 531 864 q 360 804 436 804 m 211 1158 l 211 1265 l 367 1265 q 456 1240 431 1265 q 481 1178 481 1214 q 460 1103 481 1143 q 406 1021 439 1063 l 371 978 l 296 1015 l 369 1158 l 211 1158 z "},"ẵ":{"ha":763,"x_min":56,"x_max":722,"o":"m 722 0 l 638 0 q 566 19 596 0 q 521 72 536 38 q 506 154 506 107 l 506 167 l 549 121 l 500 121 q 424 19 479 54 q 289 -17 368 -17 q 117 42 178 -17 q 56 199 56 100 q 91 319 56 271 q 194 391 126 367 q 364 415 263 415 l 494 415 l 494 476 q 458 578 494 542 q 346 615 422 615 q 242 587 283 615 q 174 517 201 558 l 83 599 q 185 699 119 660 q 356 739 251 739 q 570 673 494 739 q 646 486 646 607 l 646 124 l 722 124 l 722 0 m 494 318 l 367 318 q 249 293 288 318 q 210 221 210 268 l 210 196 q 243 124 210 149 q 332 99 276 99 q 415 113 379 99 q 473 153 451 126 q 494 214 494 179 l 494 318 m 360 804 q 237 834 285 804 q 162 908 189 864 q 119 993 135 951 l 200 1039 l 229 994 q 285 933 256 954 q 360 911 315 911 q 435 933 406 911 q 490 994 465 954 l 519 1039 l 600 993 q 558 908 585 951 q 483 834 531 864 q 360 804 436 804 m 460 1082 q 401 1092 426 1082 q 353 1113 375 1103 q 297 1138 321 1129 q 251 1146 274 1146 q 210 1137 229 1146 q 171 1110 192 1128 l 117 1176 q 174 1232 139 1208 q 260 1256 208 1256 q 319 1245 293 1256 q 367 1224 344 1235 q 422 1200 399 1208 q 467 1192 446 1192 q 508 1201 490 1192 q 549 1228 526 1210 l 603 1163 q 547 1106 582 1131 q 460 1082 511 1082 z "},"ấ":{"ha":763,"x_min":56,"x_max":749,"o":"m 722 0 l 638 0 q 566 19 596 0 q 521 72 536 38 q 506 154 506 107 l 506 167 l 549 121 l 500 121 q 424 19 479 54 q 289 -17 368 -17 q 117 42 178 -17 q 56 199 56 100 q 91 319 56 271 q 194 391 126 367 q 364 415 263 415 l 494 415 l 494 476 q 458 578 494 542 q 346 615 422 615 q 242 587 283 615 q 174 517 201 558 l 83 599 q 185 699 119 660 q 356 739 251 739 q 570 673 494 739 q 646 486 646 607 l 646 124 l 722 124 l 722 0 m 494 318 l 367 318 q 249 293 288 318 q 210 221 210 268 l 210 196 q 243 124 210 149 q 332 99 276 99 q 415 113 379 99 q 473 153 451 126 q 494 214 494 179 l 494 318 m 749 1221 l 585 990 l 499 1032 l 625 1282 l 749 1221 m 292 1056 l 428 1056 l 601 863 l 528 800 l 360 951 l 192 800 l 118 863 l 292 1056 z "},"ậ":{"ha":763,"x_min":56,"x_max":722,"o":"m 722 0 l 638 0 q 566 19 596 0 q 521 72 536 38 q 506 154 506 107 l 506 167 l 549 121 l 500 121 q 424 19 479 54 q 289 -17 368 -17 q 117 42 178 -17 q 56 199 56 100 q 91 319 56 271 q 194 391 126 367 q 364 415 263 415 l 494 415 l 494 476 q 458 578 494 542 q 346 615 422 615 q 242 587 283 615 q 174 517 201 558 l 83 599 q 185 699 119 660 q 356 739 251 739 q 570 673 494 739 q 646 486 646 607 l 646 124 l 722 124 l 722 0 m 494 318 l 367 318 q 249 293 288 318 q 210 221 210 268 l 210 196 q 243 124 210 149 q 332 99 276 99 q 415 113 379 99 q 473 153 451 126 q 494 214 494 179 l 494 318 m 283 1081 l 436 1081 l 603 872 l 525 813 l 360 975 l 194 813 l 117 872 l 283 1081 m 354 -256 q 287 -235 308 -256 q 265 -182 265 -214 l 265 -157 q 287 -104 265 -125 q 354 -83 308 -83 q 422 -104 401 -83 q 443 -157 443 -125 l 443 -182 q 422 -235 443 -214 q 354 -256 401 -256 z "},"ầ":{"ha":763,"x_min":-29,"x_max":722,"o":"m 722 0 l 638 0 q 566 19 596 0 q 521 72 536 38 q 506 154 506 107 l 506 167 l 549 121 l 500 121 q 424 19 479 54 q 289 -17 368 -17 q 117 42 178 -17 q 56 199 56 100 q 91 319 56 271 q 194 391 126 367 q 364 415 263 415 l 494 415 l 494 476 q 458 578 494 542 q 346 615 422 615 q 242 587 283 615 q 174 517 201 558 l 83 599 q 185 699 119 660 q 356 739 251 739 q 570 673 494 739 q 646 486 646 607 l 646 124 l 722 124 l 722 0 m 494 318 l 367 318 q 249 293 288 318 q 210 221 210 268 l 210 196 q 243 124 210 149 q 332 99 276 99 q 415 113 379 99 q 473 153 451 126 q 494 214 494 179 l 494 318 m 135 990 l -29 1221 l 94 1282 l 221 1032 l 135 990 m 292 1056 l 428 1056 l 601 863 l 528 800 l 360 951 l 192 800 l 118 863 l 292 1056 z "},"ẩ":{"ha":763,"x_min":56,"x_max":722,"o":"m 722 0 l 638 0 q 566 19 596 0 q 521 72 536 38 q 506 154 506 107 l 506 167 l 549 121 l 500 121 q 424 19 479 54 q 289 -17 368 -17 q 117 42 178 -17 q 56 199 56 100 q 91 319 56 271 q 194 391 126 367 q 364 415 263 415 l 494 415 l 494 476 q 458 578 494 542 q 346 615 422 615 q 242 587 283 615 q 174 517 201 558 l 83 599 q 185 699 119 660 q 356 739 251 739 q 570 673 494 739 q 646 486 646 607 l 646 124 l 722 124 l 722 0 m 494 318 l 367 318 q 249 293 288 318 q 210 221 210 268 l 210 196 q 243 124 210 149 q 332 99 276 99 q 415 113 379 99 q 473 153 451 126 q 494 214 494 179 l 494 318 m 422 1158 l 422 1265 l 589 1265 q 677 1240 651 1265 q 703 1178 703 1214 q 681 1103 703 1143 q 626 1021 658 1063 l 590 978 l 517 1017 l 590 1158 l 422 1158 m 292 1056 l 428 1056 l 601 863 l 528 800 l 360 951 l 192 800 l 118 863 l 292 1056 z "},"ẫ":{"ha":763,"x_min":56,"x_max":722,"o":"m 722 0 l 638 0 q 566 19 596 0 q 521 72 536 38 q 506 154 506 107 l 506 167 l 549 121 l 500 121 q 424 19 479 54 q 289 -17 368 -17 q 117 42 178 -17 q 56 199 56 100 q 91 319 56 271 q 194 391 126 367 q 364 415 263 415 l 494 415 l 494 476 q 458 578 494 542 q 346 615 422 615 q 242 587 283 615 q 174 517 201 558 l 83 599 q 185 699 119 660 q 356 739 251 739 q 570 673 494 739 q 646 486 646 607 l 646 124 l 722 124 l 722 0 m 494 318 l 367 318 q 249 293 288 318 q 210 221 210 268 l 210 196 q 243 124 210 149 q 332 99 276 99 q 415 113 379 99 q 473 153 451 126 q 494 214 494 179 l 494 318 m 258 1263 q 317 1251 292 1263 q 367 1229 343 1240 q 424 1206 400 1214 q 469 1197 447 1197 q 511 1206 493 1197 q 550 1233 529 1215 l 604 1167 q 548 1111 583 1135 q 461 1088 513 1088 q 402 1098 428 1088 q 353 1119 376 1108 q 296 1143 319 1135 q 250 1151 272 1151 q 209 1142 228 1151 q 169 1115 190 1133 l 115 1182 q 172 1238 136 1214 q 258 1263 207 1263 m 292 1049 l 428 1049 l 600 863 l 528 800 l 360 946 l 192 800 l 119 863 l 292 1049 z "},"æ":{"ha":1200,"x_min":56,"x_max":1142,"o":"m 494 322 l 367 322 q 249 296 289 321 q 210 224 210 271 l 210 199 q 242 125 210 151 q 335 99 275 99 q 415 113 379 99 q 473 153 451 126 q 494 214 494 179 l 494 322 m 646 422 l 982 422 l 982 436 q 963 533 982 492 q 907 598 943 575 q 821 621 871 621 q 730 597 769 621 q 668 530 690 572 q 646 432 646 488 l 646 422 m 839 108 q 952 138 906 108 q 1028 215 999 168 l 1117 129 q 1002 23 1076 63 q 832 -17 928 -17 q 702 7 760 -17 q 608 66 644 31 q 558 136 572 101 l 550 136 q 508 67 540 103 q 422 8 476 32 q 289 -17 367 -17 q 117 43 179 -17 q 56 199 56 103 q 92 322 56 272 q 198 397 129 371 q 364 422 267 422 l 494 422 l 494 476 q 458 578 494 542 q 347 615 422 615 q 242 588 283 615 q 174 518 201 561 l 83 599 q 185 699 118 660 q 356 739 251 739 q 465 718 422 739 q 534 666 508 697 q 572 603 560 635 l 581 603 q 629 667 596 636 q 714 719 663 699 q 829 739 765 739 q 1003 691 933 739 q 1107 561 1072 643 q 1142 379 1142 479 l 1142 322 l 646 322 l 646 299 q 697 162 646 215 q 839 108 747 108 z "},"ǽ":{"ha":1200,"x_min":56,"x_max":1142,"o":"m 494 322 l 367 322 q 249 296 289 321 q 210 224 210 271 l 210 199 q 242 125 210 151 q 335 99 275 99 q 415 113 379 99 q 473 153 451 126 q 494 214 494 179 l 494 322 m 646 422 l 982 422 l 982 436 q 963 533 982 492 q 907 598 943 575 q 821 621 871 621 q 730 597 769 621 q 668 530 690 572 q 646 432 646 488 l 646 422 m 839 108 q 952 138 906 108 q 1028 215 999 168 l 1117 129 q 1002 23 1076 63 q 832 -17 928 -17 q 702 7 760 -17 q 608 66 644 31 q 558 136 572 101 l 550 136 q 508 67 540 103 q 422 8 476 32 q 289 -17 367 -17 q 117 43 179 -17 q 56 199 56 103 q 92 322 56 272 q 198 397 129 371 q 364 422 267 422 l 494 422 l 494 476 q 458 578 494 542 q 347 615 422 615 q 242 588 283 615 q 174 518 201 561 l 83 599 q 185 699 118 660 q 356 739 251 739 q 465 718 422 739 q 534 666 508 697 q 572 603 560 635 l 581 603 q 629 667 596 636 q 714 719 663 699 q 829 739 765 739 q 1003 691 933 739 q 1107 561 1072 643 q 1142 379 1142 479 l 1142 322 l 646 322 l 646 299 q 697 162 646 215 q 839 108 747 108 m 765 1040 l 601 808 l 507 854 l 633 1104 l 765 1040 z "},"ć":{"ha":707,"x_min":58,"x_max":671,"o":"m 388 -17 q 144 85 231 -17 q 58 361 58 188 q 144 637 58 535 q 388 739 231 739 q 565 690 496 739 q 665 561 635 642 l 540 503 q 486 583 525 553 q 388 613 447 613 q 261 560 304 613 q 218 425 218 508 l 218 297 q 261 161 218 214 q 388 108 304 108 q 493 141 453 108 q 557 228 533 174 l 671 167 q 564 31 636 78 q 388 -17 492 -17 m 561 1040 l 397 808 l 303 854 l 429 1104 l 561 1040 z "},"č":{"ha":707,"x_min":58,"x_max":671,"o":"m 388 -17 q 144 85 231 -17 q 58 361 58 188 q 144 637 58 535 q 388 739 231 739 q 565 690 496 739 q 665 561 635 642 l 540 503 q 486 583 525 553 q 388 613 447 613 q 261 560 304 613 q 218 425 218 508 l 218 297 q 261 161 218 214 q 388 108 304 108 q 493 141 453 108 q 557 228 533 174 l 671 167 q 564 31 636 78 q 388 -17 492 -17 m 458 825 l 306 825 l 139 1033 l 217 1092 l 382 931 l 547 1092 l 625 1033 l 458 825 z "},"ç":{"ha":707,"x_min":58,"x_max":671,"o":"m 388 739 q 565 691 496 739 q 665 563 635 643 l 540 503 q 486 583 525 553 q 388 613 447 613 q 261 560 304 613 q 218 425 218 508 l 218 297 q 261 161 218 214 q 388 108 304 108 q 493 141 453 108 q 557 228 533 174 l 671 167 q 572 35 639 82 q 411 -15 506 -11 l 397 -81 l 401 -86 q 432 -79 417 -82 q 461 -76 447 -76 q 531 -100 503 -76 q 558 -171 558 -124 q 535 -240 558 -212 q 474 -278 511 -267 q 392 -290 436 -290 q 293 -271 329 -290 q 240 -232 257 -251 l 297 -165 q 333 -194 311 -182 q 385 -206 354 -206 q 428 -196 411 -206 q 446 -165 446 -186 q 427 -133 446 -149 q 347 -110 408 -117 l 313 -106 l 332 -12 q 129 105 200 6 q 58 361 58 204 q 144 637 58 535 q 388 739 231 739 z "},"ĉ":{"ha":707,"x_min":58,"x_max":671,"o":"m 388 -17 q 144 85 231 -17 q 58 361 58 188 q 144 637 58 535 q 388 739 231 739 q 565 690 496 739 q 665 561 635 642 l 540 503 q 486 583 525 553 q 388 613 447 613 q 261 560 304 613 q 218 425 218 508 l 218 297 q 261 161 218 214 q 388 108 304 108 q 493 141 453 108 q 557 228 533 174 l 671 167 q 564 31 636 78 q 388 -17 492 -17 m 306 1081 l 458 1081 l 625 872 l 547 813 l 382 975 l 217 813 l 139 872 l 306 1081 z "},"ċ":{"ha":707,"x_min":58,"x_max":671,"o":"m 388 -17 q 144 85 231 -17 q 58 361 58 188 q 144 637 58 535 q 388 739 231 739 q 565 690 496 739 q 665 561 635 642 l 540 503 q 486 583 525 553 q 388 613 447 613 q 261 560 304 613 q 218 425 218 508 l 218 297 q 261 161 218 214 q 388 108 304 108 q 493 141 453 108 q 557 228 533 174 l 671 167 q 564 31 636 78 q 388 -17 492 -17 m 382 840 q 311 863 333 840 q 289 919 289 885 l 289 944 q 311 1001 289 979 q 382 1024 333 1024 q 453 1001 432 1024 q 475 944 475 979 l 475 919 q 453 863 475 885 q 382 840 432 840 z "},"ď":{"ha":885,"x_min":65,"x_max":976,"o":"m 563 0 l 563 119 l 556 119 q 478 19 531 56 q 353 -17 425 -17 q 198 28 263 -17 q 99 158 133 74 q 65 361 65 243 q 99 565 65 481 q 198 694 133 649 q 353 739 263 739 q 479 703 425 739 q 556 603 533 668 l 563 603 l 563 1028 l 714 1028 l 714 0 l 563 0 m 399 111 q 481 127 444 111 q 540 172 518 143 q 563 242 563 200 l 563 486 q 540 551 563 524 q 481 594 518 579 q 399 610 444 610 q 273 558 321 610 q 225 424 225 507 l 225 299 q 273 163 225 215 q 399 111 321 111 m 975 1028 l 894 753 l 794 753 l 808 1028 l 975 1028 z "},"đ":{"ha":826,"x_min":65,"x_max":801,"o":"m 563 0 l 563 119 l 556 119 q 478 19 531 56 q 353 -17 425 -17 q 198 28 263 -17 q 99 158 133 74 q 65 361 65 243 q 99 565 65 481 q 198 694 133 649 q 353 739 263 739 q 479 703 425 739 q 556 603 533 668 l 563 603 l 563 833 l 360 833 l 360 943 l 563 943 l 563 1028 l 714 1028 l 714 943 l 801 943 l 801 833 l 714 833 l 714 0 l 563 0 m 399 111 q 481 127 444 111 q 540 172 518 143 q 563 242 563 200 l 563 486 q 540 551 563 524 q 481 594 518 579 q 399 610 444 610 q 273 558 321 610 q 225 424 225 507 l 225 299 q 273 163 225 215 q 399 111 321 111 z "},"ð":{"ha":799,"x_min":61,"x_max":731,"o":"m 561 1046 l 617 978 l 511 907 q 624 765 574 844 q 702 590 674 686 q 731 381 731 493 q 688 158 731 247 q 572 26 646 69 q 399 -17 497 -17 q 219 28 294 -17 q 102 155 143 74 q 61 346 61 236 q 98 530 61 451 q 203 653 135 608 q 361 697 271 697 q 482 661 433 697 q 557 561 531 625 l 565 565 q 503 706 549 638 q 396 833 458 775 l 281 758 l 226 826 l 329 894 q 232 966 282 932 q 131 1028 182 1000 l 363 1028 q 403 1001 382 1015 q 444 968 424 986 l 561 1046 m 396 104 q 489 127 450 104 q 550 194 528 150 q 572 297 572 238 l 572 382 q 550 487 572 443 q 489 553 528 531 q 396 576 450 576 q 303 553 343 576 q 242 487 264 531 q 221 382 221 443 l 221 297 q 242 194 221 238 q 303 127 264 150 q 396 104 343 104 z "},"é":{"ha":771,"x_min":58,"x_max":711,"o":"m 393 -17 q 215 30 290 -17 q 99 161 140 76 q 58 361 58 246 q 99 560 58 476 q 213 692 139 644 q 389 739 286 739 q 567 691 496 739 q 675 561 639 643 q 711 379 711 479 l 711 322 l 217 322 l 217 299 q 266 162 217 215 q 407 108 315 108 q 519 138 474 108 q 596 217 565 167 l 686 129 q 569 24 644 64 q 393 -17 493 -17 m 392 621 q 299 597 339 621 q 238 530 260 572 q 217 432 217 488 l 217 422 l 553 422 l 553 436 q 533 533 553 492 q 478 598 514 575 q 392 621 442 621 m 571 1040 l 407 808 l 313 854 l 439 1104 l 571 1040 z "},"ĕ":{"ha":771,"x_min":58,"x_max":711,"o":"m 393 -17 q 215 30 290 -17 q 99 161 140 76 q 58 361 58 246 q 99 560 58 476 q 213 692 139 644 q 389 739 286 739 q 567 691 496 739 q 675 561 639 643 q 711 379 711 479 l 711 322 l 217 322 l 217 299 q 266 162 217 215 q 407 108 315 108 q 519 138 474 108 q 596 217 565 167 l 686 129 q 569 24 644 64 q 393 -17 493 -17 m 392 621 q 299 597 339 621 q 238 530 260 572 q 217 432 217 488 l 217 422 l 553 422 l 553 436 q 533 533 553 492 q 478 598 514 575 q 392 621 442 621 m 392 818 q 294 837 333 818 q 228 886 254 856 q 185 951 201 917 q 158 1018 169 985 l 242 1060 l 271 1014 q 320 953 294 976 q 392 929 346 929 q 464 953 438 929 q 514 1014 490 976 l 542 1060 l 625 1018 q 598 951 614 985 q 555 886 582 917 q 488 837 528 856 q 392 818 449 818 z "},"ě":{"ha":771,"x_min":58,"x_max":711,"o":"m 393 -17 q 215 30 290 -17 q 99 161 140 76 q 58 361 58 246 q 99 560 58 476 q 213 692 139 644 q 389 739 286 739 q 567 691 496 739 q 675 561 639 643 q 711 379 711 479 l 711 322 l 217 322 l 217 299 q 266 162 217 215 q 407 108 315 108 q 519 138 474 108 q 596 217 565 167 l 686 129 q 569 24 644 64 q 393 -17 493 -17 m 392 621 q 299 597 339 621 q 238 530 260 572 q 217 432 217 488 l 217 422 l 553 422 l 553 436 q 533 533 553 492 q 478 598 514 575 q 392 621 442 621 m 468 825 l 315 825 l 149 1033 l 226 1092 l 392 931 l 557 1092 l 635 1033 l 468 825 z "},"ê":{"ha":771,"x_min":58,"x_max":711,"o":"m 393 -17 q 215 30 290 -17 q 99 161 140 76 q 58 361 58 246 q 99 560 58 476 q 213 692 139 644 q 389 739 286 739 q 567 691 496 739 q 675 561 639 643 q 711 379 711 479 l 711 322 l 217 322 l 217 299 q 266 162 217 215 q 407 108 315 108 q 519 138 474 108 q 596 217 565 167 l 686 129 q 569 24 644 64 q 393 -17 493 -17 m 392 621 q 299 597 339 621 q 238 530 260 572 q 217 432 217 488 l 217 422 l 553 422 l 553 436 q 533 533 553 492 q 478 598 514 575 q 392 621 442 621 m 315 1081 l 468 1081 l 635 872 l 557 813 l 392 975 l 226 813 l 149 872 l 315 1081 z "},"ë":{"ha":771,"x_min":58,"x_max":711,"o":"m 393 -17 q 215 30 290 -17 q 99 161 140 76 q 58 361 58 246 q 99 560 58 476 q 213 692 139 644 q 389 739 286 739 q 567 691 496 739 q 675 561 639 643 q 711 379 711 479 l 711 322 l 217 322 l 217 299 q 266 162 217 215 q 407 108 315 108 q 519 138 474 108 q 596 217 565 167 l 686 129 q 569 24 644 64 q 393 -17 493 -17 m 392 621 q 299 597 339 621 q 238 530 260 572 q 217 432 217 488 l 217 422 l 553 422 l 553 436 q 533 533 553 492 q 478 598 514 575 q 392 621 442 621 m 253 847 q 186 868 206 847 q 167 922 167 889 l 167 946 q 186 999 167 978 q 253 1019 206 1019 q 319 999 300 1019 q 339 946 339 978 l 339 922 q 319 868 339 889 q 253 847 300 847 m 531 847 q 465 868 485 847 q 444 922 444 889 l 444 946 q 465 999 444 978 q 531 1019 485 1019 q 597 999 578 1019 q 617 946 617 978 l 617 922 q 597 868 617 889 q 531 847 578 847 z "},"ė":{"ha":771,"x_min":58,"x_max":711,"o":"m 393 -17 q 215 30 290 -17 q 99 161 140 76 q 58 361 58 246 q 99 560 58 476 q 213 692 139 644 q 389 739 286 739 q 567 691 496 739 q 675 561 639 643 q 711 379 711 479 l 711 322 l 217 322 l 217 299 q 266 162 217 215 q 407 108 315 108 q 519 138 474 108 q 596 217 565 167 l 686 129 q 569 24 644 64 q 393 -17 493 -17 m 392 621 q 299 597 339 621 q 238 530 260 572 q 217 432 217 488 l 217 422 l 553 422 l 553 436 q 533 533 553 492 q 478 598 514 575 q 392 621 442 621 m 392 840 q 321 863 343 840 q 299 919 299 885 l 299 944 q 321 1001 299 979 q 392 1024 343 1024 q 463 1001 442 1024 q 485 944 485 979 l 485 919 q 463 863 485 885 q 392 840 442 840 z "},"ẹ":{"ha":771,"x_min":58,"x_max":711,"o":"m 393 -17 q 215 30 290 -17 q 99 161 140 76 q 58 361 58 246 q 99 560 58 476 q 213 692 139 644 q 389 739 286 739 q 567 691 496 739 q 675 561 639 643 q 711 379 711 479 l 711 322 l 217 322 l 217 299 q 266 162 217 215 q 407 108 315 108 q 519 138 474 108 q 596 217 565 167 l 686 129 q 569 24 644 64 q 393 -17 493 -17 m 392 621 q 299 597 339 621 q 238 530 260 572 q 217 432 217 488 l 217 422 l 553 422 l 553 436 q 533 533 553 492 q 478 598 514 575 q 392 621 442 621 m 393 -256 q 326 -235 347 -256 q 304 -182 304 -214 l 304 -157 q 326 -104 304 -125 q 393 -83 347 -83 q 461 -104 440 -83 q 482 -157 482 -125 l 482 -182 q 461 -235 482 -214 q 393 -256 440 -256 z "},"è":{"ha":771,"x_min":58,"x_max":711,"o":"m 393 -17 q 215 30 290 -17 q 99 161 140 76 q 58 361 58 246 q 99 560 58 476 q 213 692 139 644 q 389 739 286 739 q 567 691 496 739 q 675 561 639 643 q 711 379 711 479 l 711 322 l 217 322 l 217 299 q 266 162 217 215 q 407 108 315 108 q 519 138 474 108 q 596 217 565 167 l 686 129 q 569 24 644 64 q 393 -17 493 -17 m 392 621 q 299 597 339 621 q 238 530 260 572 q 217 432 217 488 l 217 422 l 553 422 l 553 436 q 533 533 553 492 q 478 598 514 575 q 392 621 442 621 m 376 808 l 213 1040 l 344 1104 l 471 854 l 376 808 z "},"ẻ":{"ha":771,"x_min":58,"x_max":711,"o":"m 393 -17 q 215 30 290 -17 q 99 161 140 76 q 58 361 58 246 q 99 560 58 476 q 213 692 139 644 q 389 739 286 739 q 567 691 496 739 q 675 561 639 643 q 711 379 711 479 l 711 322 l 217 322 l 217 299 q 266 162 217 215 q 407 108 315 108 q 519 138 474 108 q 596 217 565 167 l 686 129 q 569 24 644 64 q 393 -17 493 -17 m 392 621 q 299 597 339 621 q 238 530 260 572 q 217 432 217 488 l 217 422 l 553 422 l 553 436 q 533 533 553 492 q 478 598 514 575 q 392 621 442 621 m 254 974 l 254 1085 l 425 1085 q 514 1059 489 1085 q 539 997 539 1033 q 519 922 539 963 q 467 840 500 882 l 431 797 l 350 836 l 419 974 l 254 974 z "},"ē":{"ha":771,"x_min":58,"x_max":711,"o":"m 393 -17 q 215 30 290 -17 q 99 161 140 76 q 58 361 58 246 q 99 560 58 476 q 213 692 139 644 q 389 739 286 739 q 567 691 496 739 q 675 561 639 643 q 711 379 711 479 l 711 322 l 217 322 l 217 299 q 266 162 217 215 q 407 108 315 108 q 519 138 474 108 q 596 217 565 167 l 686 129 q 569 24 644 64 q 393 -17 493 -17 m 392 621 q 299 597 339 621 q 238 530 260 572 q 217 432 217 488 l 217 422 l 553 422 l 553 436 q 533 533 553 492 q 478 598 514 575 q 392 621 442 621 m 189 876 l 189 992 l 594 992 l 594 876 l 189 876 z "},"ę":{"ha":771,"x_min":58,"x_max":711,"o":"m 482 -290 q 409 -279 443 -290 q 356 -244 375 -268 q 336 -179 336 -219 q 356 -108 336 -139 q 410 -53 376 -78 q 485 -7 444 -28 l 481 -1 q 440 -12 463 -8 q 390 -17 418 -17 q 213 30 288 -17 q 99 161 139 76 q 58 361 58 246 q 99 560 58 476 q 213 692 139 644 q 389 739 286 739 q 567 691 496 739 q 675 561 639 643 q 711 379 711 479 l 711 322 l 217 322 l 217 299 q 266 162 217 215 q 408 108 315 108 q 521 138 474 108 q 597 217 568 168 l 686 129 q 652 88 674 108 q 596 36 631 67 q 544 -13 571 11 q 496 -62 518 -37 q 459 -110 474 -86 q 444 -160 444 -135 q 459 -194 444 -183 q 492 -204 474 -204 q 532 -194 514 -204 q 563 -168 550 -183 l 625 -229 q 574 -273 610 -256 q 482 -290 539 -290 m 217 422 l 553 422 l 553 436 q 533 533 553 492 q 478 598 514 575 q 392 621 442 621 q 299 597 339 621 q 238 530 260 572 q 217 432 217 488 l 217 422 z "},"ẽ":{"ha":771,"x_min":58,"x_max":711,"o":"m 393 -17 q 215 30 290 -17 q 99 161 140 76 q 58 361 58 246 q 99 560 58 476 q 213 692 139 644 q 389 739 286 739 q 567 691 496 739 q 675 561 639 643 q 711 379 711 479 l 711 322 l 217 322 l 217 299 q 266 162 217 215 q 407 108 315 108 q 519 138 474 108 q 596 217 565 167 l 686 129 q 569 24 644 64 q 393 -17 493 -17 m 392 621 q 299 597 339 621 q 238 530 260 572 q 217 432 217 488 l 217 422 l 553 422 l 553 436 q 533 533 553 492 q 478 598 514 575 q 392 621 442 621 m 494 843 q 435 854 461 843 q 386 876 410 865 q 329 900 353 892 q 283 908 306 908 q 242 899 261 908 q 203 872 224 890 l 146 944 q 202 1000 167 976 q 289 1024 238 1024 q 348 1013 322 1024 q 397 992 374 1003 q 454 968 431 976 q 500 960 478 960 q 542 969 524 960 q 581 996 560 978 l 638 924 q 581 867 617 892 q 494 843 546 843 z "},"ế":{"ha":771,"x_min":58,"x_max":781,"o":"m 393 -17 q 215 30 290 -17 q 99 161 140 76 q 58 361 58 246 q 99 560 58 476 q 213 692 139 644 q 389 739 286 739 q 567 691 496 739 q 675 561 639 643 q 711 379 711 479 l 711 322 l 217 322 l 217 299 q 266 162 217 215 q 407 108 315 108 q 519 138 474 108 q 596 217 565 167 l 686 129 q 569 24 644 64 q 393 -17 493 -17 m 392 621 q 299 597 339 621 q 238 530 260 572 q 217 432 217 488 l 217 422 l 553 422 l 553 436 q 533 533 553 492 q 478 598 514 575 q 392 621 442 621 m 781 1221 l 617 990 l 531 1032 l 657 1282 l 781 1221 m 324 1056 l 460 1056 l 633 863 l 560 800 l 392 951 l 224 800 l 150 863 l 324 1056 z "},"ệ":{"ha":771,"x_min":58,"x_max":711,"o":"m 393 -17 q 215 30 290 -17 q 99 161 140 76 q 58 361 58 246 q 99 560 58 476 q 213 692 139 644 q 389 739 286 739 q 567 691 496 739 q 675 561 639 643 q 711 379 711 479 l 711 322 l 217 322 l 217 299 q 266 162 217 215 q 407 108 315 108 q 519 138 474 108 q 596 217 565 167 l 686 129 q 569 24 644 64 q 393 -17 493 -17 m 392 621 q 299 597 339 621 q 238 530 260 572 q 217 432 217 488 l 217 422 l 553 422 l 553 436 q 533 533 553 492 q 478 598 514 575 q 392 621 442 621 m 315 1081 l 468 1081 l 635 872 l 557 813 l 392 975 l 226 813 l 149 872 l 315 1081 m 393 -256 q 326 -235 347 -256 q 304 -182 304 -214 l 304 -157 q 326 -104 304 -125 q 393 -83 347 -83 q 461 -104 440 -83 q 482 -157 482 -125 l 482 -182 q 461 -235 482 -214 q 393 -256 440 -256 z "},"ề":{"ha":771,"x_min":3,"x_max":711,"o":"m 393 -17 q 215 30 290 -17 q 99 161 140 76 q 58 361 58 246 q 99 560 58 476 q 213 692 139 644 q 389 739 286 739 q 567 691 496 739 q 675 561 639 643 q 711 379 711 479 l 711 322 l 217 322 l 217 299 q 266 162 217 215 q 407 108 315 108 q 519 138 474 108 q 596 217 565 167 l 686 129 q 569 24 644 64 q 393 -17 493 -17 m 392 621 q 299 597 339 621 q 238 530 260 572 q 217 432 217 488 l 217 422 l 553 422 l 553 436 q 533 533 553 492 q 478 598 514 575 q 392 621 442 621 m 167 990 l 3 1221 l 126 1282 l 253 1032 l 167 990 m 324 1056 l 460 1056 l 633 863 l 560 800 l 392 951 l 224 800 l 150 863 l 324 1056 z "},"ể":{"ha":771,"x_min":58,"x_max":735,"o":"m 393 -17 q 215 30 290 -17 q 99 161 140 76 q 58 361 58 246 q 99 560 58 476 q 213 692 139 644 q 389 739 286 739 q 567 691 496 739 q 675 561 639 643 q 711 379 711 479 l 711 322 l 217 322 l 217 299 q 266 162 217 215 q 407 108 315 108 q 519 138 474 108 q 596 217 565 167 l 686 129 q 569 24 644 64 q 393 -17 493 -17 m 392 621 q 299 597 339 621 q 238 530 260 572 q 217 432 217 488 l 217 422 l 553 422 l 553 436 q 533 533 553 492 q 478 598 514 575 q 392 621 442 621 m 454 1158 l 454 1265 l 621 1265 q 709 1240 683 1265 q 735 1178 735 1214 q 713 1103 735 1143 q 658 1021 690 1063 l 622 978 l 549 1017 l 622 1158 l 454 1158 m 324 1056 l 460 1056 l 633 863 l 560 800 l 392 951 l 224 800 l 150 863 l 324 1056 z "},"ễ":{"ha":771,"x_min":58,"x_max":711,"o":"m 393 -17 q 215 30 290 -17 q 99 161 140 76 q 58 361 58 246 q 99 560 58 476 q 213 692 139 644 q 389 739 286 739 q 567 691 496 739 q 675 561 639 643 q 711 379 711 479 l 711 322 l 217 322 l 217 299 q 266 162 217 215 q 407 108 315 108 q 519 138 474 108 q 596 217 565 167 l 686 129 q 569 24 644 64 q 393 -17 493 -17 m 392 621 q 299 597 339 621 q 238 530 260 572 q 217 432 217 488 l 217 422 l 553 422 l 553 436 q 533 533 553 492 q 478 598 514 575 q 392 621 442 621 m 290 1263 q 349 1251 324 1263 q 399 1229 375 1240 q 456 1206 432 1214 q 501 1197 479 1197 q 543 1206 525 1197 q 582 1233 561 1215 l 636 1167 q 580 1111 615 1135 q 493 1088 544 1088 q 434 1098 460 1088 q 385 1119 408 1108 q 328 1143 351 1135 q 282 1151 304 1151 q 241 1142 260 1151 q 201 1115 222 1133 l 147 1182 q 203 1238 168 1214 q 290 1263 239 1263 m 324 1049 l 460 1049 l 632 863 l 560 800 l 392 946 l 224 800 l 151 863 l 324 1049 z "},"ə":{"ha":771,"x_min":58,"x_max":711,"o":"m 58 399 l 554 399 l 554 424 q 506 560 554 507 q 367 614 457 614 q 252 583 297 614 q 179 506 207 553 l 89 593 q 206 699 131 660 q 381 739 281 739 q 557 692 483 739 q 671 561 631 646 q 711 361 711 476 q 672 161 711 246 q 558 30 632 76 q 381 -17 483 -17 q 203 31 275 -17 q 94 161 131 79 q 58 343 58 243 l 58 399 m 218 300 l 218 286 q 238 189 218 231 q 293 124 257 147 q 379 101 329 101 q 471 126 432 101 q 532 192 510 150 q 554 289 554 235 l 554 300 l 218 300 z "},"ğ":{"ha":756,"x_min":47,"x_max":743,"o":"m 743 -68 q 705 -194 743 -143 q 586 -269 667 -244 q 375 -294 506 -294 q 185 -274 258 -294 q 80 -214 113 -253 q 47 -121 47 -175 q 80 -27 47 -61 q 171 18 113 7 l 171 33 q 110 75 131 46 q 89 144 89 104 q 127 230 89 200 q 218 272 165 260 l 218 278 q 119 364 153 308 q 85 492 85 419 q 119 621 85 565 q 217 708 153 676 q 372 739 282 739 q 435 735 404 739 q 493 722 467 731 l 725 722 l 725 613 l 624 613 l 624 610 q 651 563 639 594 q 663 492 663 531 q 628 364 663 419 q 530 278 594 308 q 374 247 465 247 q 323 250 347 247 q 279 258 299 253 q 232 231 253 249 q 211 186 211 214 q 237 144 211 157 q 311 132 263 132 l 489 132 q 683 79 622 132 q 743 -68 743 26 m 374 356 q 477 386 440 356 q 514 478 514 417 l 514 507 q 477 599 514 568 q 374 629 440 629 q 270 599 307 629 q 233 507 233 568 l 233 478 q 270 386 233 417 q 374 356 307 356 m 601 -85 q 572 -24 601 -46 q 468 -3 542 -3 l 224 -3 q 187 -38 199 -17 q 175 -86 175 -60 q 210 -157 175 -129 q 329 -185 244 -185 l 424 -185 q 557 -160 513 -185 q 601 -85 601 -135 m 375 818 q 277 837 317 818 q 211 886 238 856 q 169 951 185 917 q 142 1018 153 985 l 225 1060 l 254 1014 q 303 953 278 976 q 375 929 329 929 q 447 953 421 929 q 497 1014 474 976 l 525 1060 l 608 1018 q 581 951 597 985 q 538 886 565 917 q 472 837 511 856 q 375 818 432 818 z "},"ĝ":{"ha":756,"x_min":47,"x_max":743,"o":"m 743 -68 q 705 -194 743 -143 q 586 -269 667 -244 q 375 -294 506 -294 q 185 -274 258 -294 q 80 -214 113 -253 q 47 -121 47 -175 q 80 -27 47 -61 q 171 18 113 7 l 171 33 q 110 75 131 46 q 89 144 89 104 q 127 230 89 200 q 218 272 165 260 l 218 278 q 119 364 153 308 q 85 492 85 419 q 119 621 85 565 q 217 708 153 676 q 372 739 282 739 q 435 735 404 739 q 493 722 467 731 l 725 722 l 725 613 l 624 613 l 624 610 q 651 563 639 594 q 663 492 663 531 q 628 364 663 419 q 530 278 594 308 q 374 247 465 247 q 323 250 347 247 q 279 258 299 253 q 232 231 253 249 q 211 186 211 214 q 237 144 211 157 q 311 132 263 132 l 489 132 q 683 79 622 132 q 743 -68 743 26 m 374 356 q 477 386 440 356 q 514 478 514 417 l 514 507 q 477 599 514 568 q 374 629 440 629 q 270 599 307 629 q 233 507 233 568 l 233 478 q 270 386 233 417 q 374 356 307 356 m 601 -85 q 572 -24 601 -46 q 468 -3 542 -3 l 224 -3 q 187 -38 199 -17 q 175 -86 175 -60 q 210 -157 175 -129 q 329 -185 244 -185 l 424 -185 q 557 -160 513 -185 q 601 -85 601 -135 m 300 1081 l 453 1081 l 619 872 l 542 813 l 376 975 l 211 813 l 133 872 l 300 1081 z "},"ģ":{"ha":756,"x_min":47,"x_max":743,"o":"m 743 -68 q 705 -194 743 -143 q 586 -269 667 -244 q 375 -294 506 -294 q 185 -274 258 -294 q 80 -214 113 -253 q 47 -121 47 -175 q 80 -27 47 -61 q 171 18 113 7 l 171 33 q 110 75 131 46 q 89 144 89 104 q 127 230 89 200 q 218 272 165 260 l 218 278 q 119 364 153 308 q 85 492 85 419 q 119 621 85 565 q 217 708 153 676 q 372 739 282 739 q 435 735 404 739 q 493 722 467 731 l 725 722 l 725 613 l 624 613 l 624 610 q 651 563 639 594 q 663 492 663 531 q 628 364 663 419 q 530 278 594 308 q 374 247 465 247 q 323 250 347 247 q 279 258 299 253 q 232 231 253 249 q 211 186 211 214 q 237 144 211 157 q 311 132 263 132 l 489 132 q 683 79 622 132 q 743 -68 743 26 m 374 356 q 477 386 440 356 q 514 478 514 417 l 514 507 q 477 599 514 568 q 374 629 440 629 q 270 599 307 629 q 233 507 233 568 l 233 478 q 270 386 233 417 q 374 356 307 356 m 601 -85 q 572 -24 601 -46 q 468 -3 542 -3 l 224 -3 q 187 -38 199 -17 q 175 -86 175 -60 q 210 -157 175 -129 q 329 -185 244 -185 l 424 -185 q 557 -160 513 -185 q 601 -85 601 -135 m 375 815 q 315 835 336 815 q 293 889 293 854 l 293 907 q 319 1013 293 961 q 381 1096 344 1064 l 476 1096 q 428 1039 446 1067 q 400 975 410 1011 q 444 951 431 971 q 457 904 457 931 l 457 889 q 435 835 457 854 q 375 815 414 815 z "},"ġ":{"ha":756,"x_min":47,"x_max":743,"o":"m 743 -68 q 705 -194 743 -143 q 586 -269 667 -244 q 375 -294 506 -294 q 185 -274 258 -294 q 80 -214 113 -253 q 47 -121 47 -175 q 80 -27 47 -61 q 171 18 113 7 l 171 33 q 110 75 131 46 q 89 144 89 104 q 127 230 89 200 q 218 272 165 260 l 218 278 q 119 364 153 308 q 85 492 85 419 q 119 621 85 565 q 217 708 153 676 q 372 739 282 739 q 435 735 404 739 q 493 722 467 731 l 725 722 l 725 613 l 624 613 l 624 610 q 651 563 639 594 q 663 492 663 531 q 628 364 663 419 q 530 278 594 308 q 374 247 465 247 q 323 250 347 247 q 279 258 299 253 q 232 231 253 249 q 211 186 211 214 q 237 144 211 157 q 311 132 263 132 l 489 132 q 683 79 622 132 q 743 -68 743 26 m 374 356 q 477 386 440 356 q 514 478 514 417 l 514 507 q 477 599 514 568 q 374 629 440 629 q 270 599 307 629 q 233 507 233 568 l 233 478 q 270 386 233 417 q 374 356 307 356 m 601 -85 q 572 -24 601 -46 q 468 -3 542 -3 l 224 -3 q 187 -38 199 -17 q 175 -86 175 -60 q 210 -157 175 -129 q 329 -185 244 -185 l 424 -185 q 557 -160 513 -185 q 601 -85 601 -135 m 374 840 q 303 863 325 840 q 281 919 281 885 l 281 944 q 303 1001 281 979 q 374 1024 325 1024 q 445 1001 424 1024 q 467 944 467 979 l 467 919 q 445 863 467 885 q 374 840 424 840 z "},"ħ":{"ha":806,"x_min":21,"x_max":704,"o":"m 260 0 l 108 0 l 108 833 l 21 833 l 21 943 l 108 943 l 108 1028 l 260 1028 l 260 943 l 463 943 l 463 833 l 260 833 l 260 603 l 267 603 q 338 700 290 661 q 469 739 386 739 q 642 665 581 739 q 704 458 704 592 l 704 0 l 553 0 l 553 440 q 520 567 553 525 q 417 610 488 610 q 341 597 376 610 q 283 556 306 583 q 260 486 260 528 l 260 0 z "},"ĥ":{"ha":806,"x_min":-57,"x_max":704,"o":"m 108 0 l 108 1028 l 260 1028 l 260 603 l 267 603 q 338 700 290 661 q 469 739 386 739 q 642 665 581 739 q 704 458 704 592 l 704 0 l 553 0 l 553 440 q 520 567 553 525 q 417 610 488 610 q 341 597 376 610 q 283 556 306 583 q 260 486 260 528 l 260 0 l 108 0 m 110 1300 l 263 1300 l 429 1092 l 351 1032 l 186 1194 l 21 1032 l -57 1092 l 110 1300 z "},"ı":{"ha":368,"x_min":108,"x_max":260,"o":"m 260 0 l 108 0 l 108 722 l 260 722 l 260 0 z "},"í":{"ha":368,"x_min":106,"x_max":363,"o":"m 260 0 l 108 0 l 108 722 l 260 722 l 260 0 m 364 1040 l 200 808 l 106 854 l 232 1104 l 364 1040 z "},"ĭ":{"ha":368,"x_min":-50,"x_max":418,"o":"m 260 0 l 108 0 l 108 722 l 260 722 l 260 0 m 185 818 q 87 837 126 818 q 21 886 47 856 q -22 951 -6 917 q -49 1018 -37 985 l 35 1060 l 64 1014 q 113 953 88 976 q 185 929 139 929 q 257 953 231 929 q 307 1014 283 976 l 335 1060 l 418 1018 q 391 951 407 985 q 348 886 375 917 q 281 837 321 856 q 185 818 242 818 z "},"ǐ":{"ha":368,"x_min":-58,"x_max":428,"o":"m 260 0 l 108 0 l 108 722 l 260 722 l 260 0 m 261 825 l 108 825 l -58 1033 l 19 1092 l 185 931 l 350 1092 l 428 1033 l 261 825 z "},"î":{"ha":368,"x_min":-58,"x_max":428,"o":"m 260 0 l 108 0 l 108 722 l 260 722 l 260 0 m 108 1081 l 261 1081 l 428 872 l 350 813 l 185 975 l 19 813 l -58 872 l 108 1081 z "},"ï":{"ha":368,"x_min":-42,"x_max":410,"o":"m 260 0 l 108 0 l 108 722 l 260 722 l 260 0 m 46 847 q -21 868 -1 847 q -40 922 -40 889 l -40 946 q -21 999 -40 978 q 46 1019 -1 1019 q 113 999 93 1019 q 132 946 132 978 l 132 922 q 113 868 132 889 q 46 847 93 847 m 324 847 q 258 868 278 847 q 238 922 238 889 l 238 946 q 258 999 238 978 q 324 1019 278 1019 q 390 999 371 1019 q 410 946 410 978 l 410 922 q 390 868 410 889 q 324 847 371 847 z "},"ị":{"ha":368,"x_min":94,"x_max":274,"o":"m 185 851 q 116 874 138 851 q 94 931 94 896 l 94 954 q 116 1011 94 989 q 185 1033 138 1033 q 253 1011 232 1033 q 274 954 274 989 l 274 931 q 253 874 274 896 q 185 851 232 851 m 108 0 l 108 722 l 260 722 l 260 0 l 108 0 m 185 -256 q 117 -235 139 -256 q 96 -182 96 -214 l 96 -157 q 117 -104 96 -125 q 185 -83 139 -83 q 253 -104 232 -83 q 274 -157 274 -125 l 274 -182 q 253 -235 274 -214 q 185 -256 232 -256 z "},"ì":{"ha":368,"x_min":6,"x_max":263,"o":"m 260 0 l 108 0 l 108 722 l 260 722 l 260 0 m 169 808 l 6 1040 l 138 1104 l 264 854 l 169 808 z "},"ỉ":{"ha":368,"x_min":46,"x_max":332,"o":"m 260 0 l 108 0 l 108 722 l 260 722 l 260 0 m 47 974 l 47 1085 l 218 1085 q 307 1059 282 1085 q 332 997 332 1033 q 313 922 332 963 q 260 840 293 882 l 224 797 l 143 836 l 213 974 l 47 974 z "},"ī":{"ha":368,"x_min":-18,"x_max":386,"o":"m 260 0 l 108 0 l 108 722 l 260 722 l 260 0 m -18 876 l -18 992 l 388 992 l 388 876 l -18 876 z "},"į":{"ha":368,"x_min":4,"x_max":296,"o":"m 108 722 l 260 722 l 260 0 q 166 -78 197 -49 q 124 -126 135 -107 q 114 -160 114 -144 q 128 -194 114 -185 q 161 -204 143 -204 q 201 -194 183 -204 q 232 -168 219 -183 l 296 -229 q 245 -273 281 -256 q 153 -290 210 -290 q 79 -279 113 -290 q 25 -244 46 -268 q 4 -179 4 -219 q 24 -112 4 -142 q 78 -56 44 -82 q 156 -6 113 -31 l 156 0 l 108 0 l 108 722 m 185 851 q 116 874 138 851 q 94 931 94 896 l 94 954 q 116 1011 94 989 q 185 1033 138 1033 q 253 1011 232 1033 q 274 954 274 989 l 274 931 q 253 874 274 896 q 185 851 232 851 z "},"ĩ":{"ha":368,"x_min":-37,"x_max":407,"o":"m 260 0 l 108 0 l 108 722 l 260 722 l 260 0 m 274 847 q 222 856 244 847 q 179 876 200 865 q 134 897 153 889 q 93 906 115 906 q 56 897 74 906 q 19 871 38 888 l -37 940 q 16 997 -17 972 q 96 1021 49 1021 q 148 1011 125 1021 q 190 992 171 1001 q 236 970 217 978 q 276 963 256 963 q 314 971 296 963 q 350 997 332 979 l 407 928 q 354 872 388 896 q 274 847 321 847 z "},"ĳ":{"ha":731,"x_min":94,"x_max":636,"o":"m 185 851 q 116 874 138 851 q 94 931 94 896 l 94 954 q 116 1011 94 989 q 185 1033 138 1033 q 253 1011 232 1033 q 274 954 274 989 l 274 931 q 253 874 274 896 q 185 851 232 851 m 108 0 l 108 722 l 260 722 l 260 0 l 108 0 m 471 -154 l 471 722 l 622 722 l 622 -97 q 580 -229 622 -181 q 446 -278 538 -278 l 358 -278 l 358 -154 l 471 -154 m 547 851 q 478 874 500 851 q 457 931 457 896 l 457 954 q 478 1011 457 989 q 547 1033 500 1033 q 615 1011 594 1033 q 636 954 636 989 l 636 931 q 615 874 636 896 q 547 851 594 851 z "},"ȷ":{"ha":368,"x_min":-4,"x_max":260,"o":"m -4 -278 l -4 -154 l 108 -154 l 108 722 l 260 722 l 260 -97 q 217 -229 260 -181 q 83 -278 175 -278 l -4 -278 z "},"ĵ":{"ha":368,"x_min":-58,"x_max":428,"o":"m -4 -278 l -4 -154 l 108 -154 l 108 722 l 260 722 l 260 -97 q 217 -229 260 -181 q 83 -278 175 -278 l -4 -278 m 108 1081 l 261 1081 l 428 872 l 350 813 l 185 975 l 19 813 l -58 872 l 108 1081 z "},"ķ":{"ha":761,"x_min":108,"x_max":749,"o":"m 108 0 l 108 1028 l 260 1028 l 260 535 l 260 396 l 267 396 l 368 524 l 547 722 l 721 722 l 465 440 l 749 0 l 567 0 l 361 340 l 260 235 l 260 0 l 108 0 m 425 -78 q 485 -97 464 -78 q 507 -151 507 -117 l 507 -168 q 481 -274 507 -224 q 419 -358 456 -325 l 322 -358 q 372 -301 354 -328 q 400 -237 390 -274 q 356 -212 369 -233 q 342 -167 342 -192 l 342 -151 q 363 -97 342 -117 q 425 -78 385 -78 z "},"ĸ":{"ha":761,"x_min":108,"x_max":749,"o":"m 568 0 l 360 339 l 260 235 l 260 0 l 108 0 l 108 722 l 260 722 l 260 532 l 260 397 l 267 397 l 371 522 l 556 722 l 732 722 l 467 440 l 749 0 l 568 0 z "},"ĺ":{"ha":396,"x_min":106,"x_max":363,"o":"m 360 0 l 264 0 q 147 41 186 0 q 108 151 108 82 l 108 1028 l 260 1028 l 260 124 l 360 124 l 360 0 m 364 1318 l 200 1086 l 106 1132 l 232 1382 l 364 1318 z "},"ľ":{"ha":432,"x_min":108,"x_max":521,"o":"m 360 0 l 264 0 q 147 41 186 0 q 108 151 108 82 l 108 1028 l 260 1028 l 260 124 l 360 124 l 360 0 m 521 1028 l 440 753 l 340 753 l 354 1028 l 521 1028 z "},"ļ":{"ha":396,"x_min":108,"x_max":360,"o":"m 360 0 l 264 0 q 147 41 186 0 q 108 151 108 82 l 108 1028 l 260 1028 l 260 124 l 360 124 l 360 0 m 235 -78 q 295 -97 274 -78 q 317 -151 317 -117 l 317 -168 q 291 -274 317 -224 q 229 -358 265 -325 l 132 -358 q 182 -301 164 -328 q 210 -237 200 -274 q 165 -212 179 -233 q 151 -167 151 -192 l 151 -151 q 173 -97 151 -117 q 235 -78 194 -78 z "},"ŀ":{"ha":550,"x_min":108,"x_max":550,"o":"m 360 0 l 264 0 q 147 41 186 0 q 108 151 108 82 l 108 1028 l 260 1028 l 260 124 l 360 124 l 360 0 m 457 363 q 386 385 408 363 q 364 442 364 407 l 364 467 q 386 524 364 501 q 457 546 408 546 q 528 524 507 546 q 550 467 550 501 l 550 442 q 528 385 550 407 q 457 363 507 363 z "},"ł":{"ha":407,"x_min":13,"x_max":410,"o":"m 365 124 l 365 0 l 269 0 q 153 41 192 0 q 114 151 114 82 l 114 433 l 13 400 l 13 519 l 114 553 l 114 1028 l 265 1028 l 265 603 l 410 650 l 410 531 l 265 483 l 265 124 l 365 124 z "},"ń":{"ha":806,"x_min":108,"x_max":704,"o":"m 260 0 l 108 0 l 108 722 l 260 722 l 260 603 l 267 603 q 338 700 290 661 q 469 739 386 739 q 642 665 581 739 q 704 458 704 592 l 704 0 l 553 0 l 553 440 q 520 567 553 525 q 417 610 488 610 q 341 597 376 610 q 283 556 306 583 q 260 486 260 528 l 260 0 m 586 1040 l 422 808 l 328 854 l 454 1104 l 586 1040 z "},"ň":{"ha":806,"x_min":108,"x_max":704,"o":"m 260 0 l 108 0 l 108 722 l 260 722 l 260 603 l 267 603 q 338 700 290 661 q 469 739 386 739 q 642 665 581 739 q 704 458 704 592 l 704 0 l 553 0 l 553 440 q 520 567 553 525 q 417 610 488 610 q 341 597 376 610 q 283 556 306 583 q 260 486 260 528 l 260 0 m 483 825 l 331 825 l 164 1033 l 242 1092 l 407 931 l 572 1092 l 650 1033 l 483 825 z "},"ņ":{"ha":806,"x_min":108,"x_max":704,"o":"m 260 0 l 108 0 l 108 722 l 260 722 l 260 603 l 267 603 q 338 700 290 661 q 469 739 386 739 q 642 665 581 739 q 704 458 704 592 l 704 0 l 553 0 l 553 440 q 520 567 553 525 q 417 610 488 610 q 341 597 376 610 q 283 556 306 583 q 260 486 260 528 l 260 0 m 407 -78 q 467 -97 446 -78 q 489 -151 489 -117 l 489 -168 q 463 -274 489 -224 q 401 -358 438 -325 l 304 -358 q 354 -301 336 -328 q 382 -237 372 -274 q 338 -212 351 -233 q 324 -167 324 -192 l 324 -151 q 345 -97 324 -117 q 407 -78 367 -78 z "},"ñ":{"ha":806,"x_min":108,"x_max":704,"o":"m 260 0 l 108 0 l 108 722 l 260 722 l 260 603 l 267 603 q 338 700 290 661 q 469 739 386 739 q 642 665 581 739 q 704 458 704 592 l 704 0 l 553 0 l 553 440 q 520 567 553 525 q 417 610 488 610 q 341 597 376 610 q 283 556 306 583 q 260 486 260 528 l 260 0 m 510 843 q 451 854 476 843 q 401 876 425 865 q 344 900 368 892 q 299 908 321 908 q 258 899 276 908 q 218 872 239 890 l 161 944 q 217 1000 182 976 q 304 1024 253 1024 q 363 1013 338 1024 q 413 992 389 1003 q 469 968 446 976 q 515 960 493 960 q 557 969 539 960 q 596 996 575 978 l 653 924 q 597 867 632 892 q 510 843 561 843 z "},"ŉ":{"ha":1171,"x_min":57,"x_max":1069,"o":"m 203 1042 q 278 1017 254 1042 q 301 951 301 992 l 301 928 q 264 789 301 863 q 165 665 226 715 l 57 665 q 128 749 100 708 q 171 840 157 790 q 119 872 136 849 q 103 926 103 894 l 103 951 q 127 1017 103 992 q 203 1042 151 1042 m 625 0 l 474 0 l 474 722 l 625 722 l 625 603 l 632 603 q 703 700 656 661 q 835 739 751 739 q 1008 665 946 739 q 1069 458 1069 592 l 1069 0 l 918 0 l 918 440 q 885 567 918 525 q 782 610 853 610 q 706 597 742 610 q 648 556 671 583 q 625 486 625 528 l 625 0 z "},"ŋ":{"ha":806,"x_min":108,"x_max":704,"o":"m 440 -278 l 440 -154 l 553 -154 l 553 440 q 520 567 553 525 q 417 610 488 610 q 341 597 376 610 q 283 556 306 583 q 260 486 260 529 l 260 0 l 108 0 l 108 722 l 260 722 l 260 603 l 267 603 q 338 700 290 661 q 469 739 386 739 q 642 665 581 739 q 704 458 704 592 l 704 -99 q 662 -230 704 -182 q 529 -278 619 -278 l 440 -278 z "},"ó":{"ha":781,"x_min":58,"x_max":721,"o":"m 390 -17 q 215 30 289 -17 q 99 161 140 76 q 58 361 58 246 q 99 561 58 476 q 215 692 140 646 q 390 739 289 739 q 565 692 490 739 q 680 561 639 646 q 721 361 721 476 q 680 161 721 246 q 565 30 639 76 q 390 -17 490 -17 m 390 110 q 515 158 468 110 q 561 300 561 206 l 561 422 q 515 565 561 517 q 390 613 468 613 q 266 565 314 613 q 218 422 218 517 l 218 300 q 266 158 218 206 q 390 110 314 110 m 568 1040 l 404 808 l 310 854 l 436 1104 l 568 1040 z "},"ŏ":{"ha":781,"x_min":58,"x_max":721,"o":"m 390 -17 q 215 30 289 -17 q 99 161 140 76 q 58 361 58 246 q 99 561 58 476 q 215 692 140 646 q 390 739 289 739 q 565 692 490 739 q 680 561 639 646 q 721 361 721 476 q 680 161 721 246 q 565 30 639 76 q 390 -17 490 -17 m 390 110 q 515 158 468 110 q 561 300 561 206 l 561 422 q 515 565 561 517 q 390 613 468 613 q 266 565 314 613 q 218 422 218 517 l 218 300 q 266 158 218 206 q 390 110 314 110 m 389 818 q 291 837 331 818 q 225 886 251 856 q 183 951 199 917 q 156 1018 167 985 l 239 1060 l 268 1014 q 317 953 292 976 q 389 929 343 929 q 461 953 435 929 q 511 1014 488 976 l 539 1060 l 622 1018 q 595 951 611 985 q 552 886 579 917 q 485 837 525 856 q 389 818 446 818 z "},"ǒ":{"ha":781,"x_min":58,"x_max":721,"o":"m 390 -17 q 215 30 289 -17 q 99 161 140 76 q 58 361 58 246 q 99 561 58 476 q 215 692 140 646 q 390 739 289 739 q 565 692 490 739 q 680 561 639 646 q 721 361 721 476 q 680 161 721 246 q 565 30 639 76 q 390 -17 490 -17 m 390 110 q 515 158 468 110 q 561 300 561 206 l 561 422 q 515 565 561 517 q 390 613 468 613 q 266 565 314 613 q 218 422 218 517 l 218 300 q 266 158 218 206 q 390 110 314 110 m 465 825 l 313 825 l 146 1033 l 224 1092 l 389 931 l 554 1092 l 632 1033 l 465 825 z "},"ô":{"ha":781,"x_min":58,"x_max":721,"o":"m 390 -17 q 215 30 289 -17 q 99 161 140 76 q 58 361 58 246 q 99 561 58 476 q 215 692 140 646 q 390 739 289 739 q 565 692 490 739 q 680 561 639 646 q 721 361 721 476 q 680 161 721 246 q 565 30 639 76 q 390 -17 490 -17 m 390 110 q 515 158 468 110 q 561 300 561 206 l 561 422 q 515 565 561 517 q 390 613 468 613 q 266 565 314 613 q 218 422 218 517 l 218 300 q 266 158 218 206 q 390 110 314 110 m 313 1081 l 465 1081 l 632 872 l 554 813 l 389 975 l 224 813 l 146 872 l 313 1081 z "},"ö":{"ha":781,"x_min":58,"x_max":721,"o":"m 390 -17 q 215 30 289 -17 q 99 161 140 76 q 58 361 58 246 q 99 561 58 476 q 215 692 140 646 q 390 739 289 739 q 565 692 490 739 q 680 561 639 646 q 721 361 721 476 q 680 161 721 246 q 565 30 639 76 q 390 -17 490 -17 m 390 110 q 515 158 468 110 q 561 300 561 206 l 561 422 q 515 565 561 517 q 390 613 468 613 q 266 565 314 613 q 218 422 218 517 l 218 300 q 266 158 218 206 q 390 110 314 110 m 250 847 q 183 868 203 847 q 164 922 164 889 l 164 946 q 183 999 164 978 q 250 1019 203 1019 q 317 999 297 1019 q 336 946 336 978 l 336 922 q 317 868 336 889 q 250 847 297 847 m 528 847 q 462 868 482 847 q 442 922 442 889 l 442 946 q 462 999 442 978 q 528 1019 482 1019 q 594 999 575 1019 q 614 946 614 978 l 614 922 q 594 868 614 889 q 528 847 575 847 z "},"ọ":{"ha":781,"x_min":58,"x_max":721,"o":"m 390 -17 q 215 30 289 -17 q 99 161 140 76 q 58 361 58 246 q 99 561 58 476 q 215 692 140 646 q 390 739 289 739 q 565 692 490 739 q 680 561 639 646 q 721 361 721 476 q 680 161 721 246 q 565 30 639 76 q 390 -17 490 -17 m 390 110 q 515 158 468 110 q 561 300 561 206 l 561 422 q 515 565 561 517 q 390 613 468 613 q 266 565 314 613 q 218 422 218 517 l 218 300 q 266 158 218 206 q 390 110 314 110 m 389 -256 q 322 -235 343 -256 q 300 -182 300 -214 l 300 -157 q 322 -104 300 -125 q 389 -83 343 -83 q 457 -104 436 -83 q 478 -157 478 -125 l 478 -182 q 457 -235 478 -214 q 389 -256 436 -256 z "},"ò":{"ha":781,"x_min":58,"x_max":721,"o":"m 390 -17 q 215 30 289 -17 q 99 161 140 76 q 58 361 58 246 q 99 561 58 476 q 215 692 140 646 q 390 739 289 739 q 565 692 490 739 q 680 561 639 646 q 721 361 721 476 q 680 161 721 246 q 565 30 639 76 q 390 -17 490 -17 m 390 110 q 515 158 468 110 q 561 300 561 206 l 561 422 q 515 565 561 517 q 390 613 468 613 q 266 565 314 613 q 218 422 218 517 l 218 300 q 266 158 218 206 q 390 110 314 110 m 374 808 l 210 1040 l 342 1104 l 468 854 l 374 808 z "},"ỏ":{"ha":781,"x_min":58,"x_max":721,"o":"m 390 -17 q 215 30 289 -17 q 99 161 140 76 q 58 361 58 246 q 99 561 58 476 q 215 692 140 646 q 390 739 289 739 q 565 692 490 739 q 680 561 639 646 q 721 361 721 476 q 680 161 721 246 q 565 30 639 76 q 390 -17 490 -17 m 390 110 q 515 158 468 110 q 561 300 561 206 l 561 422 q 515 565 561 517 q 390 613 468 613 q 266 565 314 613 q 218 422 218 517 l 218 300 q 266 158 218 206 q 390 110 314 110 m 251 974 l 251 1085 l 422 1085 q 511 1059 486 1085 q 536 997 536 1033 q 517 922 536 963 q 464 840 497 882 l 428 797 l 347 836 l 417 974 l 251 974 z "},"ő":{"ha":781,"x_min":58,"x_max":721,"o":"m 390 -17 q 215 30 289 -17 q 99 161 140 76 q 58 361 58 246 q 99 561 58 476 q 215 692 140 646 q 390 739 289 739 q 565 692 490 739 q 680 561 639 646 q 721 361 721 476 q 680 161 721 246 q 565 30 639 76 q 390 -17 490 -17 m 390 110 q 515 158 468 110 q 561 300 561 206 l 561 422 q 515 565 561 517 q 390 613 468 613 q 266 565 314 613 q 218 422 218 517 l 218 300 q 266 158 218 206 q 390 110 314 110 m 442 1040 l 278 810 l 192 850 l 318 1101 l 442 1040 m 690 1040 l 526 810 l 440 850 l 567 1101 l 690 1040 z "},"ō":{"ha":781,"x_min":58,"x_max":721,"o":"m 390 -17 q 215 30 289 -17 q 99 161 140 76 q 58 361 58 246 q 99 561 58 476 q 215 692 140 646 q 390 739 289 739 q 565 692 490 739 q 680 561 639 646 q 721 361 721 476 q 680 161 721 246 q 565 30 639 76 q 390 -17 490 -17 m 390 110 q 515 158 468 110 q 561 300 561 206 l 561 422 q 515 565 561 517 q 390 613 468 613 q 266 565 314 613 q 218 422 218 517 l 218 300 q 266 158 218 206 q 390 110 314 110 m 186 876 l 186 992 l 592 992 l 592 876 l 186 876 z "},"ø":{"ha":792,"x_min":36,"x_max":756,"o":"m 119 -61 l 36 1 l 129 117 q 81 226 97 165 q 64 361 64 288 q 105 561 64 476 q 220 692 146 646 q 396 739 294 739 q 500 724 451 739 q 588 679 549 708 l 672 783 l 756 721 l 661 603 q 710 495 693 557 q 726 361 726 433 q 685 161 726 246 q 570 30 644 76 q 396 -17 496 -17 q 292 -1 340 -17 q 204 42 243 14 l 119 -61 m 396 104 q 523 155 475 104 q 571 303 571 206 l 571 392 q 569 424 571 408 q 565 455 567 440 q 558 482 563 469 l 556 482 l 396 286 l 279 144 q 331 115 301 125 q 396 104 361 104 m 396 618 q 269 567 318 618 q 221 419 221 515 l 221 332 q 222 299 221 315 q 226 269 224 283 q 232 242 229 254 l 235 242 l 396 438 l 511 578 q 460 608 489 599 q 396 618 431 618 z "},"ǿ":{"ha":792,"x_min":36,"x_max":756,"o":"m 119 -61 l 36 1 l 129 117 q 81 226 97 165 q 64 361 64 288 q 105 561 64 476 q 220 692 146 646 q 396 739 294 739 q 500 724 451 739 q 588 679 549 708 l 672 783 l 756 721 l 661 603 q 710 495 693 557 q 726 361 726 433 q 685 161 726 246 q 570 30 644 76 q 396 -17 496 -17 q 292 -1 340 -17 q 204 42 243 14 l 119 -61 m 396 104 q 523 155 475 104 q 571 303 571 206 l 571 392 q 569 424 571 408 q 565 455 567 440 q 558 482 563 469 l 556 482 l 396 286 l 279 144 q 331 115 301 125 q 396 104 361 104 m 396 618 q 269 567 318 618 q 221 419 221 515 l 221 332 q 222 299 221 315 q 226 269 224 283 q 232 242 229 254 l 235 242 l 396 438 l 511 578 q 460 608 489 599 q 396 618 431 618 m 574 1040 l 410 808 l 315 854 l 442 1104 l 574 1040 z "},"õ":{"ha":781,"x_min":58,"x_max":721,"o":"m 390 -17 q 215 30 289 -17 q 99 161 140 76 q 58 361 58 246 q 99 561 58 476 q 215 692 140 646 q 390 739 289 739 q 565 692 490 739 q 680 561 639 646 q 721 361 721 476 q 680 161 721 246 q 565 30 639 76 q 390 -17 490 -17 m 390 110 q 515 158 468 110 q 561 300 561 206 l 561 422 q 515 565 561 517 q 390 613 468 613 q 266 565 314 613 q 218 422 218 517 l 218 300 q 266 158 218 206 q 390 110 314 110 m 492 843 q 433 854 458 843 q 383 876 407 865 q 326 900 350 892 q 281 908 303 908 q 240 899 258 908 q 200 872 221 890 l 143 944 q 199 1000 164 976 q 286 1024 235 1024 q 345 1013 319 1024 q 394 992 371 1003 q 451 968 428 976 q 497 960 475 960 q 539 969 521 960 q 578 996 557 978 l 635 924 q 578 867 614 892 q 492 843 543 843 z "},"ơ":{"ha":781,"x_min":58,"x_max":740,"o":"m 610 874 l 740 874 l 740 733 q 719 661 740 689 q 651 633 699 633 l 633 633 l 633 631 q 683 557 664 599 q 712 466 703 515 q 721 363 721 417 q 680 163 721 249 q 565 31 639 78 q 390 -17 490 -17 q 215 31 289 -17 q 99 163 140 78 q 58 363 58 249 q 99 563 58 479 q 215 693 140 647 q 390 739 289 739 q 448 735 419 739 q 501 722 476 731 l 610 722 l 610 874 m 390 110 q 515 158 468 110 q 561 300 561 206 l 561 422 q 515 565 561 517 q 390 613 468 613 q 266 565 314 613 q 218 422 218 517 l 218 300 q 266 158 218 206 q 390 110 314 110 z "},"ớ":{"ha":781,"x_min":58,"x_max":740,"o":"m 610 874 l 740 874 l 740 733 q 719 661 740 689 q 651 633 699 633 l 633 633 l 633 631 q 683 557 664 599 q 712 466 703 515 q 721 363 721 417 q 680 163 721 249 q 565 31 639 78 q 390 -17 490 -17 q 215 31 289 -17 q 99 163 140 78 q 58 363 58 249 q 99 563 58 479 q 215 693 140 647 q 390 739 289 739 q 448 735 419 739 q 501 722 476 731 l 610 722 l 610 874 m 390 110 q 515 158 468 110 q 561 300 561 206 l 561 422 q 515 565 561 517 q 390 613 468 613 q 266 565 314 613 q 218 422 218 517 l 218 300 q 266 158 218 206 q 390 110 314 110 m 568 1040 l 404 808 l 310 854 l 436 1104 l 568 1040 z "},"ợ":{"ha":781,"x_min":58,"x_max":740,"o":"m 610 874 l 740 874 l 740 733 q 719 661 740 689 q 651 633 699 633 l 633 633 l 633 631 q 683 557 664 599 q 712 466 703 515 q 721 363 721 417 q 680 163 721 249 q 565 31 639 78 q 390 -17 490 -17 q 215 31 289 -17 q 99 163 140 78 q 58 363 58 249 q 99 563 58 479 q 215 693 140 647 q 390 739 289 739 q 448 735 419 739 q 501 722 476 731 l 610 722 l 610 874 m 390 110 q 515 158 468 110 q 561 300 561 206 l 561 422 q 515 565 561 517 q 390 613 468 613 q 266 565 314 613 q 218 422 218 517 l 218 300 q 266 158 218 206 q 390 110 314 110 m 389 -256 q 322 -235 343 -256 q 300 -182 300 -214 l 300 -157 q 322 -104 300 -125 q 389 -83 343 -83 q 457 -104 436 -83 q 478 -157 478 -125 l 478 -182 q 457 -235 478 -214 q 389 -256 436 -256 z "},"ờ":{"ha":781,"x_min":58,"x_max":740,"o":"m 610 874 l 740 874 l 740 733 q 719 661 740 689 q 651 633 699 633 l 633 633 l 633 631 q 683 557 664 599 q 712 466 703 515 q 721 363 721 417 q 680 163 721 249 q 565 31 639 78 q 390 -17 490 -17 q 215 31 289 -17 q 99 163 140 78 q 58 363 58 249 q 99 563 58 479 q 215 693 140 647 q 390 739 289 739 q 448 735 419 739 q 501 722 476 731 l 610 722 l 610 874 m 390 110 q 515 158 468 110 q 561 300 561 206 l 561 422 q 515 565 561 517 q 390 613 468 613 q 266 565 314 613 q 218 422 218 517 l 218 300 q 266 158 218 206 q 390 110 314 110 m 374 808 l 210 1040 l 342 1104 l 468 854 l 374 808 z "},"ở":{"ha":781,"x_min":58,"x_max":740,"o":"m 610 874 l 740 874 l 740 733 q 719 661 740 689 q 651 633 699 633 l 633 633 l 633 631 q 683 557 664 599 q 712 466 703 515 q 721 363 721 417 q 680 163 721 249 q 565 31 639 78 q 390 -17 490 -17 q 215 31 289 -17 q 99 163 140 78 q 58 363 58 249 q 99 563 58 479 q 215 693 140 647 q 390 739 289 739 q 448 735 419 739 q 501 722 476 731 l 610 722 l 610 874 m 390 110 q 515 158 468 110 q 561 300 561 206 l 561 422 q 515 565 561 517 q 390 613 468 613 q 266 565 314 613 q 218 422 218 517 l 218 300 q 266 158 218 206 q 390 110 314 110 m 251 974 l 251 1085 l 422 1085 q 511 1059 486 1085 q 536 997 536 1033 q 517 922 536 963 q 464 840 497 882 l 428 797 l 347 836 l 417 974 l 251 974 z "},"ỡ":{"ha":781,"x_min":58,"x_max":740,"o":"m 610 874 l 740 874 l 740 733 q 719 661 740 689 q 651 633 699 633 l 633 633 l 633 631 q 683 557 664 599 q 712 466 703 515 q 721 363 721 417 q 680 163 721 249 q 565 31 639 78 q 390 -17 490 -17 q 215 31 289 -17 q 99 163 140 78 q 58 363 58 249 q 99 563 58 479 q 215 693 140 647 q 390 739 289 739 q 448 735 419 739 q 501 722 476 731 l 610 722 l 610 874 m 390 110 q 515 158 468 110 q 561 300 561 206 l 561 422 q 515 565 561 517 q 390 613 468 613 q 266 565 314 613 q 218 422 218 517 l 218 300 q 266 158 218 206 q 390 110 314 110 m 478 847 q 426 856 449 847 q 383 876 404 865 q 338 897 357 889 q 297 906 319 906 q 260 897 278 906 q 224 871 242 888 l 167 940 q 220 997 188 972 q 300 1021 253 1021 q 352 1011 329 1021 q 394 992 375 1001 q 440 970 421 978 q 481 963 460 963 q 518 971 500 963 q 554 997 536 979 l 611 928 q 558 872 592 896 q 478 847 525 847 z "},"ố":{"ha":781,"x_min":58,"x_max":778,"o":"m 390 -17 q 215 30 289 -17 q 99 161 140 76 q 58 361 58 246 q 99 561 58 476 q 215 692 140 646 q 390 739 289 739 q 565 692 490 739 q 680 561 639 646 q 721 361 721 476 q 680 161 721 246 q 565 30 639 76 q 390 -17 490 -17 m 390 110 q 515 158 468 110 q 561 300 561 206 l 561 422 q 515 565 561 517 q 390 613 468 613 q 266 565 314 613 q 218 422 218 517 l 218 300 q 266 158 218 206 q 390 110 314 110 m 778 1221 l 614 990 l 528 1032 l 654 1282 l 778 1221 m 321 1056 l 457 1056 l 631 863 l 557 800 l 389 951 l 221 800 l 147 863 l 321 1056 z "},"ộ":{"ha":781,"x_min":58,"x_max":721,"o":"m 390 -17 q 215 30 289 -17 q 99 161 140 76 q 58 361 58 246 q 99 561 58 476 q 215 692 140 646 q 390 739 289 739 q 565 692 490 739 q 680 561 639 646 q 721 361 721 476 q 680 161 721 246 q 565 30 639 76 q 390 -17 490 -17 m 390 110 q 515 158 468 110 q 561 300 561 206 l 561 422 q 515 565 561 517 q 390 613 468 613 q 266 565 314 613 q 218 422 218 517 l 218 300 q 266 158 218 206 q 390 110 314 110 m 313 1081 l 465 1081 l 632 872 l 554 813 l 389 975 l 224 813 l 146 872 l 313 1081 m 389 -256 q 322 -235 343 -256 q 300 -182 300 -214 l 300 -157 q 322 -104 300 -125 q 389 -83 343 -83 q 457 -104 436 -83 q 478 -157 478 -125 l 478 -182 q 457 -235 478 -214 q 389 -256 436 -256 z "},"ồ":{"ha":781,"x_min":0,"x_max":721,"o":"m 390 -17 q 215 30 289 -17 q 99 161 140 76 q 58 361 58 246 q 99 561 58 476 q 215 692 140 646 q 390 739 289 739 q 565 692 490 739 q 680 561 639 646 q 721 361 721 476 q 680 161 721 246 q 565 30 639 76 q 390 -17 490 -17 m 390 110 q 515 158 468 110 q 561 300 561 206 l 561 422 q 515 565 561 517 q 390 613 468 613 q 266 565 314 613 q 218 422 218 517 l 218 300 q 266 158 218 206 q 390 110 314 110 m 164 990 l 0 1221 l 124 1282 l 250 1032 l 164 990 m 321 1056 l 457 1056 l 631 863 l 557 800 l 389 951 l 221 800 l 147 863 l 321 1056 z "},"ổ":{"ha":781,"x_min":58,"x_max":732,"o":"m 390 -17 q 215 30 289 -17 q 99 161 140 76 q 58 361 58 246 q 99 561 58 476 q 215 692 140 646 q 390 739 289 739 q 565 692 490 739 q 680 561 639 646 q 721 361 721 476 q 680 161 721 246 q 565 30 639 76 q 390 -17 490 -17 m 390 110 q 515 158 468 110 q 561 300 561 206 l 561 422 q 515 565 561 517 q 390 613 468 613 q 266 565 314 613 q 218 422 218 517 l 218 300 q 266 158 218 206 q 390 110 314 110 m 451 1158 l 451 1265 l 618 1265 q 706 1240 681 1265 q 732 1178 732 1214 q 710 1103 732 1143 q 656 1021 688 1063 l 619 978 l 546 1017 l 619 1158 l 451 1158 m 321 1056 l 457 1056 l 631 863 l 557 800 l 389 951 l 221 800 l 147 863 l 321 1056 z "},"ỗ":{"ha":781,"x_min":58,"x_max":721,"o":"m 390 -17 q 215 30 289 -17 q 99 161 140 76 q 58 361 58 246 q 99 561 58 476 q 215 692 140 646 q 390 739 289 739 q 565 692 490 739 q 680 561 639 646 q 721 361 721 476 q 680 161 721 246 q 565 30 639 76 q 390 -17 490 -17 m 390 110 q 515 158 468 110 q 561 300 561 206 l 561 422 q 515 565 561 517 q 390 613 468 613 q 266 565 314 613 q 218 422 218 517 l 218 300 q 266 158 218 206 q 390 110 314 110 m 288 1263 q 347 1251 321 1263 q 396 1229 372 1240 q 453 1206 429 1214 q 499 1197 476 1197 q 540 1206 522 1197 q 579 1233 558 1215 l 633 1167 q 577 1111 613 1135 q 490 1088 542 1088 q 431 1098 457 1088 q 382 1119 406 1108 q 325 1143 349 1135 q 279 1151 301 1151 q 238 1142 257 1151 q 199 1115 219 1133 l 144 1182 q 201 1238 165 1214 q 288 1263 236 1263 m 321 1049 l 457 1049 l 629 863 l 557 800 l 389 946 l 221 800 l 149 863 l 321 1049 z "},"œ":{"ha":1275,"x_min":58,"x_max":1217,"o":"m 390 110 q 515 158 468 110 q 561 300 561 206 l 561 422 q 515 565 561 517 q 390 613 468 613 q 266 565 314 613 q 218 422 218 517 l 218 300 q 266 158 218 206 q 390 110 314 110 m 721 422 l 1057 422 l 1057 436 q 1038 533 1057 492 q 982 598 1018 575 q 896 621 946 621 q 805 597 844 621 q 743 530 765 572 q 721 432 721 488 l 721 422 m 904 -17 q 787 1 839 -17 q 699 50 735 19 q 646 118 664 81 l 638 118 q 544 21 610 58 q 390 -17 479 -17 q 215 31 289 -17 q 99 163 140 78 q 58 363 58 249 q 99 563 58 479 q 215 693 140 647 q 390 739 289 739 q 540 705 476 739 q 638 603 604 671 l 646 603 q 741 703 676 667 q 897 739 806 739 q 1069 693 997 739 q 1178 567 1140 647 q 1217 379 1217 486 l 1217 322 l 721 322 l 721 299 q 771 162 721 215 q 914 108 821 108 q 1027 138 982 108 q 1104 217 1072 167 l 1193 129 q 1078 24 1151 64 q 904 -17 1004 -17 z "},"ŕ":{"ha":532,"x_min":108,"x_max":506,"o":"m 260 0 l 108 0 l 108 722 l 260 722 l 260 579 l 267 579 q 302 648 278 615 q 367 701 326 681 q 465 722 407 722 l 506 722 l 506 576 l 446 576 q 344 563 386 576 q 281 524 303 549 q 260 461 260 499 l 260 0 m 486 1040 l 322 808 l 228 854 l 354 1104 l 486 1040 z "},"ř":{"ha":532,"x_min":64,"x_max":550,"o":"m 260 0 l 108 0 l 108 722 l 260 722 l 260 579 l 267 579 q 302 648 278 615 q 367 701 326 681 q 465 722 407 722 l 506 722 l 506 576 l 446 576 q 344 563 386 576 q 281 524 303 549 q 260 461 260 499 l 260 0 m 383 825 l 231 825 l 64 1033 l 142 1092 l 307 931 l 472 1092 l 550 1033 l 383 825 z "},"ŗ":{"ha":532,"x_min":83,"x_max":506,"o":"m 260 0 l 108 0 l 108 722 l 260 722 l 260 579 l 267 579 q 302 648 278 615 q 367 701 326 681 q 465 722 407 722 l 506 722 l 506 576 l 446 576 q 344 563 386 576 q 281 524 303 549 q 260 461 260 499 l 260 0 m 186 -78 q 247 -97 225 -78 q 268 -151 268 -117 l 268 -168 q 242 -274 268 -224 q 181 -358 217 -325 l 83 -358 q 133 -301 115 -328 q 161 -237 151 -274 q 117 -212 131 -233 q 103 -167 103 -192 l 103 -151 q 124 -97 103 -117 q 186 -78 146 -78 z "},"ś":{"ha":686,"x_min":44,"x_max":624,"o":"m 338 -17 q 166 19 236 -17 q 44 119 96 56 l 142 208 q 231 133 182 161 q 346 106 281 106 q 445 131 413 106 q 478 203 478 157 q 455 261 478 238 q 375 293 432 285 l 308 301 q 182 338 236 313 q 99 406 128 363 q 71 517 71 450 q 145 681 71 622 q 339 739 219 739 q 453 725 404 739 q 539 685 501 711 q 608 624 576 660 l 515 535 q 442 592 488 568 q 339 617 397 617 q 247 592 278 617 q 217 526 217 568 q 244 464 217 485 q 328 433 271 443 l 394 425 q 569 355 514 407 q 624 215 624 303 q 588 94 624 146 q 489 13 553 42 q 338 -17 425 -17 m 517 1040 l 353 808 l 258 854 l 385 1104 l 517 1040 z "},"š":{"ha":686,"x_min":44,"x_max":624,"o":"m 338 -17 q 166 19 236 -17 q 44 119 96 56 l 142 208 q 231 133 182 161 q 346 106 281 106 q 445 131 413 106 q 478 203 478 157 q 455 261 478 238 q 375 293 432 285 l 308 301 q 182 338 236 313 q 99 406 128 363 q 71 517 71 450 q 145 681 71 622 q 339 739 219 739 q 453 725 404 739 q 539 685 501 711 q 608 624 576 660 l 515 535 q 442 592 488 568 q 339 617 397 617 q 247 592 278 617 q 217 526 217 568 q 244 464 217 485 q 328 433 271 443 l 394 425 q 569 355 514 407 q 624 215 624 303 q 588 94 624 146 q 489 13 553 42 q 338 -17 425 -17 m 414 825 l 261 825 l 94 1033 l 172 1092 l 338 931 l 503 1092 l 581 1033 l 414 825 z "},"ş":{"ha":686,"x_min":44,"x_max":624,"o":"m 356 -290 q 256 -271 293 -290 q 204 -232 219 -251 l 261 -165 q 296 -194 274 -182 q 349 -206 318 -206 q 392 -196 375 -206 q 410 -165 410 -186 q 391 -133 410 -149 q 311 -110 372 -117 l 276 -106 l 294 -15 q 150 27 211 -8 q 44 119 89 63 l 142 208 q 231 133 182 161 q 346 106 281 106 q 445 131 413 106 q 478 203 478 157 q 455 261 478 238 q 375 293 432 285 l 308 301 q 182 338 236 313 q 99 406 128 363 q 71 517 71 450 q 145 681 71 622 q 339 739 219 739 q 453 725 404 739 q 539 685 501 711 q 608 624 576 660 l 515 535 q 442 592 488 568 q 339 617 397 617 q 247 592 278 617 q 217 526 217 568 q 244 464 217 485 q 328 433 271 443 l 394 425 q 569 355 514 407 q 624 215 624 303 q 556 56 624 118 q 374 -15 489 -7 l 361 -81 l 365 -86 q 396 -79 381 -82 q 425 -76 411 -76 q 494 -100 467 -76 q 522 -171 522 -124 q 499 -240 522 -212 q 438 -278 475 -267 q 356 -290 400 -290 z "},"ŝ":{"ha":686,"x_min":44,"x_max":624,"o":"m 338 -17 q 166 19 236 -17 q 44 119 96 56 l 142 208 q 231 133 182 161 q 346 106 281 106 q 445 131 413 106 q 478 203 478 157 q 455 261 478 238 q 375 293 432 285 l 308 301 q 182 338 236 313 q 99 406 128 363 q 71 517 71 450 q 145 681 71 622 q 339 739 219 739 q 453 725 404 739 q 539 685 501 711 q 608 624 576 660 l 515 535 q 442 592 488 568 q 339 617 397 617 q 247 592 278 617 q 217 526 217 568 q 244 464 217 485 q 328 433 271 443 l 394 425 q 569 355 514 407 q 624 215 624 303 q 588 94 624 146 q 489 13 553 42 q 338 -17 425 -17 m 261 1081 l 414 1081 l 581 872 l 503 813 l 338 975 l 172 813 l 94 872 l 261 1081 z "},"ș":{"ha":686,"x_min":44,"x_max":624,"o":"m 338 -17 q 166 19 236 -17 q 44 119 96 56 l 142 208 q 231 133 182 161 q 346 106 281 106 q 445 131 413 106 q 478 203 478 157 q 455 261 478 238 q 375 293 432 285 l 308 301 q 182 338 236 313 q 99 406 128 363 q 71 517 71 450 q 145 681 71 622 q 339 739 219 739 q 453 725 404 739 q 539 685 501 711 q 608 624 576 660 l 515 535 q 442 592 488 568 q 339 617 397 617 q 247 592 278 617 q 217 526 217 568 q 244 464 217 485 q 328 433 271 443 l 394 425 q 569 355 514 407 q 624 215 624 303 q 588 94 624 146 q 489 13 553 42 q 338 -17 425 -17 m 339 -78 q 399 -97 378 -78 q 421 -151 421 -117 l 421 -168 q 395 -274 421 -224 q 333 -358 369 -325 l 236 -358 q 286 -301 268 -328 q 314 -237 304 -274 q 269 -212 283 -233 q 256 -167 256 -192 l 256 -151 q 277 -97 256 -117 q 339 -78 299 -78 z "},"ſ":{"ha":407,"x_min":36,"x_max":449,"o":"m 146 0 l 146 599 l 36 599 l 36 722 l 146 722 l 146 842 q 192 978 146 929 q 329 1028 239 1028 l 449 1028 l 449 904 l 297 904 l 297 0 l 146 0 z "},"ß":{"ha":919,"x_min":36,"x_max":883,"o":"m 883 221 q 813 47 883 111 q 625 -17 742 -17 q 477 12 539 -17 q 374 94 415 40 l 465 183 q 540 123 500 143 q 628 103 579 103 q 712 129 682 103 q 742 203 742 156 q 721 267 742 243 q 647 306 700 292 l 604 317 q 510 356 551 332 q 444 419 468 379 q 421 521 421 460 q 481 665 421 611 q 646 729 542 719 l 646 735 q 603 878 646 832 q 471 925 560 925 q 340 878 383 925 q 297 735 297 832 l 297 0 l 146 0 l 146 599 l 36 599 l 36 722 l 146 722 l 146 728 q 185 897 146 825 q 297 1006 225 968 q 469 1044 369 1044 q 640 1006 568 1044 q 750 897 711 968 q 789 729 789 826 l 789 624 l 718 624 q 632 615 667 624 q 580 585 597 606 q 563 532 563 565 q 589 469 563 489 q 663 435 615 449 l 704 422 q 840 351 796 399 q 883 221 883 304 z "},"ŧ":{"ha":517,"x_min":42,"x_max":456,"o":"m 444 124 l 444 0 l 313 0 q 194 42 236 0 q 153 157 153 83 l 153 328 l 64 328 l 64 438 l 153 438 l 153 599 l 42 599 l 42 722 l 101 722 q 154 739 140 722 q 168 793 168 756 l 168 919 l 304 919 l 304 722 l 456 722 l 456 599 l 304 599 l 304 438 l 428 438 l 428 328 l 304 328 l 304 124 l 444 124 z "},"ť":{"ha":510,"x_min":36,"x_max":572,"o":"m 440 0 l 308 0 q 190 42 231 0 q 149 158 149 85 l 149 599 l 36 599 l 36 722 l 97 722 q 149 739 135 722 q 164 793 164 756 l 164 919 l 300 919 l 300 722 l 451 722 l 451 599 l 300 599 l 300 124 l 440 124 l 440 0 m 572 1067 l 492 792 l 392 792 l 406 1067 l 572 1067 z "},"ț":{"ha":507,"x_min":36,"x_max":451,"o":"m 440 0 l 308 0 q 190 42 231 0 q 149 158 149 85 l 149 599 l 36 599 l 36 722 l 97 722 q 149 739 135 722 q 164 793 164 756 l 164 919 l 300 919 l 300 722 l 451 722 l 451 599 l 300 599 l 300 124 l 440 124 l 440 0 m 306 -78 q 366 -97 344 -78 q 388 -151 388 -117 l 388 -168 q 362 -274 388 -224 q 300 -358 336 -325 l 203 -358 q 253 -301 235 -328 q 281 -237 271 -274 q 236 -212 250 -233 q 222 -167 222 -192 l 222 -151 q 244 -97 222 -117 q 306 -78 265 -78 z "},"ţ":{"ha":507,"x_min":36,"x_max":490,"o":"m 324 -290 q 224 -271 261 -290 q 171 -232 188 -251 l 228 -165 q 263 -194 242 -182 q 317 -206 285 -206 q 360 -196 343 -206 q 378 -165 378 -186 q 359 -133 378 -149 q 279 -110 340 -117 l 244 -106 l 274 44 l 324 0 l 308 0 q 190 42 231 0 q 149 158 149 85 l 149 599 l 36 599 l 36 722 l 97 722 q 149 739 135 722 q 164 793 164 756 l 164 919 l 300 919 l 300 722 l 451 722 l 451 599 l 300 599 l 300 124 l 440 124 l 440 0 l 344 0 l 328 -81 l 333 -86 q 363 -79 349 -82 q 393 -76 378 -76 q 462 -100 433 -76 q 490 -171 490 -124 q 467 -240 490 -212 q 405 -278 443 -267 q 324 -290 367 -290 z "},"þ":{"ha":822,"x_min":108,"x_max":757,"o":"m 108 -278 l 108 1028 l 260 1028 l 260 603 l 267 603 q 343 703 289 668 q 469 739 397 739 q 625 694 561 739 q 723 565 689 649 q 757 361 757 481 q 723 158 757 243 q 625 28 689 74 q 469 -17 561 -17 q 344 19 397 -17 q 267 119 292 56 l 260 119 l 260 -278 l 108 -278 m 424 111 q 550 163 503 111 q 597 299 597 215 l 597 424 q 550 558 597 507 q 424 610 503 610 q 341 594 378 610 q 282 551 304 579 q 260 486 260 524 l 260 242 q 282 172 260 200 q 341 127 304 143 q 424 111 378 111 z "},"ú":{"ha":806,"x_min":101,"x_max":697,"o":"m 546 0 l 546 119 l 539 119 q 473 24 519 65 q 336 -17 426 -17 q 164 56 226 -17 q 101 263 101 129 l 101 722 l 253 722 l 253 282 q 287 155 253 199 q 390 111 321 111 q 466 125 431 111 q 524 167 501 139 q 546 236 546 194 l 546 722 l 697 722 l 697 0 l 546 0 m 579 1040 l 415 808 l 321 854 l 447 1104 l 579 1040 z "},"ŭ":{"ha":806,"x_min":101,"x_max":697,"o":"m 546 0 l 546 119 l 539 119 q 473 24 519 65 q 336 -17 426 -17 q 164 56 226 -17 q 101 263 101 129 l 101 722 l 253 722 l 253 282 q 287 155 253 199 q 390 111 321 111 q 466 125 431 111 q 524 167 501 139 q 546 236 546 194 l 546 722 l 697 722 l 697 0 l 546 0 m 400 818 q 302 837 342 818 q 236 886 263 856 q 194 951 210 917 q 167 1018 178 985 l 250 1060 l 279 1014 q 328 953 303 976 q 400 929 354 929 q 472 953 446 929 q 522 1014 499 976 l 550 1060 l 633 1018 q 606 951 622 985 q 563 886 590 917 q 497 837 536 856 q 400 818 457 818 z "},"ǔ":{"ha":806,"x_min":101,"x_max":697,"o":"m 546 0 l 546 119 l 539 119 q 473 24 519 65 q 336 -17 426 -17 q 164 56 226 -17 q 101 263 101 129 l 101 722 l 253 722 l 253 282 q 287 155 253 199 q 390 111 321 111 q 466 125 431 111 q 524 167 501 139 q 546 236 546 194 l 546 722 l 697 722 l 697 0 l 546 0 m 476 825 l 324 825 l 157 1033 l 235 1092 l 400 931 l 565 1092 l 643 1033 l 476 825 z "},"û":{"ha":806,"x_min":101,"x_max":697,"o":"m 546 0 l 546 119 l 539 119 q 473 24 519 65 q 336 -17 426 -17 q 164 56 226 -17 q 101 263 101 129 l 101 722 l 253 722 l 253 282 q 287 155 253 199 q 390 111 321 111 q 466 125 431 111 q 524 167 501 139 q 546 236 546 194 l 546 722 l 697 722 l 697 0 l 546 0 m 324 1081 l 476 1081 l 643 872 l 565 813 l 400 975 l 235 813 l 157 872 l 324 1081 z "},"ü":{"ha":806,"x_min":101,"x_max":697,"o":"m 546 0 l 546 119 l 539 119 q 473 24 519 65 q 336 -17 426 -17 q 164 56 226 -17 q 101 263 101 129 l 101 722 l 253 722 l 253 282 q 287 155 253 199 q 390 111 321 111 q 466 125 431 111 q 524 167 501 139 q 546 236 546 194 l 546 722 l 697 722 l 697 0 l 546 0 m 261 847 q 194 868 214 847 q 175 922 175 889 l 175 946 q 194 999 175 978 q 261 1019 214 1019 q 328 999 308 1019 q 347 946 347 978 l 347 922 q 328 868 347 889 q 261 847 308 847 m 539 847 q 473 868 493 847 q 453 922 453 889 l 453 946 q 473 999 453 978 q 539 1019 493 1019 q 606 999 586 1019 q 625 946 625 978 l 625 922 q 606 868 625 889 q 539 847 586 847 z "},"ụ":{"ha":806,"x_min":101,"x_max":697,"o":"m 546 0 l 546 119 l 539 119 q 473 24 519 65 q 336 -17 426 -17 q 164 56 226 -17 q 101 263 101 129 l 101 722 l 253 722 l 253 282 q 287 155 253 199 q 390 111 321 111 q 466 125 431 111 q 524 167 501 139 q 546 236 546 194 l 546 722 l 697 722 l 697 0 l 546 0 m 396 -256 q 328 -235 350 -256 q 307 -182 307 -214 l 307 -157 q 328 -104 307 -125 q 396 -83 350 -83 q 464 -104 443 -83 q 485 -157 485 -125 l 485 -182 q 464 -235 485 -214 q 396 -256 443 -256 z "},"ù":{"ha":806,"x_min":101,"x_max":697,"o":"m 546 0 l 546 119 l 539 119 q 473 24 519 65 q 336 -17 426 -17 q 164 56 226 -17 q 101 263 101 129 l 101 722 l 253 722 l 253 282 q 287 155 253 199 q 390 111 321 111 q 466 125 431 111 q 524 167 501 139 q 546 236 546 194 l 546 722 l 697 722 l 697 0 l 546 0 m 385 808 l 221 1040 l 353 1104 l 479 854 l 385 808 z "},"ủ":{"ha":806,"x_min":101,"x_max":697,"o":"m 546 0 l 546 119 l 539 119 q 473 24 519 65 q 336 -17 426 -17 q 164 56 226 -17 q 101 263 101 129 l 101 722 l 253 722 l 253 282 q 287 155 253 199 q 390 111 321 111 q 466 125 431 111 q 524 167 501 139 q 546 236 546 194 l 546 722 l 697 722 l 697 0 l 546 0 m 263 974 l 263 1085 l 433 1085 q 522 1059 497 1085 q 547 997 547 1033 q 528 922 547 963 q 475 840 508 882 l 439 797 l 358 836 l 428 974 l 263 974 z "},"ű":{"ha":806,"x_min":101,"x_max":700,"o":"m 546 0 l 546 119 l 539 119 q 473 24 519 65 q 336 -17 426 -17 q 164 56 226 -17 q 101 263 101 129 l 101 722 l 253 722 l 253 282 q 287 155 253 199 q 390 111 321 111 q 466 125 431 111 q 524 167 501 139 q 546 236 546 194 l 546 722 l 697 722 l 697 0 l 546 0 m 453 1040 l 289 810 l 203 850 l 329 1101 l 453 1040 m 701 1040 l 538 810 l 451 850 l 578 1101 l 701 1040 z "},"ū":{"ha":806,"x_min":101,"x_max":697,"o":"m 546 0 l 546 119 l 539 119 q 473 24 519 65 q 336 -17 426 -17 q 164 56 226 -17 q 101 263 101 129 l 101 722 l 253 722 l 253 282 q 287 155 253 199 q 390 111 321 111 q 466 125 431 111 q 524 167 501 139 q 546 236 546 194 l 546 722 l 697 722 l 697 0 l 546 0 m 197 876 l 197 992 l 603 992 l 603 876 l 197 876 z "},"ų":{"ha":806,"x_min":101,"x_max":732,"o":"m 696 722 l 696 0 q 603 -78 633 -49 q 562 -126 572 -107 q 551 -160 551 -144 q 565 -194 551 -185 q 599 -204 579 -204 q 639 -194 621 -204 q 669 -168 657 -183 l 732 -229 q 682 -273 718 -256 q 590 -290 646 -290 q 516 -279 550 -290 q 462 -244 482 -268 q 442 -179 442 -219 q 484 -84 442 -125 q 592 -4 526 -43 l 592 0 l 546 0 l 546 119 l 539 119 q 473 24 519 65 q 336 -17 426 -17 q 164 56 226 -17 q 101 263 101 129 l 101 722 l 253 722 l 253 282 q 287 155 253 199 q 390 111 321 111 q 466 125 431 111 q 524 167 501 139 q 546 236 546 194 l 546 722 l 696 722 z "},"ů":{"ha":806,"x_min":101,"x_max":697,"o":"m 546 0 l 546 119 l 539 119 q 473 24 519 65 q 336 -17 426 -17 q 164 56 226 -17 q 101 263 101 129 l 101 722 l 253 722 l 253 282 q 287 155 253 199 q 390 111 321 111 q 466 125 431 111 q 524 167 501 139 q 546 236 546 194 l 546 722 l 697 722 l 697 0 l 546 0 m 400 789 q 309 812 350 789 q 244 875 268 835 q 219 965 219 915 q 244 1056 219 1017 q 309 1119 268 1096 q 400 1142 350 1142 q 492 1119 451 1142 q 556 1056 532 1096 q 581 965 581 1017 q 556 875 581 915 q 492 812 532 835 q 400 789 451 789 m 400 872 q 456 892 436 872 q 476 947 476 913 l 476 985 q 456 1039 476 1019 q 400 1058 436 1058 q 344 1039 364 1058 q 324 985 324 1019 l 324 947 q 344 892 324 913 q 400 872 364 872 z "},"ũ":{"ha":806,"x_min":101,"x_max":697,"o":"m 546 0 l 546 119 l 539 119 q 473 24 519 65 q 336 -17 426 -17 q 164 56 226 -17 q 101 263 101 129 l 101 722 l 253 722 l 253 282 q 287 155 253 199 q 390 111 321 111 q 466 125 431 111 q 524 167 501 139 q 546 236 546 194 l 546 722 l 697 722 l 697 0 l 546 0 m 503 843 q 444 854 469 843 q 394 876 418 865 q 338 900 361 892 q 292 908 314 908 q 251 899 269 908 q 211 872 232 890 l 154 944 q 210 1000 175 976 q 297 1024 246 1024 q 356 1013 331 1024 q 406 992 382 1003 q 463 968 439 976 q 508 960 486 960 q 550 969 532 960 q 589 996 568 978 l 646 924 q 590 867 625 892 q 503 843 554 843 z "},"ư":{"ha":806,"x_min":101,"x_max":800,"o":"m 696 0 l 546 0 l 546 119 l 539 119 q 473 24 519 65 q 336 -17 426 -17 q 164 56 226 -17 q 101 263 101 129 l 101 722 l 253 722 l 253 282 q 287 155 253 199 q 390 111 321 111 q 466 125 431 111 q 524 167 501 139 q 546 236 546 194 l 546 722 l 671 722 l 671 874 l 800 874 l 800 738 q 790 676 800 700 q 757 640 779 651 q 700 628 735 628 l 653 628 l 696 668 l 696 0 z "},"ứ":{"ha":806,"x_min":101,"x_max":800,"o":"m 696 0 l 546 0 l 546 119 l 539 119 q 473 24 519 65 q 336 -17 426 -17 q 164 56 226 -17 q 101 263 101 129 l 101 722 l 253 722 l 253 282 q 287 155 253 199 q 390 111 321 111 q 466 125 431 111 q 524 167 501 139 q 546 236 546 194 l 546 722 l 671 722 l 671 874 l 800 874 l 800 738 q 790 676 800 700 q 757 640 779 651 q 700 628 735 628 l 653 628 l 696 668 l 696 0 m 578 1040 l 414 808 l 319 854 l 446 1104 l 578 1040 z "},"ự":{"ha":806,"x_min":101,"x_max":800,"o":"m 696 0 l 546 0 l 546 119 l 539 119 q 473 24 519 65 q 336 -17 426 -17 q 164 56 226 -17 q 101 263 101 129 l 101 722 l 253 722 l 253 282 q 287 155 253 199 q 390 111 321 111 q 466 125 431 111 q 524 167 501 139 q 546 236 546 194 l 546 722 l 671 722 l 671 874 l 800 874 l 800 738 q 790 676 800 700 q 757 640 779 651 q 700 628 735 628 l 653 628 l 696 668 l 696 0 m 396 -256 q 328 -235 350 -256 q 307 -182 307 -214 l 307 -157 q 328 -104 307 -125 q 396 -83 350 -83 q 464 -104 443 -83 q 485 -157 485 -125 l 485 -182 q 464 -235 485 -214 q 396 -256 443 -256 z "},"ừ":{"ha":806,"x_min":101,"x_max":800,"o":"m 696 0 l 546 0 l 546 119 l 539 119 q 473 24 519 65 q 336 -17 426 -17 q 164 56 226 -17 q 101 263 101 129 l 101 722 l 253 722 l 253 282 q 287 155 253 199 q 390 111 321 111 q 466 125 431 111 q 524 167 501 139 q 546 236 546 194 l 546 722 l 671 722 l 671 874 l 800 874 l 800 738 q 790 676 800 700 q 757 640 779 651 q 700 628 735 628 l 653 628 l 696 668 l 696 0 m 383 808 l 219 1040 l 351 1104 l 478 854 l 383 808 z "},"ử":{"ha":806,"x_min":101,"x_max":800,"o":"m 696 0 l 546 0 l 546 119 l 539 119 q 473 24 519 65 q 336 -17 426 -17 q 164 56 226 -17 q 101 263 101 129 l 101 722 l 253 722 l 253 282 q 287 155 253 199 q 390 111 321 111 q 466 125 431 111 q 524 167 501 139 q 546 236 546 194 l 546 722 l 671 722 l 671 874 l 800 874 l 800 738 q 790 676 800 700 q 757 640 779 651 q 700 628 735 628 l 653 628 l 696 668 l 696 0 m 261 974 l 261 1085 l 432 1085 q 521 1059 496 1085 q 546 997 546 1033 q 526 922 546 963 q 474 840 507 882 l 438 797 l 357 836 l 426 974 l 261 974 z "},"ữ":{"ha":806,"x_min":101,"x_max":800,"o":"m 696 0 l 546 0 l 546 119 l 539 119 q 473 24 519 65 q 336 -17 426 -17 q 164 56 226 -17 q 101 263 101 129 l 101 722 l 253 722 l 253 282 q 287 155 253 199 q 390 111 321 111 q 466 125 431 111 q 524 167 501 139 q 546 236 546 194 l 546 722 l 671 722 l 671 874 l 800 874 l 800 738 q 790 676 800 700 q 757 640 779 651 q 700 628 735 628 l 653 628 l 696 668 l 696 0 m 488 847 q 436 856 458 847 q 393 876 414 865 q 348 897 367 889 q 307 906 329 906 q 269 897 288 906 q 233 871 251 888 l 176 940 q 230 997 197 972 q 310 1021 263 1021 q 362 1011 339 1021 q 404 992 385 1001 q 450 970 431 978 q 490 963 469 963 q 528 971 510 963 q 564 997 546 979 l 621 928 q 568 872 601 896 q 488 847 535 847 z "},"ǖ":{"ha":806,"x_min":101,"x_max":697,"o":"m 546 0 l 546 119 l 539 119 q 473 24 519 65 q 336 -17 426 -17 q 164 56 226 -17 q 101 263 101 129 l 101 722 l 253 722 l 253 282 q 287 155 253 199 q 390 111 321 111 q 466 125 431 111 q 524 167 501 139 q 546 236 546 194 l 546 722 l 697 722 l 697 0 l 546 0 m 197 1063 l 197 1178 l 603 1178 l 603 1063 l 197 1063 m 256 824 q 190 844 210 824 q 169 897 169 865 l 169 921 q 190 974 169 953 q 256 994 210 994 q 323 974 303 994 q 343 921 343 953 l 343 897 q 323 844 343 865 q 256 824 303 824 m 544 824 q 477 844 497 824 q 457 897 457 865 l 457 921 q 477 974 457 953 q 544 994 497 994 q 611 974 592 994 q 631 921 631 953 l 631 897 q 611 844 631 865 q 544 824 592 824 z "},"ǘ":{"ha":806,"x_min":101,"x_max":697,"o":"m 546 0 l 546 119 l 539 119 q 473 24 519 65 q 336 -17 426 -17 q 164 56 226 -17 q 101 263 101 129 l 101 722 l 253 722 l 253 282 q 287 155 253 199 q 390 111 321 111 q 466 125 431 111 q 524 167 501 139 q 546 236 546 194 l 546 722 l 697 722 l 697 0 l 546 0 m 579 1221 l 415 990 l 329 1032 l 456 1282 l 579 1221 m 256 824 q 190 844 210 824 q 169 897 169 865 l 169 921 q 190 974 169 953 q 256 994 210 994 q 323 974 303 994 q 343 921 343 953 l 343 897 q 323 844 343 865 q 256 824 303 824 m 544 824 q 477 844 497 824 q 457 897 457 865 l 457 921 q 477 974 457 953 q 544 994 497 994 q 611 974 592 994 q 631 921 631 953 l 631 897 q 611 844 631 865 q 544 824 592 824 z "},"ǜ":{"ha":806,"x_min":101,"x_max":697,"o":"m 546 0 l 546 119 l 539 119 q 473 24 519 65 q 336 -17 426 -17 q 164 56 226 -17 q 101 263 101 129 l 101 722 l 253 722 l 253 282 q 287 155 253 199 q 390 111 321 111 q 466 125 431 111 q 524 167 501 139 q 546 236 546 194 l 546 722 l 697 722 l 697 0 l 546 0 m 385 990 l 221 1221 l 344 1282 l 471 1032 l 385 990 m 256 824 q 190 844 210 824 q 169 897 169 865 l 169 921 q 190 974 169 953 q 256 994 210 994 q 323 974 303 994 q 343 921 343 953 l 343 897 q 323 844 343 865 q 256 824 303 824 m 544 824 q 477 844 497 824 q 457 897 457 865 l 457 921 q 477 974 457 953 q 544 994 497 994 q 611 974 592 994 q 631 921 631 953 l 631 897 q 611 844 631 865 q 544 824 592 824 z "},"ǚ":{"ha":806,"x_min":101,"x_max":697,"o":"m 546 0 l 546 119 l 539 119 q 473 24 519 65 q 336 -17 426 -17 q 164 56 226 -17 q 101 263 101 129 l 101 722 l 253 722 l 253 282 q 287 155 253 199 q 390 111 321 111 q 466 125 431 111 q 524 167 501 139 q 546 236 546 194 l 546 722 l 697 722 l 697 0 l 546 0 m 468 1026 l 332 1026 l 158 1219 l 232 1282 l 400 1131 l 568 1282 l 642 1219 l 468 1026 m 256 824 q 190 844 210 824 q 169 897 169 865 l 169 921 q 190 974 169 953 q 256 994 210 994 q 323 974 303 994 q 343 921 343 953 l 343 897 q 323 844 343 865 q 256 824 303 824 m 544 824 q 477 844 497 824 q 457 897 457 865 l 457 921 q 477 974 457 953 q 544 994 497 994 q 611 974 592 994 q 631 921 631 953 l 631 897 q 611 844 631 865 q 544 824 592 824 z "},"ẃ":{"ha":1110,"x_min":36,"x_max":1074,"o":"m 233 0 l 36 722 l 183 722 l 257 419 l 322 144 l 326 144 l 401 419 l 489 722 l 625 722 l 714 419 l 790 144 l 794 144 l 858 419 l 933 722 l 1074 722 l 879 0 l 708 0 l 613 329 l 556 535 l 551 535 l 496 329 l 400 0 l 233 0 m 735 1040 l 571 808 l 476 854 l 603 1104 l 735 1040 z "},"ŵ":{"ha":1110,"x_min":36,"x_max":1074,"o":"m 233 0 l 36 722 l 183 722 l 257 419 l 322 144 l 326 144 l 401 419 l 489 722 l 625 722 l 714 419 l 790 144 l 794 144 l 858 419 l 933 722 l 1074 722 l 879 0 l 708 0 l 613 329 l 556 535 l 551 535 l 496 329 l 400 0 l 233 0 m 479 1081 l 632 1081 l 799 872 l 721 813 l 556 975 l 390 813 l 313 872 l 479 1081 z "},"ẅ":{"ha":1110,"x_min":36,"x_max":1074,"o":"m 233 0 l 36 722 l 183 722 l 257 419 l 322 144 l 326 144 l 401 419 l 489 722 l 625 722 l 714 419 l 790 144 l 794 144 l 858 419 l 933 722 l 1074 722 l 879 0 l 708 0 l 613 329 l 556 535 l 551 535 l 496 329 l 400 0 l 233 0 m 417 847 q 350 868 369 847 q 331 922 331 889 l 331 946 q 350 999 331 978 q 417 1019 369 1019 q 483 999 464 1019 q 503 946 503 978 l 503 922 q 483 868 503 889 q 417 847 464 847 m 694 847 q 628 868 649 847 q 608 922 608 889 l 608 946 q 628 999 608 978 q 694 1019 649 1019 q 761 999 742 1019 q 781 946 781 978 l 781 922 q 761 868 781 889 q 694 847 742 847 z "},"ẁ":{"ha":1110,"x_min":36,"x_max":1074,"o":"m 233 0 l 36 722 l 183 722 l 257 419 l 322 144 l 326 144 l 401 419 l 489 722 l 625 722 l 714 419 l 790 144 l 794 144 l 858 419 l 933 722 l 1074 722 l 879 0 l 708 0 l 613 329 l 556 535 l 551 535 l 496 329 l 400 0 l 233 0 m 540 808 l 376 1040 l 508 1104 l 635 854 l 540 808 z "},"ý":{"ha":714,"x_min":17,"x_max":697,"o":"m 407 297 l 551 722 l 697 722 l 393 -143 q 353 -222 376 -192 q 295 -265 331 -251 q 203 -278 260 -278 l 115 -278 l 115 -154 l 238 -154 l 279 -32 l 17 722 l 168 722 l 313 297 l 354 140 l 361 140 l 407 297 m 539 1040 l 375 808 l 281 854 l 407 1104 l 539 1040 z "},"ŷ":{"ha":714,"x_min":17,"x_max":697,"o":"m 407 297 l 551 722 l 697 722 l 393 -143 q 353 -222 376 -192 q 295 -265 331 -251 q 203 -278 260 -278 l 115 -278 l 115 -154 l 238 -154 l 279 -32 l 17 722 l 168 722 l 313 297 l 354 140 l 361 140 l 407 297 m 283 1081 l 436 1081 l 603 872 l 525 813 l 360 975 l 194 813 l 117 872 l 283 1081 z "},"ÿ":{"ha":714,"x_min":17,"x_max":697,"o":"m 407 297 l 551 722 l 697 722 l 393 -143 q 353 -222 376 -192 q 295 -265 331 -251 q 203 -278 260 -278 l 115 -278 l 115 -154 l 238 -154 l 279 -32 l 17 722 l 168 722 l 313 297 l 354 140 l 361 140 l 407 297 m 221 847 q 154 868 174 847 q 135 922 135 889 l 135 946 q 154 999 135 978 q 221 1019 174 1019 q 288 999 268 1019 q 307 946 307 978 l 307 922 q 288 868 307 889 q 221 847 268 847 m 499 847 q 433 868 453 847 q 413 922 413 889 l 413 946 q 433 999 413 978 q 499 1019 453 1019 q 565 999 546 1019 q 585 946 585 978 l 585 922 q 565 868 585 889 q 499 847 546 847 z "},"ỵ":{"ha":714,"x_min":17,"x_max":697,"o":"m 407 297 l 551 722 l 697 722 l 393 -143 q 353 -222 376 -192 q 295 -265 331 -251 q 203 -278 260 -278 l 115 -278 l 115 -154 l 238 -154 l 279 -32 l 17 722 l 168 722 l 313 297 l 354 140 l 361 140 l 407 297 m 568 -256 q 501 -235 522 -256 q 479 -182 479 -214 l 479 -157 q 501 -104 479 -125 q 568 -83 522 -83 q 636 -104 615 -83 q 657 -157 657 -125 l 657 -182 q 636 -235 657 -214 q 568 -256 615 -256 z "},"ỳ":{"ha":714,"x_min":17,"x_max":697,"o":"m 407 297 l 551 722 l 697 722 l 393 -143 q 353 -222 376 -192 q 295 -265 331 -251 q 203 -278 260 -278 l 115 -278 l 115 -154 l 238 -154 l 279 -32 l 17 722 l 168 722 l 313 297 l 354 140 l 361 140 l 407 297 m 344 808 l 181 1040 l 313 1104 l 439 854 l 344 808 z "},"ỷ":{"ha":714,"x_min":17,"x_max":697,"o":"m 407 297 l 551 722 l 697 722 l 393 -143 q 353 -222 376 -192 q 295 -265 331 -251 q 203 -278 260 -278 l 115 -278 l 115 -154 l 238 -154 l 279 -32 l 17 722 l 168 722 l 313 297 l 354 140 l 361 140 l 407 297 m 222 974 l 222 1085 l 393 1085 q 482 1059 457 1085 q 507 997 507 1033 q 488 922 507 963 q 435 840 468 882 l 399 797 l 318 836 l 388 974 l 222 974 z "},"ỹ":{"ha":714,"x_min":17,"x_max":697,"o":"m 407 297 l 551 722 l 697 722 l 393 -143 q 353 -222 376 -192 q 295 -265 331 -251 q 203 -278 260 -278 l 115 -278 l 115 -154 l 238 -154 l 279 -32 l 17 722 l 168 722 l 313 297 l 354 140 l 361 140 l 407 297 m 463 843 q 403 854 429 843 q 354 876 378 865 q 297 900 321 892 q 251 908 274 908 q 210 899 229 908 q 171 872 192 890 l 114 944 q 170 1000 135 976 q 257 1024 206 1024 q 316 1013 290 1024 q 365 992 342 1003 q 422 968 399 976 q 468 960 446 960 q 510 969 492 960 q 549 996 528 978 l 606 924 q 549 867 585 892 q 463 843 514 843 z "},"ź":{"ha":676,"x_min":50,"x_max":626,"o":"m 626 0 l 50 0 l 50 122 l 438 599 l 63 599 l 63 722 l 617 722 l 617 606 l 224 124 l 626 124 l 626 0 m 518 1040 l 354 808 l 260 854 l 386 1104 l 518 1040 z "},"ž":{"ha":676,"x_min":50,"x_max":626,"o":"m 626 0 l 50 0 l 50 122 l 438 599 l 63 599 l 63 722 l 617 722 l 617 606 l 224 124 l 626 124 l 626 0 m 415 825 l 263 825 l 96 1033 l 174 1092 l 339 931 l 504 1092 l 582 1033 l 415 825 z "},"ż":{"ha":676,"x_min":50,"x_max":626,"o":"m 626 0 l 50 0 l 50 122 l 438 599 l 63 599 l 63 722 l 617 722 l 617 606 l 224 124 l 626 124 l 626 0 m 339 840 q 268 863 290 840 q 246 919 246 885 l 246 944 q 268 1001 246 979 q 339 1024 290 1024 q 410 1001 389 1024 q 432 944 432 979 l 432 919 q 410 863 432 885 q 339 840 389 840 z "},"Á":{"ha":917,"x_min":31,"x_max":886,"o":"m 886 0 l 722 0 l 638 263 l 275 263 l 189 0 l 31 0 l 361 969 l 557 969 l 886 0 m 599 397 l 503 685 l 458 825 l 451 825 l 407 685 l 311 397 l 599 397 m 636 1271 l 472 1040 l 378 1085 l 504 1335 l 636 1271 z "},"Ă":{"ha":917,"x_min":31,"x_max":886,"o":"m 886 0 l 722 0 l 638 263 l 275 263 l 189 0 l 31 0 l 361 969 l 557 969 l 886 0 m 599 397 l 503 685 l 458 825 l 451 825 l 407 685 l 311 397 l 599 397 m 457 1049 q 359 1067 399 1049 q 293 1117 319 1086 q 251 1182 267 1147 q 224 1249 235 1217 l 307 1292 l 335 1246 q 385 1183 360 1207 q 457 1160 410 1160 q 530 1183 504 1160 q 579 1246 556 1207 l 607 1292 l 690 1249 q 651 1159 676 1206 q 579 1081 625 1113 q 457 1049 533 1049 z "},"Ǎ":{"ha":917,"x_min":31,"x_max":886,"o":"m 886 0 l 722 0 l 638 263 l 275 263 l 189 0 l 31 0 l 361 969 l 557 969 l 886 0 m 599 397 l 503 685 l 458 825 l 451 825 l 407 685 l 311 397 l 599 397 m 533 1056 l 381 1056 l 214 1264 l 292 1322 l 457 1161 l 622 1322 l 700 1264 l 533 1056 z "},"Â":{"ha":917,"x_min":31,"x_max":886,"o":"m 886 0 l 722 0 l 638 263 l 275 263 l 189 0 l 31 0 l 361 969 l 557 969 l 886 0 m 599 397 l 503 685 l 458 825 l 451 825 l 407 685 l 311 397 l 599 397 m 381 1311 l 533 1311 l 700 1103 l 622 1044 l 457 1206 l 292 1044 l 214 1103 l 381 1311 z "},"Ä":{"ha":917,"x_min":31,"x_max":886,"o":"m 886 0 l 722 0 l 638 263 l 275 263 l 189 0 l 31 0 l 361 969 l 557 969 l 886 0 m 599 397 l 503 685 l 458 825 l 451 825 l 407 685 l 311 397 l 599 397 m 318 1078 q 251 1099 271 1078 q 231 1153 231 1121 l 231 1178 q 251 1231 231 1210 q 318 1253 271 1253 q 385 1231 365 1253 q 406 1178 406 1210 l 406 1153 q 385 1099 406 1121 q 318 1078 365 1078 m 596 1078 q 529 1099 550 1078 q 508 1153 508 1121 l 508 1178 q 529 1231 508 1210 q 596 1253 550 1253 q 663 1231 643 1253 q 683 1178 683 1210 l 683 1153 q 663 1099 683 1121 q 596 1078 643 1078 z "},"Ạ":{"ha":917,"x_min":31,"x_max":886,"o":"m 886 0 l 722 0 l 638 263 l 275 263 l 189 0 l 31 0 l 361 969 l 557 969 l 886 0 m 599 397 l 503 685 l 458 825 l 451 825 l 407 685 l 311 397 l 599 397 m 457 -256 q 390 -235 411 -256 q 368 -182 368 -214 l 368 -157 q 390 -104 368 -125 q 457 -83 411 -83 q 525 -104 504 -83 q 546 -157 546 -125 l 546 -182 q 525 -235 546 -214 q 457 -256 504 -256 z "},"À":{"ha":917,"x_min":31,"x_max":886,"o":"m 886 0 l 722 0 l 638 263 l 275 263 l 189 0 l 31 0 l 361 969 l 557 969 l 886 0 m 599 397 l 503 685 l 458 825 l 451 825 l 407 685 l 311 397 l 599 397 m 442 1040 l 278 1271 l 410 1335 l 536 1085 l 442 1040 z "},"Ả":{"ha":917,"x_min":31,"x_max":886,"o":"m 886 0 l 722 0 l 638 263 l 275 263 l 189 0 l 31 0 l 361 969 l 557 969 l 886 0 m 599 397 l 503 685 l 458 825 l 451 825 l 407 685 l 311 397 l 599 397 m 319 1204 l 319 1315 l 490 1315 q 579 1290 554 1315 q 604 1228 604 1264 q 585 1153 604 1193 q 532 1071 565 1113 l 496 1028 l 415 1067 l 485 1204 l 319 1204 z "},"Ā":{"ha":917,"x_min":31,"x_max":886,"o":"m 886 0 l 722 0 l 638 263 l 275 263 l 189 0 l 31 0 l 361 969 l 557 969 l 886 0 m 599 397 l 503 685 l 458 825 l 451 825 l 407 685 l 311 397 l 599 397 m 254 1108 l 254 1224 l 660 1224 l 660 1108 l 254 1108 z "},"Ą":{"ha":917,"x_min":31,"x_max":922,"o":"m 31 0 l 361 969 l 557 969 l 886 0 q 792 -78 824 -49 q 751 -126 761 -107 q 740 -160 740 -144 q 754 -194 740 -185 q 788 -204 768 -204 q 828 -194 810 -204 q 858 -168 846 -183 l 922 -229 q 871 -273 907 -256 q 779 -290 835 -290 q 705 -279 739 -290 q 651 -244 671 -268 q 631 -179 631 -219 q 650 -112 631 -142 q 703 -56 669 -82 q 782 -6 738 -31 l 782 0 l 722 0 l 638 263 l 275 263 l 189 0 l 31 0 m 599 397 l 503 685 l 458 825 l 451 825 l 407 685 l 311 397 l 599 397 z "},"Å":{"ha":917,"x_min":31,"x_max":886,"o":"m 886 0 l 722 0 l 638 263 l 275 263 l 189 0 l 31 0 l 361 969 l 557 969 l 886 0 m 599 397 l 503 685 l 458 825 l 451 825 l 407 685 l 311 397 l 599 397 m 457 1019 q 366 1042 407 1019 q 301 1106 325 1065 q 276 1196 276 1146 q 301 1287 276 1247 q 366 1349 325 1326 q 457 1372 407 1372 q 549 1349 508 1372 q 613 1287 589 1326 q 638 1196 638 1247 q 613 1106 638 1146 q 549 1042 589 1065 q 457 1019 508 1019 m 457 1104 q 513 1124 493 1104 q 533 1178 533 1143 l 533 1215 q 513 1269 533 1250 q 457 1289 493 1289 q 401 1269 421 1289 q 381 1215 381 1250 l 381 1178 q 401 1124 381 1143 q 457 1104 421 1104 z "},"Ǻ":{"ha":917,"x_min":31,"x_max":886,"o":"m 886 0 l 722 0 l 638 263 l 275 263 l 189 0 l 31 0 l 361 969 l 557 969 l 886 0 m 599 397 l 503 685 l 458 825 l 451 825 l 407 685 l 311 397 l 599 397 m 629 1504 l 464 1364 l 394 1414 l 529 1572 l 629 1504 m 457 1015 q 328 1060 381 1015 q 275 1178 275 1106 q 328 1297 275 1251 q 457 1342 381 1342 q 586 1297 533 1342 q 639 1178 639 1251 q 586 1060 639 1106 q 457 1015 533 1015 m 457 1096 q 515 1114 494 1096 q 536 1167 536 1132 l 536 1190 q 515 1243 536 1225 q 457 1261 494 1261 q 399 1243 419 1261 q 378 1190 378 1225 l 378 1167 q 399 1114 378 1132 q 457 1096 419 1096 z "},"Ã":{"ha":917,"x_min":31,"x_max":886,"o":"m 886 0 l 722 0 l 638 263 l 275 263 l 189 0 l 31 0 l 361 969 l 557 969 l 886 0 m 599 397 l 503 685 l 458 825 l 451 825 l 407 685 l 311 397 l 599 397 m 560 1074 q 501 1085 526 1074 q 451 1107 475 1096 q 394 1131 418 1122 q 349 1139 371 1139 q 308 1130 326 1139 q 268 1103 289 1121 l 211 1175 q 267 1231 232 1207 q 354 1256 303 1256 q 413 1244 388 1256 q 463 1222 439 1233 q 519 1199 496 1207 q 565 1190 543 1190 q 607 1199 589 1190 q 646 1226 625 1208 l 703 1154 q 647 1098 682 1122 q 560 1074 611 1074 z "},"Ắ":{"ha":917,"x_min":31,"x_max":886,"o":"m 886 0 l 722 0 l 638 263 l 275 263 l 189 0 l 31 0 l 361 969 l 557 969 l 886 0 m 599 397 l 503 685 l 458 825 l 451 825 l 407 685 l 311 397 l 599 397 m 457 1036 q 335 1066 382 1036 q 260 1139 288 1096 q 218 1224 233 1182 l 299 1269 l 328 1222 q 383 1162 353 1181 q 457 1143 413 1143 q 533 1163 503 1143 q 586 1222 563 1182 l 615 1269 l 696 1224 q 653 1139 681 1182 q 580 1066 626 1096 q 457 1036 533 1036 m 633 1451 l 472 1221 l 386 1263 l 511 1513 l 633 1451 z "},"Ặ":{"ha":917,"x_min":31,"x_max":886,"o":"m 886 0 l 722 0 l 638 263 l 275 263 l 189 0 l 31 0 l 361 969 l 557 969 l 886 0 m 599 397 l 503 685 l 458 825 l 451 825 l 407 685 l 311 397 l 599 397 m 457 1049 q 359 1067 399 1049 q 293 1117 319 1086 q 251 1182 267 1147 q 224 1249 235 1217 l 307 1292 l 335 1246 q 385 1183 360 1207 q 457 1160 410 1160 q 530 1183 504 1160 q 579 1246 556 1207 l 607 1292 l 690 1249 q 651 1159 676 1206 q 579 1081 625 1113 q 457 1049 533 1049 m 457 -256 q 390 -235 411 -256 q 368 -182 368 -214 l 368 -157 q 390 -104 368 -125 q 457 -83 411 -83 q 525 -104 504 -83 q 546 -157 546 -125 l 546 -182 q 525 -235 546 -214 q 457 -256 504 -256 z "},"Ằ":{"ha":917,"x_min":31,"x_max":886,"o":"m 886 0 l 722 0 l 638 263 l 275 263 l 189 0 l 31 0 l 361 969 l 557 969 l 886 0 m 599 397 l 503 685 l 458 825 l 451 825 l 407 685 l 311 397 l 599 397 m 457 1036 q 335 1066 382 1036 q 260 1139 288 1096 q 218 1224 233 1182 l 299 1269 l 328 1222 q 383 1162 353 1181 q 457 1143 413 1143 q 533 1163 503 1143 q 586 1222 563 1182 l 615 1269 l 696 1224 q 653 1139 681 1182 q 580 1066 626 1096 q 457 1036 533 1036 m 442 1221 l 282 1451 l 404 1513 l 528 1264 l 442 1221 z "},"Ẳ":{"ha":917,"x_min":31,"x_max":886,"o":"m 886 0 l 722 0 l 638 263 l 275 263 l 189 0 l 31 0 l 361 969 l 557 969 l 886 0 m 599 397 l 503 685 l 458 825 l 451 825 l 407 685 l 311 397 l 599 397 m 308 1390 l 308 1496 l 464 1496 q 553 1470 528 1496 q 578 1410 578 1444 q 557 1333 578 1374 q 503 1251 536 1293 l 468 1208 l 393 1246 l 467 1390 l 308 1390 m 457 1036 q 335 1066 382 1036 q 260 1139 288 1096 q 218 1224 233 1182 l 299 1269 l 328 1222 q 383 1162 353 1181 q 457 1143 413 1143 q 533 1163 503 1143 q 586 1222 563 1182 l 615 1269 l 696 1224 q 653 1139 681 1182 q 580 1066 626 1096 q 457 1036 533 1036 z "},"Ẵ":{"ha":917,"x_min":31,"x_max":886,"o":"m 886 0 l 722 0 l 638 263 l 275 263 l 189 0 l 31 0 l 361 969 l 557 969 l 886 0 m 599 397 l 503 685 l 458 825 l 451 825 l 407 685 l 311 397 l 599 397 m 557 1313 q 498 1323 524 1313 q 450 1343 472 1333 q 394 1367 418 1358 q 349 1375 371 1375 q 308 1367 326 1375 q 268 1340 289 1358 l 214 1407 q 271 1463 236 1439 q 357 1486 306 1486 q 416 1475 390 1486 q 464 1453 442 1464 q 519 1430 496 1438 q 564 1422 543 1422 q 606 1431 588 1422 q 646 1458 624 1440 l 700 1392 q 644 1336 679 1360 q 557 1313 608 1313 m 457 1036 q 335 1066 382 1036 q 260 1139 288 1096 q 218 1224 233 1182 l 299 1269 l 328 1222 q 383 1162 353 1181 q 457 1143 413 1143 q 533 1163 503 1143 q 586 1222 563 1182 l 615 1269 l 696 1224 q 653 1139 681 1182 q 580 1066 626 1096 q 457 1036 533 1036 z "},"Ấ":{"ha":917,"x_min":31,"x_max":886,"o":"m 886 0 l 722 0 l 638 263 l 275 263 l 189 0 l 31 0 l 361 969 l 557 969 l 886 0 m 599 397 l 503 685 l 458 825 l 451 825 l 407 685 l 311 397 l 599 397 m 846 1451 l 682 1221 l 596 1263 l 722 1513 l 846 1451 m 389 1288 l 525 1288 l 699 1093 l 625 1031 l 457 1182 l 289 1031 l 215 1093 l 389 1288 z "},"Ậ":{"ha":917,"x_min":31,"x_max":886,"o":"m 886 0 l 722 0 l 638 263 l 275 263 l 189 0 l 31 0 l 361 969 l 557 969 l 886 0 m 599 397 l 503 685 l 458 825 l 451 825 l 407 685 l 311 397 l 599 397 m 381 1311 l 533 1311 l 700 1103 l 622 1044 l 457 1206 l 292 1044 l 214 1103 l 381 1311 m 457 -256 q 390 -235 411 -256 q 368 -182 368 -214 l 368 -157 q 390 -104 368 -125 q 457 -83 411 -83 q 525 -104 504 -83 q 546 -157 546 -125 l 546 -182 q 525 -235 546 -214 q 457 -256 504 -256 z "},"Ầ":{"ha":917,"x_min":31,"x_max":886,"o":"m 886 0 l 722 0 l 638 263 l 275 263 l 189 0 l 31 0 l 361 969 l 557 969 l 886 0 m 599 397 l 503 685 l 458 825 l 451 825 l 407 685 l 311 397 l 599 397 m 232 1221 l 68 1451 l 192 1513 l 318 1263 l 232 1221 m 389 1288 l 525 1288 l 699 1093 l 625 1031 l 457 1182 l 289 1031 l 215 1093 l 389 1288 z "},"Ẩ":{"ha":917,"x_min":31,"x_max":886,"o":"m 886 0 l 722 0 l 638 263 l 275 263 l 189 0 l 31 0 l 361 969 l 557 969 l 886 0 m 599 397 l 503 685 l 458 825 l 451 825 l 407 685 l 311 397 l 599 397 m 519 1390 l 519 1496 l 686 1496 q 774 1470 749 1496 q 800 1410 800 1444 q 778 1333 800 1374 q 724 1251 756 1293 l 688 1208 l 614 1247 l 688 1390 l 519 1390 m 389 1288 l 525 1288 l 699 1093 l 625 1031 l 457 1182 l 289 1031 l 215 1093 l 389 1288 z "},"Ẫ":{"ha":917,"x_min":31,"x_max":886,"o":"m 886 0 l 722 0 l 638 263 l 275 263 l 189 0 l 31 0 l 361 969 l 557 969 l 886 0 m 599 397 l 503 685 l 458 825 l 451 825 l 407 685 l 311 397 l 599 397 m 356 1493 q 415 1482 389 1493 q 464 1460 440 1471 q 521 1436 497 1444 q 567 1428 544 1428 q 608 1437 590 1428 q 647 1464 626 1446 l 701 1399 q 645 1342 681 1367 q 558 1318 610 1318 q 499 1328 525 1318 q 450 1350 474 1339 q 393 1374 417 1367 q 347 1382 369 1382 q 306 1373 325 1382 q 267 1346 288 1364 l 213 1413 q 269 1469 233 1444 q 356 1493 304 1493 m 389 1279 l 525 1279 l 697 1093 l 625 1031 l 457 1176 l 289 1031 l 217 1093 l 389 1279 z "},"Æ":{"ha":1296,"x_min":3,"x_max":1213,"o":"m 592 0 l 592 261 l 289 261 l 161 0 l 3 0 l 489 969 l 1213 969 l 1213 831 l 747 831 l 747 560 l 1169 560 l 1169 421 l 747 421 l 747 139 l 1213 139 l 1213 0 l 592 0 m 592 831 l 568 831 l 353 397 l 592 397 l 592 831 z "},"Ǽ":{"ha":1296,"x_min":3,"x_max":1213,"o":"m 592 0 l 592 261 l 289 261 l 161 0 l 3 0 l 489 969 l 1213 969 l 1213 831 l 747 831 l 747 560 l 1169 560 l 1169 421 l 747 421 l 747 139 l 1213 139 l 1213 0 l 592 0 m 592 831 l 568 831 l 353 397 l 592 397 l 592 831 m 1032 1271 l 868 1040 l 774 1085 l 900 1335 l 1032 1271 z "},"Ć":{"ha":881,"x_min":76,"x_max":833,"o":"m 483 -17 q 265 40 357 -17 q 125 206 174 96 q 76 479 76 315 q 125 755 76 642 q 265 927 174 868 q 483 986 357 986 q 694 931 608 986 q 829 767 779 875 l 697 694 q 620 805 672 764 q 483 846 568 846 q 307 768 371 846 q 243 556 243 690 l 243 407 q 307 199 243 274 q 483 124 371 124 q 625 169 569 124 q 707 285 681 214 l 833 208 q 697 44 785 104 q 483 -17 608 -17 m 658 1271 l 494 1040 l 400 1085 l 526 1335 l 658 1271 z "},"Č":{"ha":881,"x_min":76,"x_max":833,"o":"m 483 -17 q 265 40 357 -17 q 125 206 174 96 q 76 479 76 315 q 125 755 76 642 q 265 927 174 868 q 483 986 357 986 q 694 931 608 986 q 829 767 779 875 l 697 694 q 620 805 672 764 q 483 846 568 846 q 307 768 371 846 q 243 556 243 690 l 243 407 q 307 199 243 274 q 483 124 371 124 q 625 169 569 124 q 707 285 681 214 l 833 208 q 697 44 785 104 q 483 -17 608 -17 m 556 1056 l 403 1056 l 236 1264 l 314 1322 l 479 1161 l 644 1322 l 722 1264 l 556 1056 z "},"Ç":{"ha":881,"x_min":76,"x_max":833,"o":"m 483 846 q 307 768 371 846 q 243 556 243 690 l 243 407 q 307 199 243 274 q 483 124 371 124 q 625 169 569 124 q 707 285 681 214 l 833 208 q 703 47 786 107 q 503 -15 621 -12 l 490 -81 l 494 -86 q 525 -79 510 -82 q 554 -76 540 -76 q 623 -100 594 -76 q 651 -171 651 -124 q 628 -240 651 -212 q 567 -278 604 -267 q 485 -290 529 -290 q 385 -271 422 -290 q 332 -232 349 -251 l 390 -165 q 425 -194 403 -182 q 478 -206 447 -206 q 522 -196 504 -206 q 539 -165 539 -186 q 520 -133 539 -149 q 440 -110 501 -117 l 406 -106 l 424 -12 q 238 58 317 -1 q 118 223 160 118 q 76 479 76 328 q 125 755 76 642 q 265 927 174 868 q 483 986 357 986 q 694 931 608 986 q 829 767 779 875 l 697 694 q 620 805 672 764 q 483 846 568 846 z "},"Ĉ":{"ha":881,"x_min":76,"x_max":833,"o":"m 483 -17 q 265 40 357 -17 q 125 206 174 96 q 76 479 76 315 q 125 755 76 642 q 265 927 174 868 q 483 986 357 986 q 694 931 608 986 q 829 767 779 875 l 697 694 q 620 805 672 764 q 483 846 568 846 q 307 768 371 846 q 243 556 243 690 l 243 407 q 307 199 243 274 q 483 124 371 124 q 625 169 569 124 q 707 285 681 214 l 833 208 q 697 44 785 104 q 483 -17 608 -17 m 403 1311 l 556 1311 l 722 1103 l 644 1044 l 479 1206 l 314 1044 l 236 1103 l 403 1311 z "},"Ċ":{"ha":881,"x_min":76,"x_max":833,"o":"m 483 -17 q 265 40 357 -17 q 125 206 174 96 q 76 479 76 315 q 125 755 76 642 q 265 927 174 868 q 483 986 357 986 q 694 931 608 986 q 829 767 779 875 l 697 694 q 620 805 672 764 q 483 846 568 846 q 307 768 371 846 q 243 556 243 690 l 243 407 q 307 199 243 274 q 483 124 371 124 q 625 169 569 124 q 707 285 681 214 l 833 208 q 697 44 785 104 q 483 -17 608 -17 m 479 1067 q 405 1090 428 1067 q 382 1150 382 1114 l 382 1179 q 405 1239 382 1215 q 479 1263 428 1263 q 554 1239 532 1263 q 576 1179 576 1215 l 576 1150 q 554 1090 576 1114 q 479 1067 532 1067 z "},"Ď":{"ha":947,"x_min":119,"x_max":872,"o":"m 119 0 l 119 969 l 463 969 q 678 916 586 969 q 822 755 771 863 q 872 485 872 647 q 822 215 872 322 q 678 53 771 107 q 463 0 586 0 l 119 0 m 276 139 l 463 139 q 590 169 535 139 q 674 260 644 200 q 704 407 704 319 l 704 563 q 674 710 704 650 q 590 800 644 769 q 463 831 535 831 l 276 831 l 276 139 m 513 1056 l 360 1056 l 193 1264 l 271 1322 l 436 1161 l 601 1322 l 679 1264 l 513 1056 z "},"Đ":{"ha":953,"x_min":18,"x_max":876,"o":"m 125 0 l 125 444 l 18 444 l 18 563 l 125 563 l 125 969 l 467 969 q 684 916 592 969 q 826 755 776 863 q 876 485 876 647 q 826 215 876 322 q 684 53 776 107 q 467 0 592 0 l 125 0 m 282 139 l 467 139 q 594 169 540 139 q 679 260 649 200 q 710 407 710 319 l 710 563 q 679 710 710 650 q 594 800 649 769 q 467 831 540 831 l 282 831 l 282 563 l 461 563 l 461 444 l 282 444 l 282 139 z "},"Ð":{"ha":953,"x_min":18,"x_max":876,"o":"m 125 0 l 125 444 l 18 444 l 18 563 l 125 563 l 125 969 l 467 969 q 684 916 592 969 q 826 755 776 863 q 876 485 876 647 q 826 215 876 322 q 684 53 776 107 q 467 0 592 0 l 125 0 m 282 139 l 467 139 q 594 169 540 139 q 679 260 649 200 q 710 407 710 319 l 710 563 q 679 710 710 650 q 594 800 649 769 q 467 831 540 831 l 282 831 l 282 563 l 461 563 l 461 444 l 282 444 l 282 139 z "},"É":{"ha":824,"x_min":119,"x_max":740,"o":"m 740 0 l 119 0 l 119 969 l 740 969 l 740 831 l 276 831 l 276 560 l 697 560 l 697 421 l 276 421 l 276 139 l 740 139 l 740 0 m 608 1271 l 444 1040 l 350 1085 l 476 1335 l 608 1271 z "},"Ĕ":{"ha":824,"x_min":119,"x_max":740,"o":"m 740 0 l 119 0 l 119 969 l 740 969 l 740 831 l 276 831 l 276 560 l 697 560 l 697 421 l 276 421 l 276 139 l 740 139 l 740 0 m 429 1049 q 331 1067 371 1049 q 265 1117 292 1086 q 223 1182 239 1147 q 196 1249 207 1217 l 279 1292 l 307 1246 q 357 1183 332 1207 q 429 1160 382 1160 q 502 1183 476 1160 q 551 1246 528 1207 l 579 1292 l 663 1249 q 623 1159 649 1206 q 551 1081 597 1113 q 429 1049 506 1049 z "},"Ě":{"ha":824,"x_min":119,"x_max":740,"o":"m 740 0 l 119 0 l 119 969 l 740 969 l 740 831 l 276 831 l 276 560 l 697 560 l 697 421 l 276 421 l 276 139 l 740 139 l 740 0 m 506 1056 l 353 1056 l 186 1264 l 264 1322 l 429 1161 l 594 1322 l 672 1264 l 506 1056 z "},"Ê":{"ha":824,"x_min":119,"x_max":740,"o":"m 740 0 l 119 0 l 119 969 l 740 969 l 740 831 l 276 831 l 276 560 l 697 560 l 697 421 l 276 421 l 276 139 l 740 139 l 740 0 m 353 1311 l 506 1311 l 672 1103 l 594 1044 l 429 1206 l 264 1044 l 186 1103 l 353 1311 z "},"Ë":{"ha":824,"x_min":119,"x_max":740,"o":"m 740 0 l 119 0 l 119 969 l 740 969 l 740 831 l 276 831 l 276 560 l 697 560 l 697 421 l 276 421 l 276 139 l 740 139 l 740 0 m 290 1078 q 223 1099 243 1078 q 203 1153 203 1121 l 203 1178 q 223 1231 203 1210 q 290 1253 243 1253 q 358 1231 338 1253 q 378 1178 378 1210 l 378 1153 q 358 1099 378 1121 q 290 1078 338 1078 m 568 1078 q 501 1099 522 1078 q 481 1153 481 1121 l 481 1178 q 501 1231 481 1210 q 568 1253 522 1253 q 635 1231 615 1253 q 656 1178 656 1210 l 656 1153 q 635 1099 656 1121 q 568 1078 615 1078 z "},"Ė":{"ha":824,"x_min":119,"x_max":740,"o":"m 740 0 l 119 0 l 119 969 l 740 969 l 740 831 l 276 831 l 276 560 l 697 560 l 697 421 l 276 421 l 276 139 l 740 139 l 740 0 m 429 1067 q 355 1090 378 1067 q 332 1150 332 1114 l 332 1179 q 355 1239 332 1215 q 429 1263 378 1263 q 504 1239 482 1263 q 526 1179 526 1215 l 526 1150 q 504 1090 526 1114 q 429 1067 482 1067 z "},"Ẹ":{"ha":824,"x_min":119,"x_max":740,"o":"m 740 0 l 119 0 l 119 969 l 740 969 l 740 831 l 276 831 l 276 560 l 697 560 l 697 421 l 276 421 l 276 139 l 740 139 l 740 0 m 429 -256 q 362 -235 383 -256 q 340 -182 340 -214 l 340 -157 q 362 -104 340 -125 q 429 -83 383 -83 q 497 -104 476 -83 q 518 -157 518 -125 l 518 -182 q 497 -235 518 -214 q 429 -256 476 -256 z "},"È":{"ha":824,"x_min":119,"x_max":740,"o":"m 740 0 l 119 0 l 119 969 l 740 969 l 740 831 l 276 831 l 276 560 l 697 560 l 697 421 l 276 421 l 276 139 l 740 139 l 740 0 m 414 1040 l 250 1271 l 382 1335 l 508 1085 l 414 1040 z "},"Ẻ":{"ha":824,"x_min":119,"x_max":740,"o":"m 740 0 l 119 0 l 119 969 l 740 969 l 740 831 l 276 831 l 276 560 l 697 560 l 697 421 l 276 421 l 276 139 l 740 139 l 740 0 m 292 1204 l 292 1315 l 463 1315 q 551 1290 526 1315 q 576 1228 576 1264 q 557 1153 576 1193 q 504 1071 538 1113 l 468 1028 l 388 1067 l 457 1204 l 292 1204 z "},"Ē":{"ha":824,"x_min":119,"x_max":740,"o":"m 740 0 l 119 0 l 119 969 l 740 969 l 740 831 l 276 831 l 276 560 l 697 560 l 697 421 l 276 421 l 276 139 l 740 139 l 740 0 m 226 1108 l 226 1224 l 632 1224 l 632 1108 l 226 1108 z "},"Ę":{"ha":824,"x_min":119,"x_max":776,"o":"m 119 0 l 119 969 l 740 969 l 740 831 l 276 831 l 276 560 l 697 560 l 697 421 l 276 421 l 276 139 l 740 139 l 740 0 q 647 -78 678 -49 q 606 -126 617 -107 q 596 -160 596 -144 q 610 -194 596 -185 q 643 -204 624 -204 q 682 -194 664 -204 q 714 -168 700 -183 l 776 -229 q 726 -273 763 -256 q 635 -290 690 -290 q 560 -279 594 -290 q 506 -244 526 -268 q 485 -179 485 -219 q 528 -84 485 -125 q 636 -7 571 -43 l 635 0 l 119 0 z "},"Ẽ":{"ha":824,"x_min":119,"x_max":740,"o":"m 740 0 l 119 0 l 119 969 l 740 969 l 740 831 l 276 831 l 276 560 l 697 560 l 697 421 l 276 421 l 276 139 l 740 139 l 740 0 m 532 1074 q 473 1085 499 1074 q 424 1107 447 1096 q 367 1131 390 1122 q 321 1139 343 1139 q 280 1130 299 1139 q 240 1103 261 1121 l 183 1175 q 240 1231 204 1207 q 326 1256 275 1256 q 385 1244 360 1256 q 435 1222 411 1233 q 492 1199 468 1207 q 538 1190 515 1190 q 579 1199 561 1190 q 618 1226 597 1208 l 675 1154 q 619 1098 654 1122 q 532 1074 583 1074 z "},"Ế":{"ha":824,"x_min":119,"x_max":818,"o":"m 740 0 l 119 0 l 119 969 l 740 969 l 740 831 l 276 831 l 276 560 l 697 560 l 697 421 l 276 421 l 276 139 l 740 139 l 740 0 m 818 1451 l 654 1221 l 568 1263 l 694 1513 l 818 1451 m 361 1288 l 497 1288 l 671 1093 l 597 1031 l 429 1182 l 261 1031 l 188 1093 l 361 1288 z "},"Ệ":{"ha":824,"x_min":119,"x_max":740,"o":"m 740 0 l 119 0 l 119 969 l 740 969 l 740 831 l 276 831 l 276 560 l 697 560 l 697 421 l 276 421 l 276 139 l 740 139 l 740 0 m 353 1311 l 506 1311 l 672 1103 l 594 1044 l 429 1206 l 264 1044 l 186 1103 l 353 1311 m 429 -256 q 362 -235 383 -256 q 340 -182 340 -214 l 340 -157 q 362 -104 340 -125 q 429 -83 383 -83 q 497 -104 476 -83 q 518 -157 518 -125 l 518 -182 q 497 -235 518 -214 q 429 -256 476 -256 z "},"Ề":{"ha":824,"x_min":40,"x_max":740,"o":"m 740 0 l 119 0 l 119 969 l 740 969 l 740 831 l 276 831 l 276 560 l 697 560 l 697 421 l 276 421 l 276 139 l 740 139 l 740 0 m 204 1221 l 40 1451 l 164 1513 l 290 1263 l 204 1221 m 361 1288 l 497 1288 l 671 1093 l 597 1031 l 429 1182 l 261 1031 l 188 1093 l 361 1288 z "},"Ể":{"ha":824,"x_min":119,"x_max":771,"o":"m 740 0 l 119 0 l 119 969 l 740 969 l 740 831 l 276 831 l 276 560 l 697 560 l 697 421 l 276 421 l 276 139 l 740 139 l 740 0 m 492 1390 l 492 1496 l 658 1496 q 747 1470 721 1496 q 772 1410 772 1444 q 750 1333 772 1374 q 696 1251 728 1293 l 660 1208 l 586 1247 l 660 1390 l 492 1390 m 361 1288 l 497 1288 l 671 1093 l 597 1031 l 429 1182 l 261 1031 l 188 1093 l 361 1288 z "},"Ễ":{"ha":824,"x_min":119,"x_max":740,"o":"m 740 0 l 119 0 l 119 969 l 740 969 l 740 831 l 276 831 l 276 560 l 697 560 l 697 421 l 276 421 l 276 139 l 740 139 l 740 0 m 328 1493 q 387 1482 361 1493 q 436 1460 413 1471 q 493 1436 469 1444 q 539 1428 517 1428 q 581 1437 563 1428 q 619 1464 599 1446 l 674 1399 q 617 1342 653 1367 q 531 1318 582 1318 q 472 1328 497 1318 q 422 1350 446 1339 q 365 1374 389 1367 q 319 1382 342 1382 q 278 1373 297 1382 q 239 1346 260 1364 l 185 1413 q 241 1469 206 1444 q 328 1493 276 1493 m 361 1279 l 497 1279 l 669 1093 l 597 1031 l 429 1176 l 261 1031 l 189 1093 l 361 1279 z "},"Ə":{"ha":988,"x_min":76,"x_max":911,"o":"m 76 532 l 744 532 l 744 557 q 678 770 744 694 q 497 846 611 846 q 342 799 404 846 q 251 671 281 753 l 115 728 q 194 859 142 801 q 324 951 247 917 q 499 986 400 986 q 720 927 628 986 q 862 756 813 868 q 911 485 911 644 q 860 213 911 325 q 715 42 808 100 q 493 -17 621 -17 q 271 40 364 -17 q 127 208 178 96 q 76 485 76 319 l 76 532 m 242 403 l 242 397 q 274 258 242 319 q 362 160 306 196 q 493 124 418 124 q 624 159 567 124 q 712 257 681 194 q 743 397 743 319 l 743 403 l 242 403 z "},"Ğ":{"ha":979,"x_min":76,"x_max":881,"o":"m 742 0 l 742 147 l 736 147 q 654 31 722 78 q 476 -17 586 -17 q 270 41 361 -17 q 128 210 179 99 q 76 483 76 321 q 129 758 76 646 q 278 928 182 869 q 500 986 374 986 q 720 928 629 986 q 861 768 811 869 l 733 693 q 647 803 704 761 q 500 846 589 846 q 365 813 424 846 q 275 716 307 779 q 243 564 243 653 l 243 407 q 275 255 243 318 q 366 158 307 192 q 506 124 425 124 q 618 144 568 124 q 699 205 668 164 q 729 307 729 246 l 729 382 l 529 382 l 529 517 l 881 517 l 881 0 l 742 0 m 494 1049 q 397 1067 436 1049 q 331 1117 357 1086 q 288 1182 304 1147 q 261 1249 272 1217 l 344 1292 l 372 1246 q 422 1183 397 1207 q 494 1160 447 1160 q 567 1183 542 1160 q 617 1246 593 1207 l 644 1292 l 728 1249 q 688 1159 714 1206 q 617 1081 663 1113 q 494 1049 571 1049 z "},"Ĝ":{"ha":979,"x_min":76,"x_max":881,"o":"m 742 0 l 742 147 l 736 147 q 654 31 722 78 q 476 -17 586 -17 q 270 41 361 -17 q 128 210 179 99 q 76 483 76 321 q 129 758 76 646 q 278 928 182 869 q 500 986 374 986 q 720 928 629 986 q 861 768 811 869 l 733 693 q 647 803 704 761 q 500 846 589 846 q 365 813 424 846 q 275 716 307 779 q 243 564 243 653 l 243 407 q 275 255 243 318 q 366 158 307 192 q 506 124 425 124 q 618 144 568 124 q 699 205 668 164 q 729 307 729 246 l 729 382 l 529 382 l 529 517 l 881 517 l 881 0 l 742 0 m 418 1311 l 571 1311 l 738 1103 l 660 1044 l 494 1206 l 329 1044 l 251 1103 l 418 1311 z "},"Ģ":{"ha":979,"x_min":76,"x_max":881,"o":"m 742 0 l 742 147 l 736 147 q 654 31 722 78 q 476 -17 586 -17 q 270 41 361 -17 q 128 210 179 99 q 76 483 76 321 q 129 758 76 646 q 278 928 182 869 q 500 986 374 986 q 720 928 629 986 q 861 768 811 869 l 733 693 q 647 803 704 761 q 500 846 589 846 q 365 813 424 846 q 275 716 307 779 q 243 564 243 653 l 243 407 q 275 255 243 318 q 366 158 307 192 q 506 124 425 124 q 618 144 568 124 q 699 205 668 164 q 729 307 729 246 l 729 382 l 529 382 l 529 517 l 881 517 l 881 0 l 742 0 m 483 -78 q 544 -97 522 -78 q 565 -151 565 -117 l 565 -168 q 540 -274 565 -224 q 478 -358 514 -325 l 381 -358 q 431 -301 413 -328 q 458 -237 449 -274 q 414 -212 428 -233 q 400 -167 400 -192 l 400 -151 q 422 -97 400 -117 q 483 -78 443 -78 z "},"Ġ":{"ha":979,"x_min":76,"x_max":881,"o":"m 742 0 l 742 147 l 736 147 q 654 31 722 78 q 476 -17 586 -17 q 270 41 361 -17 q 128 210 179 99 q 76 483 76 321 q 129 758 76 646 q 278 928 182 869 q 500 986 374 986 q 720 928 629 986 q 861 768 811 869 l 733 693 q 647 803 704 761 q 500 846 589 846 q 365 813 424 846 q 275 716 307 779 q 243 564 243 653 l 243 407 q 275 255 243 318 q 366 158 307 192 q 506 124 425 124 q 618 144 568 124 q 699 205 668 164 q 729 307 729 246 l 729 382 l 529 382 l 529 517 l 881 517 l 881 0 l 742 0 m 494 1067 q 420 1090 443 1067 q 397 1150 397 1114 l 397 1179 q 420 1239 397 1215 q 494 1263 443 1263 q 569 1239 547 1263 q 592 1179 592 1215 l 592 1150 q 569 1090 592 1114 q 494 1067 547 1067 z "},"Ħ":{"ha":1003,"x_min":26,"x_max":976,"o":"m 721 0 l 721 421 l 282 421 l 282 0 l 125 0 l 125 713 l 26 713 l 26 831 l 125 831 l 125 969 l 282 969 l 282 831 l 721 831 l 721 969 l 878 969 l 878 831 l 976 831 l 976 713 l 878 713 l 878 0 l 721 0 m 282 560 l 721 560 l 721 713 l 282 713 l 282 560 z "},"Ĥ":{"ha":992,"x_min":119,"x_max":872,"o":"m 715 0 l 715 421 l 276 421 l 276 0 l 119 0 l 119 969 l 276 969 l 276 560 l 715 560 l 715 969 l 872 969 l 872 0 l 715 0 m 419 1311 l 572 1311 l 739 1103 l 661 1044 l 496 1206 l 331 1044 l 253 1103 l 419 1311 z "},"Í":{"ha":575,"x_min":78,"x_max":497,"o":"m 497 0 l 78 0 l 78 128 l 208 128 l 208 842 l 78 842 l 78 969 l 497 969 l 497 842 l 365 842 l 365 128 l 497 128 l 497 0 m 467 1271 l 303 1040 l 208 1085 l 335 1335 l 467 1271 z "},"Ĭ":{"ha":575,"x_min":54,"x_max":521,"o":"m 497 0 l 78 0 l 78 128 l 208 128 l 208 842 l 78 842 l 78 969 l 497 969 l 497 842 l 365 842 l 365 128 l 497 128 l 497 0 m 288 1049 q 190 1067 229 1049 q 124 1117 150 1086 q 81 1182 97 1147 q 54 1249 65 1217 l 138 1292 l 165 1246 q 215 1183 190 1207 q 288 1160 240 1160 q 360 1183 335 1160 q 410 1246 386 1207 l 438 1292 l 521 1249 q 481 1159 507 1206 q 410 1081 456 1113 q 288 1049 364 1049 z "},"Ǐ":{"ha":575,"x_min":44,"x_max":531,"o":"m 497 0 l 78 0 l 78 128 l 208 128 l 208 842 l 78 842 l 78 969 l 497 969 l 497 842 l 365 842 l 365 128 l 497 128 l 497 0 m 364 1056 l 211 1056 l 44 1264 l 122 1322 l 288 1161 l 453 1322 l 531 1264 l 364 1056 z "},"Î":{"ha":575,"x_min":44,"x_max":531,"o":"m 497 0 l 78 0 l 78 128 l 208 128 l 208 842 l 78 842 l 78 969 l 497 969 l 497 842 l 365 842 l 365 128 l 497 128 l 497 0 m 211 1311 l 364 1311 l 531 1103 l 453 1044 l 288 1206 l 122 1044 l 44 1103 l 211 1311 z "},"Ï":{"ha":575,"x_min":61,"x_max":514,"o":"m 497 0 l 78 0 l 78 128 l 208 128 l 208 842 l 78 842 l 78 969 l 497 969 l 497 842 l 365 842 l 365 128 l 497 128 l 497 0 m 149 1078 q 81 1099 101 1078 q 61 1153 61 1121 l 61 1178 q 81 1231 61 1210 q 149 1253 101 1253 q 216 1231 196 1253 q 236 1178 236 1210 l 236 1153 q 216 1099 236 1121 q 149 1078 196 1078 m 426 1078 q 360 1099 381 1078 q 339 1153 339 1121 l 339 1178 q 360 1231 339 1210 q 426 1253 381 1253 q 494 1231 474 1253 q 514 1178 514 1210 l 514 1153 q 494 1099 514 1121 q 426 1078 474 1078 z "},"İ":{"ha":575,"x_min":78,"x_max":497,"o":"m 497 0 l 78 0 l 78 128 l 208 128 l 208 842 l 78 842 l 78 969 l 497 969 l 497 842 l 365 842 l 365 128 l 497 128 l 497 0 m 288 1067 q 213 1090 236 1067 q 190 1150 190 1114 l 190 1179 q 213 1239 190 1215 q 288 1263 236 1263 q 363 1239 340 1263 q 385 1179 385 1215 l 385 1150 q 363 1090 385 1114 q 288 1067 340 1067 z "},"Ị":{"ha":575,"x_min":78,"x_max":497,"o":"m 497 0 l 78 0 l 78 128 l 208 128 l 208 842 l 78 842 l 78 969 l 497 969 l 497 842 l 365 842 l 365 128 l 497 128 l 497 0 m 288 -256 q 220 -235 242 -256 q 199 -182 199 -214 l 199 -157 q 220 -104 199 -125 q 288 -83 242 -83 q 356 -104 335 -83 q 376 -157 376 -125 l 376 -182 q 356 -235 376 -214 q 288 -256 335 -256 z "},"Ì":{"ha":575,"x_min":78,"x_max":497,"o":"m 497 0 l 78 0 l 78 128 l 208 128 l 208 842 l 78 842 l 78 969 l 497 969 l 497 842 l 365 842 l 365 128 l 497 128 l 497 0 m 272 1040 l 108 1271 l 240 1335 l 367 1085 l 272 1040 z "},"Ỉ":{"ha":575,"x_min":78,"x_max":497,"o":"m 497 0 l 78 0 l 78 128 l 208 128 l 208 842 l 78 842 l 78 969 l 497 969 l 497 842 l 365 842 l 365 128 l 497 128 l 497 0 m 150 1204 l 150 1315 l 321 1315 q 410 1290 385 1315 q 435 1228 435 1264 q 415 1153 435 1193 q 363 1071 396 1113 l 326 1028 l 246 1067 l 315 1204 l 150 1204 z "},"Ī":{"ha":575,"x_min":78,"x_max":497,"o":"m 497 0 l 78 0 l 78 128 l 208 128 l 208 842 l 78 842 l 78 969 l 497 969 l 497 842 l 365 842 l 365 128 l 497 128 l 497 0 m 85 1108 l 85 1224 l 490 1224 l 490 1108 l 85 1108 z "},"Į":{"ha":575,"x_min":78,"x_max":533,"o":"m 78 0 l 78 128 l 208 128 l 208 842 l 78 842 l 78 969 l 497 969 l 497 842 l 365 842 l 365 128 l 497 128 l 497 0 q 403 -78 435 -49 q 363 -126 372 -107 q 353 -160 353 -144 q 367 -194 353 -185 q 400 -204 381 -204 q 439 -194 421 -204 q 471 -168 457 -183 l 533 -229 q 483 -273 518 -256 q 392 -290 447 -290 q 317 -279 351 -290 q 263 -244 283 -268 q 242 -179 242 -219 q 282 -85 242 -125 q 393 -7 322 -46 l 392 0 l 78 0 z "},"Ĩ":{"ha":575,"x_min":40,"x_max":533,"o":"m 497 0 l 78 0 l 78 128 l 208 128 l 208 842 l 78 842 l 78 969 l 497 969 l 497 842 l 365 842 l 365 128 l 497 128 l 497 0 m 390 1074 q 331 1085 357 1074 q 282 1107 306 1096 q 225 1131 249 1122 q 179 1139 201 1139 q 138 1130 157 1139 q 99 1103 119 1121 l 42 1175 q 98 1231 63 1207 q 185 1256 133 1256 q 244 1244 218 1256 q 293 1222 269 1233 q 350 1199 326 1207 q 396 1190 374 1190 q 438 1199 419 1190 q 476 1226 456 1208 l 533 1154 q 477 1098 513 1122 q 390 1074 442 1074 z "},"Ĳ":{"ha":903,"x_min":114,"x_max":789,"o":"m 450 -17 q 224 53 306 -17 q 121 232 142 124 l 267 264 q 325 161 279 200 q 453 122 371 122 q 581 164 531 122 q 632 296 632 206 l 632 838 l 458 838 l 458 969 l 789 969 l 789 304 q 748 133 789 206 q 631 22 707 61 q 450 -17 554 -17 m 114 414 l 114 969 l 271 969 l 271 414 l 114 414 z "},"Ĵ":{"ha":738,"x_min":38,"x_max":632,"o":"m 150 969 l 624 969 l 624 264 q 588 116 624 179 q 485 18 551 53 q 329 -17 418 -17 q 130 51 203 -17 q 38 226 57 118 l 182 257 q 230 159 194 196 q 329 122 265 122 q 429 161 392 122 q 467 281 467 200 l 467 839 l 150 839 l 150 969 m 313 1311 l 465 1311 l 632 1103 l 554 1044 l 389 1206 l 224 1044 l 146 1103 l 313 1311 z "},"Ķ":{"ha":917,"x_min":119,"x_max":893,"o":"m 704 0 l 410 453 l 276 300 l 276 0 l 119 0 l 119 969 l 276 969 l 276 654 l 276 478 l 282 478 l 421 654 l 682 969 l 865 969 l 519 561 l 893 0 l 704 0 m 483 -78 q 544 -97 522 -78 q 565 -151 565 -117 l 565 -168 q 540 -274 565 -224 q 478 -358 514 -325 l 381 -358 q 431 -301 413 -328 q 458 -237 449 -274 q 414 -212 428 -233 q 400 -167 400 -192 l 400 -151 q 422 -97 400 -117 q 483 -78 443 -78 z "},"Ĺ":{"ha":713,"x_min":119,"x_max":671,"o":"m 671 0 l 119 0 l 119 969 l 276 969 l 276 139 l 671 139 l 671 0 m 378 1271 l 214 1040 l 119 1085 l 246 1335 l 378 1271 z "},"Ľ":{"ha":713,"x_min":119,"x_max":671,"o":"m 671 0 l 119 0 l 119 969 l 276 969 l 276 139 l 671 139 l 671 0 m 561 1028 l 481 753 l 381 753 l 394 1028 l 561 1028 z "},"Ļ":{"ha":713,"x_min":119,"x_max":671,"o":"m 671 0 l 119 0 l 119 969 l 276 969 l 276 139 l 671 139 l 671 0 m 407 -78 q 467 -97 446 -78 q 489 -151 489 -117 l 489 -168 q 463 -274 489 -224 q 401 -358 438 -325 l 304 -358 q 354 -301 336 -328 q 382 -237 372 -274 q 338 -212 351 -233 q 324 -167 324 -192 l 324 -151 q 345 -97 324 -117 q 407 -78 367 -78 z "},"Ŀ":{"ha":713,"x_min":119,"x_max":671,"o":"m 671 0 l 119 0 l 119 969 l 276 969 l 276 139 l 671 139 l 671 0 m 551 422 q 481 444 503 422 q 458 501 458 467 l 458 526 q 481 583 458 561 q 551 606 503 606 q 623 583 601 606 q 644 526 644 561 l 644 501 q 623 444 644 467 q 551 422 601 422 z "},"Ł":{"ha":725,"x_min":-10,"x_max":676,"o":"m 676 140 l 676 0 l 125 0 l 125 360 l -10 315 l -10 436 l 125 481 l 125 969 l 282 969 l 282 532 l 519 611 l 519 488 l 282 410 l 282 140 l 676 140 z "},"Ń":{"ha":992,"x_min":119,"x_max":872,"o":"m 697 0 l 381 535 l 274 742 l 269 742 l 269 531 l 269 0 l 119 0 l 119 969 l 296 969 l 611 435 l 718 228 l 722 228 l 722 439 l 722 969 l 872 969 l 872 0 l 697 0 m 674 1271 l 510 1040 l 415 1085 l 542 1335 l 674 1271 z "},"Ň":{"ha":992,"x_min":119,"x_max":872,"o":"m 697 0 l 381 535 l 274 742 l 269 742 l 269 531 l 269 0 l 119 0 l 119 969 l 296 969 l 611 435 l 718 228 l 722 228 l 722 439 l 722 969 l 872 969 l 872 0 l 697 0 m 571 1056 l 418 1056 l 251 1264 l 329 1322 l 494 1161 l 660 1322 l 738 1264 l 571 1056 z "},"Ņ":{"ha":992,"x_min":119,"x_max":872,"o":"m 697 0 l 381 535 l 274 742 l 269 742 l 269 531 l 269 0 l 119 0 l 119 969 l 296 969 l 611 435 l 718 228 l 722 228 l 722 439 l 722 969 l 872 969 l 872 0 l 697 0 m 494 -78 q 555 -97 533 -78 q 576 -151 576 -117 l 576 -168 q 551 -274 576 -224 q 489 -358 525 -325 l 392 -358 q 442 -301 424 -328 q 469 -237 460 -274 q 425 -212 439 -233 q 411 -167 411 -192 l 411 -151 q 433 -97 411 -117 q 494 -78 454 -78 z "},"Ñ":{"ha":992,"x_min":119,"x_max":872,"o":"m 697 0 l 381 535 l 274 742 l 269 742 l 269 531 l 269 0 l 119 0 l 119 969 l 296 969 l 611 435 l 718 228 l 722 228 l 722 439 l 722 969 l 872 969 l 872 0 l 697 0 m 597 1074 q 538 1085 564 1074 q 489 1107 513 1096 q 432 1131 456 1122 q 386 1139 408 1139 q 345 1130 364 1139 q 306 1103 326 1121 l 249 1175 q 305 1231 269 1207 q 392 1256 340 1256 q 451 1244 425 1256 q 500 1222 476 1233 q 557 1199 533 1207 q 603 1190 581 1190 q 644 1199 626 1190 q 683 1226 663 1208 l 740 1154 q 684 1098 719 1122 q 597 1074 649 1074 z "},"Ŋ":{"ha":992,"x_min":119,"x_max":872,"o":"m 269 0 l 119 0 l 119 969 l 296 969 l 611 435 l 718 228 l 722 228 l 722 438 l 722 969 l 872 969 l 872 -93 q 829 -228 872 -178 q 694 -278 786 -278 l 604 -278 l 604 -150 l 722 -150 l 722 0 l 697 0 l 381 535 l 274 742 l 269 742 l 269 532 l 269 0 z "},"Ó":{"ha":988,"x_min":76,"x_max":911,"o":"m 493 -17 q 273 41 367 -17 q 128 210 179 99 q 76 485 76 322 q 128 760 76 649 q 273 928 179 871 q 493 986 367 986 q 715 928 621 986 q 860 760 808 871 q 911 485 911 649 q 860 210 911 322 q 715 41 808 99 q 493 -17 621 -17 m 493 124 q 625 158 569 124 q 713 257 681 193 q 744 408 744 321 l 744 561 q 713 714 744 650 q 625 812 681 778 q 493 846 569 846 q 363 812 419 846 q 274 714 306 778 q 243 561 243 650 l 243 408 q 274 257 243 321 q 363 158 306 193 q 493 124 419 124 m 672 1271 l 508 1040 l 414 1085 l 540 1335 l 672 1271 z "},"Ŏ":{"ha":988,"x_min":76,"x_max":911,"o":"m 493 -17 q 273 41 367 -17 q 128 210 179 99 q 76 485 76 322 q 128 760 76 649 q 273 928 179 871 q 493 986 367 986 q 715 928 621 986 q 860 760 808 871 q 911 485 911 649 q 860 210 911 322 q 715 41 808 99 q 493 -17 621 -17 m 493 124 q 625 158 569 124 q 713 257 681 193 q 744 408 744 321 l 744 561 q 713 714 744 650 q 625 812 681 778 q 493 846 569 846 q 363 812 419 846 q 274 714 306 778 q 243 561 243 650 l 243 408 q 274 257 243 321 q 363 158 306 193 q 493 124 419 124 m 493 1049 q 395 1067 435 1049 q 329 1117 356 1086 q 287 1182 303 1147 q 260 1249 271 1217 l 343 1292 l 371 1246 q 421 1183 396 1207 q 493 1160 446 1160 q 566 1183 540 1160 q 615 1246 592 1207 l 643 1292 l 726 1249 q 687 1159 713 1206 q 615 1081 661 1113 q 493 1049 569 1049 z "},"Ǒ":{"ha":988,"x_min":76,"x_max":911,"o":"m 493 -17 q 273 41 367 -17 q 128 210 179 99 q 76 485 76 322 q 128 760 76 649 q 273 928 179 871 q 493 986 367 986 q 715 928 621 986 q 860 760 808 871 q 911 485 911 649 q 860 210 911 322 q 715 41 808 99 q 493 -17 621 -17 m 493 124 q 625 158 569 124 q 713 257 681 193 q 744 408 744 321 l 744 561 q 713 714 744 650 q 625 812 681 778 q 493 846 569 846 q 363 812 419 846 q 274 714 306 778 q 243 561 243 650 l 243 408 q 274 257 243 321 q 363 158 306 193 q 493 124 419 124 m 569 1056 l 417 1056 l 250 1264 l 328 1322 l 493 1161 l 658 1322 l 736 1264 l 569 1056 z "},"Ô":{"ha":988,"x_min":76,"x_max":911,"o":"m 493 -17 q 273 41 367 -17 q 128 210 179 99 q 76 485 76 322 q 128 760 76 649 q 273 928 179 871 q 493 986 367 986 q 715 928 621 986 q 860 760 808 871 q 911 485 911 649 q 860 210 911 322 q 715 41 808 99 q 493 -17 621 -17 m 493 124 q 625 158 569 124 q 713 257 681 193 q 744 408 744 321 l 744 561 q 713 714 744 650 q 625 812 681 778 q 493 846 569 846 q 363 812 419 846 q 274 714 306 778 q 243 561 243 650 l 243 408 q 274 257 243 321 q 363 158 306 193 q 493 124 419 124 m 417 1311 l 569 1311 l 736 1103 l 658 1044 l 493 1206 l 328 1044 l 250 1103 l 417 1311 z "}}}
